<?xml version="1.0" encoding="UTF-8"?>
<svg width="237px" height="146px" viewBox="0 0 237 146" version="1.1" xmlns="http://www.w3.org/2000/svg" xmlns:xlink="http://www.w3.org/1999/xlink">
    <title>04</title>
    <defs>
        <linearGradient x1="50%" y1="26.8902972%" x2="50%" y2="100%" id="linearGradient-1">
            <stop stop-color="#141417" offset="0%"></stop>
            <stop stop-color="#141417" stop-opacity="0" offset="100%"></stop>
        </linearGradient>
    </defs>
    <g id="web---new" stroke="none" stroke-width="1" fill="none" fill-rule="evenodd">
        <g id="LT---main-page" transform="translate(-1030.000000, -5781.000000)" fill="url(#linearGradient-1)" fill-rule="nonzero">
            <g id="Group-25-Copy-3" transform="translate(1030.000000, 5781.000000)">
                <path d="M57,145.8 C74.8666667,145.8 88.8,139.2 98.8,126 C108.933333,112.666667 114,95 114,73 C114,51 108.966667,33.3666667 98.9,20.1 C88.8333333,6.83333333 74.8666667,0.2 57,0.2 C39.1333333,0.2 25.1666667,6.83333333 15.1,20.1 C5.03333333,33.3666667 0,51 0,73 C0,95 5.03333333,112.633333 15.1,125.9 C25.1666667,139.166667 39.1333333,145.8 57,145.8 Z M57,114.6 C40.3333333,114.6 32,100.733333 32,73 C32,45.2666667 40.3333333,31.4 57,31.4 C73.6666667,31.4 82,45.2666667 82,73 C82,100.733333 73.6666667,114.6 57,114.6 Z M222.5,143 L222.5,120.6 L236.5,120.6 L236.5,91 L222.5,91 L222.5,61 L190.1,61 L190.1,91 L160.9,91 L205.5,3 L171.1,3 L126.5,91 L126.5,120.6 L190.1,120.6 L190.1,143 L222.5,143 Z" id="04"></path>
            </g>
        </g>
    </g>
</svg>