<svg width="116" height="59" viewBox="0 0 116 59" fill="none" xmlns="http://www.w3.org/2000/svg">
<path d="M109 1L89.6535 37.658L75.8346 28.1227L63.7165 44.2268L44.5827 34.2677L41.1811 37.658L36.9291 35.9628L28.2126 49.948L10.3543 42.1078L1 58" stroke="url(#paint0_linear)" stroke-width="2" stroke-linecap="round" stroke-linejoin="round"/>
<path d="M106 14V25M106 36V25M103 32H112M112 32C116 32 116 25 112 25M112 32V36M112 25C115 25 116 18 112 18M112 25H106M112 18H103M112 18V14" stroke="url(#paint1_linear)" stroke-width="2" stroke-linecap="round" stroke-linejoin="round"/>
<defs>
<linearGradient id="paint0_linear" x1="121.247" y1="-12.4727" x2="-14.8176" y2="36.5707" gradientUnits="userSpaceOnUse">
<stop offset="0.223958" stop-color="#00B545" stop-opacity="0.8"/>
<stop offset="0.817708" stop-color="#75DF5F" stop-opacity="0"/>
</linearGradient>
<linearGradient id="paint1_linear" x1="116.361" y1="8.8" x2="99.4603" y2="10.5537" gradientUnits="userSpaceOnUse">
<stop offset="0.223958" stop-color="#00B545" stop-opacity="0.8"/>
<stop offset="0.817708" stop-color="#75DF5F" stop-opacity="0"/>
</linearGradient>
</defs>
</svg>
