<svg width="46" height="46" viewBox="0 0 46 46" fill="none" xmlns="http://www.w3.org/2000/svg">
<path d="M23 43C11.9543 43 3 34.0457 3 23M3 23L5 25M3 23L1 25" stroke="url(#paint0_linear)" stroke-width="2" stroke-linecap="round" stroke-linejoin="round"/>
<path d="M43 23C43 11.9543 34.0457 3 23 3M43 23L41 21M43 23L45 21" stroke="url(#paint1_linear)" stroke-width="2" stroke-linecap="round" stroke-linejoin="round"/>
<path d="M43 23C43 34.0457 34.0457 43 23 43M23 43L25 41M23 43L25 45" stroke="url(#paint2_linear)" stroke-width="2" stroke-linecap="round" stroke-linejoin="round"/>
<path d="M23 3C11.9543 3 3 11.9543 3 23M23 3L21 5M23 3L21 0.999999" stroke="url(#paint3_linear)" stroke-width="2" stroke-linecap="round" stroke-linejoin="round"/>
<path d="M23 13V33M28 18C25.1429 13 19.4286 15.5 19.4286 19.25C19.4286 23 28 23 28 26.75C28 30.5 20.8571 31.75 18 26.75" stroke="url(#paint4_linear)" stroke-width="2" stroke-linecap="round" stroke-linejoin="round"/>
<defs>
<linearGradient id="paint0_linear" x1="25.4948" y1="18.2727" x2="-4.5092" y2="24.5513" gradientUnits="userSpaceOnUse">
<stop offset="0.223958" stop-color="#C40000" stop-opacity="0.8"/>
<stop offset="0.817708" stop-color="#FF0110" stop-opacity="0"/>
</linearGradient>
<linearGradient id="paint1_linear" x1="47.4948" y1="-1.72727" x2="17.4908" y2="4.55126" gradientUnits="userSpaceOnUse">
<stop offset="0.223958" stop-color="#C40000" stop-opacity="0.8"/>
<stop offset="0.817708" stop-color="#FF0110" stop-opacity="0"/>
</linearGradient>
<linearGradient id="paint2_linear" x1="18.2727" y1="20.5052" x2="24.5513" y2="50.5092" gradientUnits="userSpaceOnUse">
<stop offset="0.223958" stop-color="#C40000" stop-opacity="0.8"/>
<stop offset="0.817708" stop-color="#FF0110" stop-opacity="0"/>
</linearGradient>
<linearGradient id="paint3_linear" x1="-1.72728" y1="-1.49484" x2="4.55126" y2="28.5092" gradientUnits="userSpaceOnUse">
<stop offset="0.223958" stop-color="#C40000" stop-opacity="0.8"/>
<stop offset="0.817708" stop-color="#FF0110" stop-opacity="0"/>
</linearGradient>
<linearGradient id="paint4_linear" x1="29.134" y1="8.27273" x2="15.0263" y2="9.61461" gradientUnits="userSpaceOnUse">
<stop offset="0.223958" stop-color="#C40000" stop-opacity="0.8"/>
<stop offset="0.817708" stop-color="#FF0110" stop-opacity="0"/>
</linearGradient>
</defs>
</svg>
