<svg xmlns="http://www.w3.org/2000/svg" width="232" height="246" viewBox="0 0 232 246">
    <defs>
        <linearGradient id="rdmkexak4a" x1="17.783%" x2="83.659%" y1="68.759%" y2="28.333%">
            <stop offset="0%" stop-color="#202020"/>
            <stop offset="100%" stop-color="#0E0E0E"/>
        </linearGradient>
        <linearGradient id="99qmrjkxpb" x1="35.543%" x2="66.828%" y1="80.353%" y2="14.657%">
            <stop offset="0%" stop-color="#1A1A1A"/>
            <stop offset="100%" stop-color="#090909"/>
        </linearGradient>
        <linearGradient id="58hbfrs15c" x1="50.015%" x2="50.015%" y1="92.512%" y2="9.07%">
            <stop offset="0%"/>
            <stop offset="82%" stop-color="#1A1A1A"/>
            <stop offset="100%"/>
        </linearGradient>
    </defs>
    <g fill="none" fill-rule="evenodd">
        <g fill-rule="nonzero">
            <g>
                <path fill="#101112" d="M89.536 18.412c37.387 7.277 64.15 49.997 59.638 95.4-4.513 45.401-38.563 76.297-76.013 69.004-37.45-7.293-64.135-49.981-59.623-95.4C18.051 42 52.085 11.12 89.536 18.413zM73.333 181.06c36.651 7.135 69.933-23.117 74.368-67.531 4.434-44.414-21.687-86.225-58.385-93.36-36.698-7.136-69.886 23.1-74.32 67.546-4.435 44.445 21.702 86.256 58.337 93.345" transform="translate(-1127 -4156) rotate(18 -12526.584 5832.535)"/>
                <path fill="url(#rdmkexak4a)" d="M88.674 27.179c33.454 6.508 57.288 44.665 53.276 85.22-4.011 40.557-34.457 68.159-67.927 61.682-33.47-6.477-57.272-44.665-53.277-85.221 3.996-40.557 34.473-68.19 67.928-61.681z" transform="translate(-1127 -4156) rotate(18 -12526.584 5832.535)"/>
                <path fill="url(#99qmrjkxpb)" d="M90.632 7.512c42.418 8.25 72.629 56.616 67.505 108.04-5.124 51.424-43.656 86.413-86.057 78.164-42.402-8.25-72.644-56.631-67.52-108.04C9.684 34.267 48.23-.737 90.632 7.512zm-17.471 175.32c37.45 7.277 71.484-23.619 76.013-69.005 4.528-45.387-22.25-88.138-59.638-95.415-37.388-7.277-71.469 23.603-75.998 69.005-4.528 45.402 22.173 88.122 59.623 95.415" transform="translate(-1127 -4156) rotate(18 -12526.584 5832.535)"/>
                <path fill="#0D0D11" d="M90.883 5.756c43.138 8.359 73.913 57.682 68.695 110.078-.172 1.82-.407 3.607-.658 5.364 0 .408-.125.8-.203 1.192-.22 1.427-.47 2.838-.737 4.234 0 .33-.141.643-.22.972-.297 1.569-.642 3.012-1.018 4.501-.564 2.196-1.018 3.843-1.567 5.474-12.394 40.101-46.397 65.084-83.315 57.901C28.69 187.066-2.1 137.775 3.134 85.394c.565-5.952 1.613-11.847 3.134-17.628.329-1.239.674-2.462 1.034-3.654.501-1.568.877-2.729 1.27-3.858.579-1.647.986-2.76 1.425-3.858.611-1.568 1.066-2.666 1.567-3.78 2.508-5.712 5.579-11.16 9.167-16.263l.329-.455c.595-.83 1.19-1.568 1.817-2.446.173-.204.345-.44.518-.675.61-.752 1.206-1.49 1.817-2.21.22-.252.423-.503.643-.738.595-.706 1.206-1.412 1.849-2.086.203-.235.423-.47.642-.69.658-.69 1.3-1.364 1.959-2.023l.548-.502c2.251-2.192 4.638-4.24 7.146-6.132l.47-.376 1.927-1.365c.376-.266.752-.533 1.128-.768.376-.235 1.207-.784 1.802-1.16.596-.377.893-.565 1.332-.816.439-.251 1.175-.675 1.755-1.004l1.473-.815 1.74-.863c.522-.261 1.044-.512 1.566-.753.564-.25 1.113-.517 1.693-.753l1.739-.705 1.567-.628c.69-.25 1.394-.47 2.1-.69.438-.157.893-.313 1.347-.439 1.128-.345 2.272-.658 3.416-.94l1.254-.252c.767-.188 1.567-.36 2.334-.502l1.458-.235 2.178-.313 1.567-.157c.72-.079 1.441-.141 2.178-.188h5.327c.768 0 1.567 0 2.288.094h1.567c.846 0 1.692.156 2.554.266l1.254.126c1.238.157 2.523.36 3.87.596zM72.08 193.716c42.417 8.249 80.948-26.755 86.072-78.164 5.124-51.409-25.07-99.79-67.504-108.04C48.215-.738 9.684 34.252 4.56 85.676c-5.124 51.424 25.071 99.79 67.504 108.04" transform="translate(-1127 -4156) rotate(18 -12526.584 5832.535)"/>
                <path fill="#101112" d="M89.066 23.195c35.272 6.87 60.406 47.049 56.143 89.848-4.262 42.798-36.306 71.859-71.562 64.99-35.257-6.87-60.406-47.08-56.144-89.848 4.262-42.767 36.306-71.843 71.563-64.99zM74.023 174.081c33.47 6.477 63.869-21.125 67.896-61.681 4.027-40.556-19.79-78.713-53.277-85.221-33.485-6.509-63.806 21.109-67.849 61.65-4.042 40.54 19.791 78.712 53.277 85.22" transform="translate(-1127 -4156) rotate(18 -12526.584 5832.535)"/>
                <path fill="#060608" d="M91.103 2.713c44.61 8.673 76.388 59.595 70.998 113.607-5.39 54.012-45.896 90.961-90.507 82.21C26.983 189.78-4.795 138.967.595 84.907 5.985 30.848 46.507-5.975 91.103 2.713zm67.614 119.614c0-.392.14-.784.203-1.192.25-1.756.486-3.544.658-5.364 5.218-52.333-25.557-101.656-68.695-110.015-1.269-.236-2.554-.44-3.808-.628l-1.253-.125c-.862-.11-1.708-.188-2.554-.267H81.7c-.752 0-1.567-.078-2.288-.094h-5.328c-.736 0-1.457.11-2.178.188l-1.567.157-2.178.314-1.457.235c-.799.141-1.567.314-2.335.502l-1.253.25c-1.144.283-2.288.597-3.416.942-.455.125-.909.282-1.348.439-.705.22-1.41.44-2.1.69l-1.566.627-1.724.737c-.58.236-1.128.502-1.692.753-.564.251-1.082.486-1.567.753l-1.74.863-1.473.815c-.58.33-1.175.643-1.755 1.004-.58.36-.893.533-1.331.815-.44.283-1.207.753-1.802 1.16-.596.409-.753.503-1.129.77l-1.927 1.364-.47.376c-2.508 1.892-4.894 3.94-7.145 6.132l-.549.502c-.658.659-1.3 1.333-1.958 2.023-.22.22-.44.455-.643.69-.642.674-1.254 1.38-1.849 2.086-.22.235-.423.486-.642.737-.612.721-1.207 1.459-1.818 2.211-.172.236-.345.47-.517.675-.627.815-1.222 1.568-1.818 2.446l-.329.455c-3.586 5.085-6.662 10.511-9.182 16.2-.517 1.177-.972 2.29-1.426 3.42-.596 1.568-1.003 2.634-1.395 3.763-.58 1.569-.956 2.776-1.316 3.952-.501 1.569-.846 2.839-1.175 4.078-1.537 5.78-2.6 11.675-3.181 17.628-5.218 52.38 25.573 101.672 68.773 110.078 36.918 7.183 70.92-17.8 83.315-57.901.517-1.569.972-3.278 1.395-4.972.517-1.991.862-3.481 1.16-5.003 0-.329.14-.643.219-.972.266-1.396.517-2.807.736-4.234" transform="translate(-1127 -4156) rotate(18 -12526.584 5832.535)"/>
                <path fill="#000" d="M89.316 20.168c36.651 7.136 62.757 48.915 58.338 93.36-4.419 44.446-37.67 74.667-74.32 67.532-36.652-7.136-62.679-48.931-58.338-93.345 4.34-44.414 37.732-74.667 74.32-67.547zm-15.67 157.865c35.257 6.869 67.38-22.239 71.563-64.99 4.184-42.752-20.871-82.979-56.143-89.848-35.273-6.87-67.301 22.286-71.563 64.99-4.262 42.705 20.872 82.994 56.144 89.848" transform="translate(-1127 -4156) rotate(18 -12526.584 5832.535)"/>
                <path fill="url(#58hbfrs15c)" d="M177.536 103.507v-.925-.988c0-1.568 0-3.136-.157-4.705v-1.02-.548c0-.47 0-.941-.11-1.412 0-1.05-.172-2.101-.282-3.136 0-.533-.11-1.05-.172-1.568-.063-.518 0-.8-.126-1.192-.125-.392-.14-.894-.188-1.333-.125-.91-.266-1.835-.407-2.745-.141-.91-.25-1.568-.392-2.243-.14-.674-.329-1.803-.501-2.697-.094-.408-.157-.8-.235-1.208-.079-.407-.173-.705-.25-1.066-.189-.816-.377-1.568-.58-2.43-.204-.863-.377-1.57-.58-2.275-.204-.706-.44-1.568-.659-2.4-.219-.83-.438-1.49-.673-2.242-.235-.753-.502-1.568-.768-2.353-.267-.784-.486-1.458-.752-2.18-.267-.72-.564-1.568-.846-2.305l-.83-2.148c-.314-.753-.628-1.569-.957-2.243-.329-.674-.595-1.396-.909-2.086-.313-.69-.673-1.474-1.034-2.196-.36-.72-.642-1.364-.987-2.038-.345-.675-.736-1.427-1.113-2.133-.376-.706-.689-1.318-1.065-1.976-.376-.659-.784-1.38-1.19-2.07-.267-.44-.518-.91-.784-1.35l-.33-.517c-.532-.847-1.065-1.678-1.566-2.509-.33-.517-.659-1.035-1.003-1.568-.627-.925-1.285-1.835-1.943-2.729l-.705-1.004-.126-.157-.72-.878c-.643-.831-1.285-1.647-1.944-2.462l-.94-1.114c-.344-.407-.69-.846-1.05-1.254l-.454-.47c-1.238-1.412-2.491-2.777-3.808-4.094l-.188-.172c-1.128-1.13-2.287-2.212-3.463-3.278-.14-.11-.266-.251-.391-.36l-.91-.77-2.303-1.928c-.235-.173-.438-.377-.673-.55-.236-.172-.549-.407-.815-.61-.705-.55-1.41-1.067-2.131-1.57l-.878-.658-.705-.455c-.69-.47-1.379-.925-2.068-1.364-.36-.235-.69-.47-1.05-.69l-.627-.377c-.642-.392-1.3-.752-1.959-1.129-.391-.235-.783-.47-1.19-.69l-.596-.313c-.642-.345-1.3-.675-1.974-1.004-.423-.204-.83-.44-1.27-.643l-.58-.251c-.657-.314-1.316-.596-1.974-.878l-1.347-.596-.564-.204c-.69-.282-1.395-.533-2.084-.784-.69-.251-.925-.36-1.395-.518l-.533-.157-2.21-.674c-.485-.141-.955-.314-1.44-.44l-.455-.125c-.83-.22-1.567-.407-2.476-.596-.486-.11-.956-.25-1.442-.345l-.736-.14c-1.332-.267-2.648-.487-3.98-.66h-.47c-.862-.156-1.724-.219-2.586-.297-.862-.079-1.269-.157-1.896-.189H91.087c-1.567 0-3.024.126-4.513.267l-14.87 1.443c1.567-.141 3.008-.22 4.528-.267h5.343c.831 0 1.677.141 2.508.22.83.078 1.723.141 2.585.25 1.473.189 2.946.409 4.435.707.736.14 1.457.313 2.193.486.737.172 1.646.376 2.46.596.815.22 1.27.36 1.912.549.643.188 1.473.423 2.21.674.736.25 1.284.439 1.927.674.642.236 1.379.502 2.068.784.69.283 1.285.518 1.912.8l1.99.863 1.912.878 1.974 1.004 1.786 1.003c.658.377 1.317.738 1.959 1.13l1.661 1.05c.705.455 1.395.91 2.068 1.38l1.52 1.067c.721.517 1.442 1.035 2.147 1.568l1.473 1.16c.783.628 1.567 1.271 2.288 1.914l1.3 1.13c1.191 1.066 2.35 2.148 3.479 3.277l.204.204c1.3 1.302 2.57 2.682 3.807 4.077l1.567 1.741c.314.377.627.737.925 1.114.674.815 1.316 1.646 1.958 2.478l.612.784c.282.376.548.768.83 1.16.658.894 1.316 1.804 1.943 2.73.345.501.674 1.019 1.003 1.567.533.816 1.081 1.647 1.567 2.494.486.847.752 1.255 1.128 1.882.376.627.8 1.364 1.19 2.07.393.706.706 1.318 1.066 1.976.36.659.753 1.412 1.113 2.133.36.721.658 1.349.987 2.023.33.675.705 1.459 1.034 2.196.33.737.611 1.396.91 2.101.297.706.642 1.569.94 2.243.297.674.563 1.427.846 2.149l.846 2.305.752 2.18c.266.784.517 1.568.768 2.352l.658 2.243c.235.8.454 1.568.674 2.4.219.83.391 1.568.58 2.273.187.706.391 1.569.58 2.447.187.878.312 1.568.47 2.258.156.69.36 1.788.516 2.698.157.91.267 1.49.392 2.242.125.753.266 1.835.392 2.745.125.91.235 1.678.329 2.525 0 .533.11 1.05.172 1.568.11 1.051.188 2.102.267 3.137 0 .47.078.94.11 1.411.03.47 0 1.051 0 1.569 0 1.568.125 3.136.14 4.704v1.898c0 1.333 0 2.65-.094 3.984v1.772c0 1.38-.188 2.744-.298 4.109 0 .517 0 1.035-.125 1.568-.157 1.568-.345 3.137-.564 4.705 0 .47-.141.925-.22 1.38-.172 1.13-.344 2.258-.548 3.387l-.329 1.679c-.188.988-.392 1.96-.61 2.932-.126.565-.252 1.114-.393 1.678-.235.988-.501 1.96-.752 2.949-.14.486-.266.972-.407 1.458-.36 1.286-.737 2.54-1.144 3.796-.062.164-.114.331-.157.501-.47 1.412-.971 2.808-1.567 4.203l-.47 1.177c-.407 1.019-.815 2.038-1.238 3.026l-.61 1.396c-.44.988-.91 1.976-1.38 2.933-.188.408-.391.831-.595 1.223-.69 1.396-1.41 2.776-2.163 4.11l-.25.407c-.752 1.333-1.567 2.619-2.335 3.89l-.658 1.003c-.972 1.49-1.959 2.948-3.009 4.344l-1.238 1.568-.861 1.13c-.502.611-1.003 1.207-1.567 1.803l-.753.91-.485.549c-.721.815-1.458 1.615-2.21 2.4l-.956.956c-.61.627-1.222 1.239-1.849 1.835l-1.378 1.27-.91.831c-.563.502-1.143.988-1.739 1.474-.25.22-.501.44-.767.643-.83.675-1.693 1.35-2.555 1.992l-.329.235c-.767.55-1.567 1.098-2.319 1.569l-.909.596c-.595.392-1.19.784-1.802 1.144l-1.034.643-1.755 1.004-1.08.58-1.85.957-1.003.502c-.736.345-1.567.69-2.24 1.004l-.659.298c-.971.407-1.943.8-2.93 1.16l-.783.282-2.21.738c-.36.125-.736.22-1.097.329-.658.204-1.3.392-1.958.565l-1.191.297-1.943.455c-.392 0-.784.173-1.175.236-.705.14-1.41.266-2.131.376l-1.003.172c-1.05.157-2.116.283-3.134.393l14.855-1.443c1.065-.11 2.115-.236 3.133-.392l1.019-.173 2.115-.36 1.176-.252 1.958-.454 1.175-.298 1.96-.55 1.096-.329 2.225-.752.768-.283c.987-.36 1.974-.752 2.946-1.16l.642-.282 2.257-1.02 1.002-.502 1.85-.956 1.065-.58c.595-.33 1.175-.66 1.755-1.02l1.05-.612 1.802-1.16.909-.596c.783-.533 1.567-1.082 2.319-1.568l.313-.22c.862-.643 1.724-1.317 2.57-1.992l.752-.643 1.755-1.474.909-.831.909-.816c.156-.14.297-.313.47-.454.627-.596 1.238-1.208 1.849-1.835.313-.314.642-.628.956-.957.736-.784 1.473-1.568 2.193-2.4l.423-.47v-.078c.251-.298.486-.596.737-.879l1.567-1.835.862-1.113c.376-.486.752-.957 1.112-1.459.051-.06.098-.122.141-.188 1.034-1.396 2.037-2.854 2.993-4.328.11-.157.22-.298.314-.455.094-.157.235-.376.344-.565.8-1.27 1.567-2.556 2.335-3.873l.204-.33v-.094c.752-1.333 1.473-2.713 2.178-4.093 0-.141.14-.267.204-.408.062-.14.25-.549.391-.831.47-.962.925-1.934 1.364-2.917.11-.267.235-.518.36-.768.125-.251.172-.424.25-.643.44-.988.847-2.008 1.239-3.027.125-.298.25-.58.36-.879.11-.297 0-.203.11-.297.517-1.38 1.018-2.792 1.567-4.204l.14-.439c.408-1.254.8-2.509 1.16-3.795 0-.125 0-.25.11-.376s.188-.737.282-1.098c.266-.972.517-1.945.752-2.933l.188-.706c.078-.313.125-.643.204-.972.22-.972.423-1.945.627-2.933 0-.329.14-.658.203-.988.063-.329 0-.47.11-.69.198-1.108.386-2.237.564-3.387 0-.345.125-.69.172-1.051v-.33c.22-1.568.423-3.136.58-4.704-.008-.115-.008-.23 0-.345 0-.408 0-.8.078-1.192.126-1.365.236-2.729.298-4.093v-.502-1.286c.33-1.27.36-2.588.36-3.89z" transform="translate(-1127 -4156) rotate(18 -12526.584 5832.535)"/>
                <path fill="#000" d="M95.177 93.157c6.565-2.118 9.323-8.03 9.323-15.966 0-8.547-5.939-15.416-12.536-15.04l-6.267.377V44.775l-4.701.486v17.565l-8.963.564V46.14l-4.701.485v17.048l-15.153.972v6.948l8.008-.298v50.718l-6.91-.69v6.477l13.945 1.694v16.499l4.701.784v-16.718l8.963 1.082v17.126l4.7.768v-17.298l3.965.486c10.577 1.27 19.101-6.54 19.101-20.012 0-13.471-7.458-18.02-13.475-19.054zM92.043 80.39c0 9.017-7.005 11.982-10.765 11.903l-9.637-.172V69.868l8.274-.346c5.045-.203 12.175 1.835 12.175 10.869h-.047zm-8.822 44.085l-11.533-1.177V99.195l9.919.376c5.97.22 14.51 3.137 14.51 12.97s-8.368 12.39-12.896 11.935z" transform="translate(-1127 -4156) rotate(18 -12526.584 5832.535)"/>
            </g>
        </g>
    </g>
</svg>
