<?xml version="1.0" encoding="UTF-8"?>
<svg preserveAspectRatio="none" width="2560px" height="2973px" viewBox="0 0 2560 2973" version="1.1" xmlns="http://www.w3.org/2000/svg" xmlns:xlink="http://www.w3.org/1999/xlink">
    <title>wave-2560</title>
    <defs>
        <rect id="path-1" x="0" y="0" width="2560" height="2972.44444"></rect>
        <linearGradient x1="50%" y1="100%" x2="50%" y2="3.061617e-15%" id="linearGradient-3">
            <stop stop-color="#000000" offset="0%"></stop>
            <stop stop-color="#062C14" offset="100%"></stop>
        </linearGradient>
        <linearGradient x1="50%" y1="3.061617e-15%" x2="50%" y2="100%" id="linearGradient-4">
            <stop stop-color="#80EC68" offset="0%"></stop>
            <stop stop-color="#159E49" offset="100%"></stop>
        </linearGradient>
    </defs>
    <g id="mob" stroke="none" stroke-width="1" fill="none" fill-rule="evenodd">
        <g id="wave-2560">
            <mask id="mask-2" fill="white">
                <use xlink:href="#path-1"></use>
            </mask>
            <use id="Mask" fill="#000000" opacity="0" xlink:href="#path-1"></use>
            <g id="Group-7" opacity="0.8" mask="url(#mask-2)">
                <g transform="translate(2024.388889, 1490.888889) scale(-1, -1) rotate(-180.000000) translate(-2024.388889, -1490.888889) translate(-55.111111, 8.888889)" id="Rectangle">
                    <path d="M0,329.614839 C50.7721518,246.983424 108.525238,205.667716 173.259259,205.667716 C302.993835,205.667716 301.178758,367.552891 518.832408,367.552891 C703.544995,367.552891 703.54376,527.257105 866.296296,527.257105 C1046.94175,527.257105 1046.94175,367.552891 1212.81481,367.552891 C1386.07407,367.552891 1386.07407,666.316022 1559.33333,666.316022 C1732.59259,666.316022 1752.59629,490.401154 1905.85185,490.401154 C2101.6615,490.401154 2101.6615,295.726313 2252.37037,295.726313 C2437.28207,295.726313 2437.28207,-4.04219867e-13 2598.88889,-4.04219867e-13 C2772.97325,-4.04219867e-13 2726.71527,329.614839 2945.40741,329.614839 C3176.94667,329.614839 3098.27293,490.401154 3291.92593,490.401154 C3470.09621,490.401154 3470.09621,377.055973 3638.44444,377.055973 C3851.86412,377.055973 3788.16296,218.866365 3984.96296,218.866365 C4029.99138,218.866365 4087.74446,179.245593 4158.22222,100.004047 L4158.22222,2963.55556 L0,2963.55556" stroke="none" fill="url(#linearGradient-3)" fill-rule="evenodd"></path>
                    <path d="M0,331.547167 C50.7721518,248.431335 108.525238,206.87342 173.259259,206.87342 C302.993835,206.87342 301.178758,369.707627 518.832408,369.707627 C703.544995,369.707627 703.54376,530.348089 866.296296,530.348089 C1046.94175,530.348089 1046.94175,369.707627 1212.81481,369.707627 C1386.07407,369.707627 1386.07407,670.222222 1559.33333,670.222222 C1732.59259,670.222222 1752.59629,493.276074 1905.85185,493.276074 C2101.6615,493.276074 2101.6615,297.459974 2252.37037,297.459974 C2437.28207,297.459974 2437.28207,-4.04219867e-13 2598.88889,-4.04219867e-13 C2772.97325,-4.04219867e-13 2726.71527,331.547167 2945.40741,331.547167 C3176.94667,331.547167 3098.27293,493.276074 3291.92593,493.276074 C3470.09621,493.276074 3470.09621,379.26642 3638.44444,379.26642 C3851.86412,379.26642 3788.16296,220.149444 3984.96296,220.149444 C4029.99138,220.149444 4087.74446,180.296399 4158.22222,100.59031" stroke="url(#linearGradient-4)" stroke-width="2" fill="none"></path>
                </g>
            </g>
        </g>
    </g>
</svg>