<svg width="30" height="30" viewBox="0 0 30 30" fill="none" xmlns="http://www.w3.org/2000/svg">
<path fill-rule="evenodd" clip-rule="evenodd" d="M22.7707 5.43701C23.7994 5.44162 24.6263 6.26315 24.6309 7.28315C24.6356 8.30891 23.7602 9.16967 22.7338 9.15005C21.7039 9.13044 20.9035 8.30545 20.9104 7.27161C20.9173 6.24008 21.7373 5.43239 22.7707 5.43701ZM26.9688 14.9877H26.9677C26.9677 13.0285 26.9804 11.0692 26.9585 9.11002C26.9527 8.55849 26.91 7.9908 26.7728 7.45772C26.0785 4.77275 23.7684 3.02122 20.9313 3.01314C16.9986 3.00161 13.0669 3.00622 9.13419 3.01545C8.69132 3.0166 8.23923 3.05122 7.80674 3.13891C4.98346 3.71352 3.05514 6.06043 3.04246 8.95656C3.02746 12.7792 3.03669 16.6007 3.0413 20.4245C3.0413 20.9322 3.02516 21.4515 3.10819 21.9488C3.60988 24.9418 6.00529 26.9622 9.05 26.9703C12.9989 26.9795 16.9467 26.976 20.8944 26.9726C24.3831 26.9703 26.9538 24.4064 26.9677 20.9126C26.9758 18.9384 26.9688 16.963 26.9688 14.9877ZM14.9872 29.9495C12.7267 29.9495 10.4628 30.036 8.20694 29.9298C4.0689 29.736 0.412935 26.211 0.103851 22.0734C-0.0610713 19.8695 0.0231197 17.6496 0.0104334 15.4365C-0.00109961 13.2846 -0.00225291 11.135 0.0092801 8.98539C0.0311928 4.63658 2.98595 1.02968 7.23817 0.170071C7.76523 0.0639181 8.3119 0.0154569 8.84933 0.0143031C12.9574 0.00276472 17.0643 -0.0110813 21.1724 0.0143031C25.1339 0.0408413 28.595 2.69236 29.6364 6.5081C29.8556 7.31232 29.9686 8.16962 29.9755 9.0027C30.0101 12.9373 30.0009 16.8719 29.9893 20.8053C29.9744 25.2764 27.1557 28.8556 22.9 29.7821C22.2069 29.9333 21.4791 29.9748 20.7675 29.9852C18.8415 30.0118 16.9144 29.9945 14.9872 29.9945V29.9495ZM15.0179 19.7213C17.6452 19.6994 19.7349 17.5891 19.728 14.9641C19.7211 12.3391 17.5644 10.2241 14.9199 10.253C12.3492 10.2795 10.2202 12.4533 10.2548 15.0171C10.2894 17.6537 12.4046 19.7433 15.0179 19.7213ZM15.0468 7.24373C19.3694 7.28642 22.7808 10.786 22.7359 15.1314C22.692 19.3498 19.1514 22.7998 14.9142 22.7548C10.6135 22.7086 7.19975 19.1813 7.24819 14.8325C7.29548 10.6395 10.828 7.20219 15.0468 7.24373Z" fill="url(#paint0_linear)"/>
<defs>
<linearGradient id="paint0_linear" x1="14.9999" y1="0" x2="14.9999" y2="30" gradientUnits="userSpaceOnUse">
<stop offset="0.171875" stop-color="#75DF5F"/>
<stop offset="0.854167" stop-color="#00B545"/>
</linearGradient>
</defs>
</svg>
