<svg width="38" height="30" viewBox="0 0 38 30" fill="none" xmlns="http://www.w3.org/2000/svg">
<path fill-rule="evenodd" clip-rule="evenodd" d="M33.0259 30C36.173 30 37.9998 28.1536 37.9998 24.5521V5.4479C37.9998 1.84644 36.1549 0 32.5557 0H4.99166C1.84459 0 -0.000244141 1.82815 -0.000244141 5.4479V24.5521C-0.000244141 28.1536 1.86268 30 5.46192 30H33.0259ZM19.0269 16.819C18.3757 16.819 17.7246 16.5082 17.0012 15.777L4.232 3.03474C4.57565 2.90677 4.95547 2.85193 5.40763 2.85193H32.6099C33.0621 2.85193 33.4781 2.92505 33.8217 3.05303L21.0706 15.777C20.3291 16.5082 19.6961 16.819 19.0269 16.819ZM2.82125 5.41138V24.6436L12.4795 14.9909L2.82125 5.41138ZM35.1963 24.5884L25.5923 14.9906L35.1963 5.46594V24.5884ZM5.40767 27.1481H32.61C33.044 27.1481 33.4419 27.075 33.7675 26.947L23.6932 16.8739L22.6442 17.9159C21.4324 19.1408 20.2568 19.6344 19.0269 19.6344C17.797 19.6344 16.6395 19.1408 15.4277 17.9159L14.3606 16.8739L4.2863 26.9653C4.61186 27.0933 4.97359 27.1481 5.40767 27.1481Z" fill="url(#paint0_linear)"/>
<defs>
<linearGradient id="paint0_linear" x1="18.9998" y1="0" x2="18.9998" y2="30" gradientUnits="userSpaceOnUse">
<stop offset="0.171875" stop-color="#75DF5F"/>
<stop offset="0.854167" stop-color="#00B545"/>
</linearGradient>
</defs>
</svg>
