<svg width="16" height="20" viewBox="0 0 16 20" fill="none" xmlns="http://www.w3.org/2000/svg">
<path fill-rule="evenodd" clip-rule="evenodd" d="M0.361592 17.8925C-0.120531 18.3746 -0.120531 19.1563 0.361592 19.6384C0.843715 20.1205 1.62539 20.1205 2.10751 19.6384L8 13.7459L13.8925 19.6384C14.3746 20.1205 15.1563 20.1205 15.6384 19.6384C16.1205 19.1563 16.1205 18.3746 15.6384 17.8925L9.74592 12L15.6384 6.10751C16.1205 5.62539 16.1205 4.84372 15.6384 4.36159C15.1563 3.87947 14.3746 3.87947 13.8925 4.36159L8 10.2541L2.10751 4.36159C1.62539 3.87947 0.843715 3.87947 0.361592 4.36159C-0.120531 4.84372 -0.120531 5.62539 0.361592 6.10752L6.25408 12L0.361592 17.8925Z" fill="url(#paint0_linear)"/>
<defs>
<linearGradient id="paint0_linear" x1="8" y1="4" x2="8" y2="20" gradientUnits="userSpaceOnUse">
<stop stop-color="#8EEEFF"/>
<stop offset="1" stop-color="#0090AA"/>
</linearGradient>
</defs>
</svg>
