<svg width="30" height="24" viewBox="0 0 30 24" fill="none" xmlns="http://www.w3.org/2000/svg">
<path d="M2.27792 10.4521L19.5522 3.32846C21.2574 2.58642 27.0403 0.21188 27.0403 0.21188C27.0403 0.21188 29.7092 -0.82698 29.4868 1.69597C29.4127 2.73483 28.8196 6.37083 28.2265 10.3037L26.373 21.9537C26.373 21.9537 26.2247 23.6604 24.9644 23.9573C23.704 24.2541 21.6281 22.9184 21.2574 22.6216C20.9609 22.399 15.697 19.0598 13.7694 17.4273C13.2505 16.982 12.6573 16.0916 13.8436 15.0527C16.5126 12.604 19.7005 9.56162 21.6281 7.63231C22.5178 6.74186 23.4075 4.66414 19.7005 7.18708L9.24696 14.2365C9.24696 14.2365 8.06074 14.9785 5.83658 14.3107C3.61241 13.6429 1.01756 12.7524 1.01756 12.7524C1.01756 12.7524 -0.761772 11.6393 2.27792 10.4521Z" fill="white"/>
</svg>
