<svg width="33" height="30" viewBox="0 0 33 30" fill="none" xmlns="http://www.w3.org/2000/svg">
<path fill-rule="evenodd" clip-rule="evenodd" d="M28.898 0.314929C29.2825 0.162043 29.7201 0.0236587 30.1969 0.00272879C30.6738 -0.0182018 31.1884 0.0781771 31.7311 0.399484C32.2738 0.72079 32.7244 1.33308 32.8914 1.96049C33.0584 2.5879 33.0167 3.20356 32.8753 3.84019L32.885 3.80117C32.885 3.80117 28.3432 26.8128 28.2373 27.3626L28.2341 27.3658C28.1013 28.047 27.8059 28.5495 27.3316 29.0406C26.8574 29.5318 26.1161 30 25.1786 30C23.6074 30 22.9286 29.073 22.8419 28.9496L18.0975 24.5202L14.2234 27.8276L14.188 27.8536C14.188 27.8536 13.6379 28.3447 12.7408 28.3447C12.5318 28.3447 12.3062 28.2978 12.0801 28.2276C12.0558 28.2226 12.036 28.2196 12.0182 28.2169C11.9888 28.2124 11.9648 28.2087 11.935 28.1983C11.9188 28.1927 11.9036 28.1849 11.8884 28.177C11.8762 28.1708 11.864 28.1645 11.8512 28.1593L11.8899 28.1691C11.8832 28.1664 11.8764 28.1646 11.8697 28.1629C11.8624 28.161 11.8551 28.1591 11.848 28.1561C11.7489 28.1154 11.6503 28.0721 11.5612 28.0162C11.3289 27.8707 11.1396 27.6863 10.981 27.4829C10.6638 27.076 10.4354 26.5885 10.201 25.8406H10.2042C9.91162 24.9079 8.79165 21.5249 8.30949 20.0685C8.24534 19.8747 8.19249 19.7151 8.15437 19.5998C7.23913 19.2302 3.3951 17.6782 2.10789 17.1608V17.164C1.72709 17.0112 1.27145 16.806 0.821883 16.3672C0.372311 15.9284 0 15.162 0 14.4095C0 13.4766 0.566507 12.6236 1.07651 12.2306C1.51639 11.8916 1.9203 11.7393 2.09497 11.6734C2.12234 11.6631 2.14409 11.6549 2.15946 11.6485C3.0405 11.2744 4.14517 10.8052 5.40034 10.2721C8.85116 8.80661 13.4396 6.85794 17.6463 5.07274C20.5147 3.85547 23.2058 2.7159 25.2366 1.85642C25.4436 1.76881 25.6428 1.68452 25.8339 1.60362C27.5179 0.89083 28.5791 0.441674 28.898 0.314929ZM25.0465 26.4747C25.2979 25.1811 29.3664 4.55749 29.5459 3.64832C29.119 3.82627 28.2256 4.20157 26.5129 4.92639C24.484 5.78505 21.7938 6.92564 18.9258 8.1427C13.4612 10.4617 7.59361 12.9526 4.17063 14.4062C5.83398 15.0765 8.72793 16.2485 9.63607 16.6163C9.77859 16.674 9.8722 16.7119 9.90447 16.725C13.8574 14.456 21.8957 9.83398 23.783 8.64678C23.8012 8.63533 23.8215 8.62227 23.8433 8.60819C23.9992 8.50756 24.237 8.35409 24.418 8.35409C24.6473 8.35409 24.7467 8.49424 24.7467 8.68905C24.7467 8.83558 24.6568 8.98325 24.2278 9.40451C23.6948 9.93068 14.8454 18.9689 14.8454 18.9689L13.5627 24.0292L18.1942 20.0779L25.0465 26.4747Z" fill="url(#paint0_linear)"/>
<defs>
<linearGradient id="paint0_linear" x1="16.5" y1="0" x2="16.5" y2="30" gradientUnits="userSpaceOnUse">
<stop offset="0.171875" stop-color="#75DF5F"/>
<stop offset="0.854167" stop-color="#00B545"/>
</linearGradient>
</defs>
</svg>
