<svg width="36" height="30" viewBox="0 0 36 30" fill="none" xmlns="http://www.w3.org/2000/svg">
<path fill-rule="evenodd" clip-rule="evenodd" d="M3.10621 10.5905C2.42635 9.49892 1.89048 8.39328 1.64679 7.14996C1.2937 5.34749 1.52909 3.62932 2.33911 1.99263C2.76143 1.13987 3.10898 1.09632 3.72099 1.82405C6.25491 4.83893 9.38284 6.94906 13.1242 8.07437C14.3897 8.4551 15.7052 8.67004 16.9846 8.95804C17.0593 8.00132 17.0455 7.1626 17.2006 6.35479C18.3318 0.468334 25.2773 -2.00847 29.7774 1.8676C30.1222 2.16403 30.4185 2.26659 30.8283 2.09378C31.9097 1.6372 32.9898 1.17499 34.085 0.752121C34.3426 0.653779 34.7607 0.57932 34.9144 0.715594C35.0792 0.861702 35.1374 1.3211 35.0377 1.5529C34.6804 2.3846 34.2373 3.17835 33.7956 4.04657C34.2373 3.8822 34.6804 3.66866 35.1471 3.56048C35.4115 3.49867 35.7148 3.60825 36 3.64056C35.964 3.91592 36.0249 4.27838 35.8754 4.45399C34.9227 5.55682 33.9438 6.63718 32.9302 7.68241C32.6588 7.96058 32.5231 8.19379 32.5259 8.58856C32.5827 17.8411 26.6356 26.3365 18.12 28.9664C12.0635 30.8363 6.2286 30.183 0.735685 26.8928C0.633221 26.8338 0.539065 26.7621 0.435216 26.7045C0.104284 26.5219 -0.131107 26.2213 0.0807448 25.8897C0.208133 25.6888 0.594451 25.5441 0.850611 25.5638C3.23775 25.7478 5.54735 25.457 7.7531 24.4918C8.35819 24.2263 8.93421 23.8962 9.61407 23.5506C9.0519 23.3328 8.59497 23.1839 8.16157 22.9844C6.23137 22.0965 4.87995 20.6425 4.11008 18.6391C3.76807 17.7498 3.94392 17.4871 5.00595 17.459C4.75533 17.2665 4.57671 17.1345 4.4064 16.994C2.53989 15.45 1.51524 13.4733 1.43909 11.0176C1.41278 10.1662 1.76864 9.95692 2.53989 10.3292C2.72681 10.4205 2.91651 10.5034 3.10621 10.5905Z" fill="url(#paint0_linear)"/>
<defs>
<linearGradient id="paint0_linear" x1="18" y1="0" x2="18" y2="30" gradientUnits="userSpaceOnUse">
<stop offset="0.171875" stop-color="#75DF5F"/>
<stop offset="0.854167" stop-color="#00B545"/>
</linearGradient>
</defs>
</svg>
