<svg xmlns="http://www.w3.org/2000/svg" width="22" height="22" viewBox="0 0 22 22">
    <g fill="none">
        <path fill="#29B6F6" stroke="#FFF" d="M10 0C4.477 0 0 4.477 0 10s4.477 10 10 10 10-4.477 10-10S15.523 0 10 0z" transform="translate(1 1)"/>
        <path fill="#FFF" d="M14.975 5.5l-1.873 9.563s-.08.437-.623.437c-.287 0-.436-.137-.436-.137l-4.057-3.367-1.985-1-2.548-.678S3 10.188 3 9.813c0-.313.466-.462.466-.462l10.659-4.234c-.001 0 .325-.117.563-.117.146 0 .312.063.312.25 0 .125-.025.25-.025.25z" transform="translate(1 1)"/>
        <path fill="#B0BEC5" d="M9.5 13.252L7.787 14.94s-.074.057-.174.06c-.035 0-.072-.005-.11-.022l.482-2.982L9.5 13.252z" transform="translate(1 1)"/>
        <path fill="#CFD8DC" d="M12.948 7.098c-.084-.11-.24-.13-.35-.046L6 11s1.053 2.946 1.213 3.456c.162.51.29.523.29.523l.482-2.983 4.917-4.548c.11-.084.13-.24.046-.35z" transform="translate(1 1)"/>
    </g>
</svg>
