<svg width="1218" height="50" viewBox="0 0 1218 50" fill="none" xmlns="http://www.w3.org/2000/svg">
<rect width="182" height="4.00002" rx="2" transform="matrix(1 8.74228e-08 8.74228e-08 -1 0 27)" fill="url(#paint0_linear)"/>
<rect width="770" height="4.00007" rx="2" transform="matrix(1 8.74228e-08 8.74228e-08 -1 222 27)" fill="url(#paint1_linear)"/>
<rect x="1218" y="27" width="186" height="4.00002" rx="2" transform="rotate(180 1218 27)" fill="url(#paint2_linear)"/>
<circle cx="202" cy="25" r="25" transform="rotate(-90 202 25)" fill="url(#paint3_linear)" fill-opacity="0.2"/>
<circle cx="202" cy="25" r="20" transform="rotate(-90 202 25)" fill="url(#paint4_linear)"/>
<circle cx="472" cy="25" r="25" transform="rotate(-90 472 25)" fill="url(#paint5_linear)" fill-opacity="0.2"/>
<circle cx="472" cy="25" r="20" transform="rotate(-90 472 25)" fill="url(#paint6_linear)"/>
<circle cx="742" cy="25" r="25" transform="rotate(-90 742 25)" fill="url(#paint7_linear)" fill-opacity="0.2"/>
<circle cx="742" cy="25" r="20" transform="rotate(-90 742 25)" fill="url(#paint8_linear)"/>
<circle cx="1012" cy="25" r="25" transform="rotate(-90 1012 25)" fill="url(#paint9_linear)" fill-opacity="0.2"/>
<circle cx="1012" cy="25" r="20" transform="rotate(-90 1012 25)" fill="url(#paint10_linear)"/>
<defs>
<linearGradient id="paint0_linear" x1="202.639" y1="-0.945459" x2="199.227" y2="28.5929" gradientUnits="userSpaceOnUse">
<stop offset="0.223958" stop-color="#C40000" stop-opacity="0.8"/>
<stop offset="0.817708" stop-color="#FF0110" stop-opacity="0"/>
</linearGradient>
<linearGradient id="paint1_linear" x1="385" y1="0" x2="385" y2="4.00007" gradientUnits="userSpaceOnUse">
<stop offset="0.171875" stop-color="#FF0110"/>
<stop offset="0.854167" stop-color="#A5000A"/>
</linearGradient>
<linearGradient id="paint2_linear" x1="1425.09" y1="26.0545" x2="1421.75" y2="55.6095" gradientUnits="userSpaceOnUse">
<stop offset="0.223958" stop-color="#C40000" stop-opacity="0.8"/>
<stop offset="0.817708" stop-color="#FF0110" stop-opacity="0"/>
</linearGradient>
<linearGradient id="paint3_linear" x1="202" y1="-1.90735e-06" x2="202" y2="50" gradientUnits="userSpaceOnUse">
<stop offset="0.171875" stop-color="#FF0110"/>
<stop offset="0.854167" stop-color="#A5000A"/>
</linearGradient>
<linearGradient id="paint4_linear" x1="202" y1="5" x2="202" y2="45" gradientUnits="userSpaceOnUse">
<stop offset="0.171875" stop-color="#FF0110"/>
<stop offset="0.854167" stop-color="#A5000A"/>
</linearGradient>
<linearGradient id="paint5_linear" x1="472" y1="-1.90735e-06" x2="472" y2="50" gradientUnits="userSpaceOnUse">
<stop offset="0.171875" stop-color="#FF0110"/>
<stop offset="0.854167" stop-color="#A5000A"/>
</linearGradient>
<linearGradient id="paint6_linear" x1="472" y1="5" x2="472" y2="45" gradientUnits="userSpaceOnUse">
<stop offset="0.171875" stop-color="#FF0110"/>
<stop offset="0.854167" stop-color="#A5000A"/>
</linearGradient>
<linearGradient id="paint7_linear" x1="742" y1="-1.90735e-06" x2="742" y2="50" gradientUnits="userSpaceOnUse">
<stop offset="0.171875" stop-color="#FF0110"/>
<stop offset="0.854167" stop-color="#A5000A"/>
</linearGradient>
<linearGradient id="paint8_linear" x1="742" y1="5" x2="742" y2="45" gradientUnits="userSpaceOnUse">
<stop offset="0.171875" stop-color="#FF0110"/>
<stop offset="0.854167" stop-color="#A5000A"/>
</linearGradient>
<linearGradient id="paint9_linear" x1="1012" y1="-1.90735e-06" x2="1012" y2="50" gradientUnits="userSpaceOnUse">
<stop offset="0.171875" stop-color="#FF0110"/>
<stop offset="0.854167" stop-color="#A5000A"/>
</linearGradient>
<linearGradient id="paint10_linear" x1="1012" y1="5" x2="1012" y2="45" gradientUnits="userSpaceOnUse">
<stop offset="0.171875" stop-color="#FF0110"/>
<stop offset="0.854167" stop-color="#A5000A"/>
</linearGradient>
</defs>
</svg>
