<?xml version="1.0" encoding="UTF-8"?>
<svg width="156px" height="40px" viewBox="0 0 156 40" version="1.1" xmlns="http://www.w3.org/2000/svg" xmlns:xlink="http://www.w3.org/1999/xlink">
    <!-- Generator: sketchtool 61.2 (101010) - https://sketch.com -->
    <title>C68A4BB0-243A-472C-BA4A-D754F37E0478</title>
    <desc>Created with sketchtool.</desc>
    <defs>
        <linearGradient x1="116.72854%" y1="0%" x2="13.135055%" y2="100%" id="linearGradient-1">
            <stop stop-color="#F86B61" offset="0%"></stop>
            <stop stop-color="#EE3932" offset="100%"></stop>
        </linearGradient>
        <linearGradient x1="-7.02587861%" y1="88.290079%" x2="86.9945777%" y2="0%" id="linearGradient-2">
            <stop stop-color="#80EC68" offset="0%"></stop>
            <stop stop-color="#37D592" offset="100%"></stop>
        </linearGradient>
    </defs>
    <g id="web---visual" stroke="none" stroke-width="1" fill="none" fill-rule="evenodd">
        <g id="FAQ" transform="translate(-72.000000, -24.000000)">
            <g id="Group-18">
                <g id="logo" transform="translate(72.000000, 25.000000)">
                    <g id="Group-14">
                        <g id="Group-5-Copy-2" transform="translate(0.000000, 3.000000)">
                            <path d="M15.1775148,8.99408284 L11.09,26.5320828 L22.782464,26.5325444 L20.6863905,35.5266272 L7.10542736e-15,35.5266272 L6.18343195,8.99408284 L15.1775148,8.99408284 Z" id="Combined-Shape" fill="url(#linearGradient-1)"></path>
                            <path d="M38,2.30926389e-14 L31.816568,26.5325444 L22.8224852,26.5325444 L26.9095148,8.994 L15.1775148,8.99408284 L17.2735882,2.30926389e-14 L38,2.30926389e-14 Z" id="Combined-Shape" fill="url(#linearGradient-2)"></path>
                        </g>
                        <circle id="Oval" stroke="#000000" fill="#DB5143" cx="37" cy="3" r="3"></circle>
                    </g>
                    <g id="Group-2" transform="translate(46.000000, 7.000000)" fill="#FFFFFF" fill-rule="nonzero">
                        <path d="M9.44415708,16.1082749 L9.89296494,13.6398317 L3.47501262,13.6398317 L5.80881346,0.4 L3.2281683,0.4 L0.468,16.1082749 L9.44415708,16.1082749 Z M16.6874172,16.4 C18.8865757,16.4 20.5995256,15.6370266 21.8262671,14.1110799 L21.8262671,14.1110799 L20.0534761,12.7646564 C19.2755425,13.7071529 18.220844,14.1784011 16.8893807,14.1784011 C15.991765,14.1784011 15.2661923,13.9539972 14.7126626,13.5051893 C14.1591329,13.0563815 13.874888,12.39813 13.8599277,11.5304348 L13.8599277,11.5304348 L22.791204,11.5304348 C22.8360848,11.3957924 22.9258463,11.0591865 23.0604887,10.5206171 C23.3746542,8.87498831 23.0642288,7.47620383 22.1292124,6.32426367 C21.194196,5.17232352 19.8889132,4.59635344 18.2133639,4.59635344 C16.5527748,4.59635344 15.0941493,5.1311828 13.8374873,6.20084151 C12.5808253,7.27050023 11.8103718,8.62814399 11.5261269,10.2737728 C11.2418819,11.9942029 11.5784878,13.4453483 12.5359445,14.627209 C13.4934013,15.8090697 14.8772255,16.4 16.6874172,16.4 Z M20.7715686,9.53323983 L14.1965336,9.53323983 C14.5256593,8.68050491 15.0305682,8.01103319 15.7112601,7.52482468 C16.391952,7.03861618 17.1736257,6.79551192 18.0562811,6.79551192 C18.8790955,6.79551192 19.5410871,7.01991585 20.0422559,7.4687237 C20.5434247,7.91753156 20.7865289,8.6057036 20.7715686,9.53323983 L20.7715686,9.53323983 Z M26.9264697,15.6033661 C27.6969232,16.1643759 28.9722855,16.3326788 30.7525566,16.1082749 L30.7525566,16.1082749 L31.1340433,13.9315568 C30.5356329,13.9614773 30.030724,13.9689575 29.6193168,13.9539972 C29.2079096,13.9390369 28.9124444,13.826835 28.7329213,13.6173913 C28.5533982,13.4079476 28.5010372,13.0713417 28.5758386,12.6075736 L28.5758386,12.6075736 L29.518335,7.22187938 L32.3009437,7.22187938 L32.7273112,4.88807854 L29.9222621,4.88807854 L30.4832719,1.74642356 L27.9475076,2.46451613 L27.5211401,4.88807854 L25.456624,4.88807854 L25.0302565,7.22187938 L27.0947726,7.22187938 L26.1522761,12.6075736 C25.8979517,14.0437588 26.1560162,15.0423562 26.9264697,15.6033661 Z M37.4123665,16.4 C38.639108,16.4 39.6751061,16.1269752 40.5203609,15.5809257 C41.3656157,15.0348761 41.8780047,14.2457223 42.0575278,13.2134642 C42.1921702,12.4056101 42.0949285,11.7398784 41.7658027,11.2162693 C41.436677,10.6926601 40.9916092,10.3186536 40.4305993,10.0942496 C39.8695895,9.86984572 39.3010996,9.67910238 38.7251295,9.52201964 C38.1491594,9.36493689 37.670431,9.16671342 37.2889444,8.92734923 C36.9074577,8.68798504 36.754115,8.37381954 36.8289163,7.98485273 C36.9037176,7.58092567 37.1206414,7.27798036 37.4796877,7.07601683 C37.838734,6.8740533 38.2426611,6.77307153 38.6914689,6.77307153 C39.7536475,6.77307153 40.4193791,7.19195886 40.6886639,8.02973352 L40.6886639,8.02973352 L42.865382,6.93015428 C42.5212959,6.19710145 42.0014268,5.62487144 41.3057747,5.21346424 C40.6101225,4.80205704 39.783568,4.59635344 38.8261113,4.59635344 C37.7340122,4.59635344 36.7690753,4.88433848 35.9313006,5.46030856 C35.0935259,6.03627863 34.584877,6.81047218 34.4053539,7.7828892 C34.2707115,8.57578308 34.3679532,9.23029453 34.697079,9.74642356 C35.0262048,10.2625526 35.4712726,10.6365591 36.0322824,10.8684432 C36.5932922,11.1003273 37.1580421,11.3022908 37.726532,11.4743338 C38.295022,11.6463768 38.7700103,11.8483403 39.151497,12.0802244 C39.5329836,12.3121085 39.6938065,12.6150538 39.6339654,12.9890603 C39.499323,13.7819542 38.8261113,14.1784011 37.6143301,14.1784011 C36.9710388,14.1784011 36.4399495,14.0325386 36.0210622,13.7408135 C35.6021748,13.4490884 35.32541,13.0563815 35.1907676,12.5626928 L35.1907676,12.5626928 L33.0140496,13.6847125 C33.7022216,15.4949042 35.1683273,16.4 37.4123665,16.4 Z M45.5981231,16.3775596 C46.106772,16.3775596 46.5443597,16.2204769 46.9108861,15.9063114 C47.2774125,15.5921459 47.5055565,15.1956989 47.5953181,14.7169705 C47.6701194,14.2532024 47.5728777,13.8530154 47.303593,13.5164095 C47.0343082,13.1798036 46.6677818,13.0115007 46.2040137,13.0115007 C45.7103251,13.0115007 45.2764775,13.1685835 44.9024709,13.4827489 C44.5284644,13.7969144 44.3040605,14.1858813 44.2292592,14.6496494 C44.1544578,15.1283777 44.2479595,15.5360449 44.5097641,15.8726508 C44.7715686,16.2092567 45.134355,16.3775596 45.5981231,16.3775596 Z M54.2551279,16.1082749 L56.5889288,2.8684432 L61.0096861,2.8684432 L61.4360536,0.4 L49.9914533,0.4 L49.5650859,2.8684432 L54.0082836,2.8684432 L51.6744828,16.1082749 L54.2551279,16.1082749 Z M62.0145171,16.1082749 L63.0692155,10.1615708 C63.2337784,9.44347826 63.5442038,8.85254792 64.0004918,8.3887798 C64.4567798,7.92501169 64.9392482,7.61832632 65.4478971,7.4687237 C65.956546,7.31912108 66.4801552,7.26676017 67.0187246,7.31164095 L67.0187246,7.31164095 L67.4899729,4.68611501 C65.8593043,4.64123422 64.5951622,5.26956522 63.6975465,6.57110799 L63.6975465,6.57110799 L63.9892716,4.88807854 L61.5657092,4.88807854 L59.5909547,16.1082749 L62.0145171,16.1082749 Z M72.5340745,16.4 C74.2245841,16.4 75.593448,15.8614306 76.6406664,14.7842917 L76.6406664,14.7842917 L76.4162624,16.1082749 L78.8398248,16.1082749 L80.8145794,4.88807854 L78.391017,4.88807854 L78.0768515,6.70575035 C77.2989179,5.29948574 76.0347758,4.59635344 74.2844251,4.59635344 C72.7135976,4.59635344 71.3335135,5.1199626 70.1441727,6.16718093 C68.9548319,7.21439925 68.2105588,8.57578308 67.9113536,10.2513324 C67.6121484,11.8820009 67.9001334,13.314446 68.7753087,14.5486676 C69.650484,15.7828892 70.903406,16.4 72.5340745,16.4 Z M73.2521671,14.0886396 C72.2348693,14.0886396 71.4494555,13.7408135 70.8959258,13.0451613 C70.3423961,12.3495091 70.1553929,11.4780739 70.334916,10.4308555 C70.5293994,9.33875643 71.0156079,8.47854137 71.7935415,7.85021038 C72.5714751,7.22187938 73.4466505,6.90771388 74.4190675,6.90771388 C75.3765242,6.90771388 76.1469777,7.20691912 76.7304279,7.80532959 C77.3138781,8.40374007 77.5532423,9.21907433 77.4485205,10.2513324 L77.4485205,10.2513324 L77.3363185,10.9021038 C77.0969543,11.8446003 76.5957856,12.6113137 75.8328122,13.202244 C75.0698389,13.7931744 74.2096238,14.0886396 73.2521671,14.0886396 Z M87.3173065,16.4 C89.0227764,16.4 90.4066006,15.8539504 91.4687792,14.7618513 L91.4687792,14.7618513 L91.2219349,16.1082749 L93.6454973,16.1082749 L96.4056656,0.4 L93.9821032,0.4 L92.8600835,6.72819074 C92.0971102,5.30696587 90.8329681,4.59635344 89.0676572,4.59635344 C87.4968297,4.59635344 86.1167455,5.1199626 84.9274047,6.16718093 C83.7380639,7.21439925 82.9937909,8.57578308 82.6945856,10.2513324 C82.3953804,11.8820009 82.6833654,13.314446 83.5585408,14.5486676 C84.4337161,15.7828892 85.686638,16.4 87.3173065,16.4 Z M88.0578395,14.0886396 C87.0405417,14.0886396 86.2513879,13.7408135 85.6903781,13.0451613 C85.1293682,12.3495091 84.9386249,11.4780739 85.118148,10.4308555 C85.3126314,9.33875643 85.80258,8.47854137 86.5879938,7.85021038 C87.3734075,7.22187938 88.2523229,6.90771388 89.2247399,6.90771388 C90.1821967,6.90771388 90.9526501,7.20317906 91.5361004,7.7941094 C92.1195506,8.38503974 92.3589148,9.19663394 92.2541929,10.228892 L92.2541929,10.228892 L92.141991,10.8796634 C91.9026268,11.8371201 91.401458,12.6113137 90.6384847,13.202244 C89.8755113,13.7931744 89.0152962,14.0886396 88.0578395,14.0886396 Z M102.661548,16.4 C104.860707,16.4 106.573657,15.6370266 107.800398,14.1110799 L107.800398,14.1110799 L106.027607,12.7646564 C105.249674,13.7071529 104.194975,14.1784011 102.863512,14.1784011 C101.965896,14.1784011 101.240324,13.9539972 100.686794,13.5051893 C100.133264,13.0563815 99.8490192,12.39813 99.8340589,11.5304348 L99.8340589,11.5304348 L108.765335,11.5304348 C108.810216,11.3957924 108.899978,11.0591865 109.03462,10.5206171 C109.348785,8.87498831 109.03836,7.47620383 108.103344,6.32426367 C107.168327,5.17232352 105.863044,4.59635344 104.187495,4.59635344 C102.526906,4.59635344 101.068281,5.1311828 99.8116185,6.20084151 C98.5549565,7.27050023 97.784503,8.62814399 97.5002581,10.2737728 C97.2160131,11.9942029 97.552619,13.4453483 98.5100757,14.627209 C99.4675325,15.8090697 100.851357,16.4 102.661548,16.4 Z M106.7457,9.53323983 L100.170665,9.53323983 C100.499791,8.68050491 101.004699,8.01103319 101.685391,7.52482468 C102.366083,7.03861618 103.147757,6.79551192 104.030412,6.79551192 C104.853227,6.79551192 105.515218,7.01991585 106.016387,7.4687237 C106.517556,7.91753156 106.76066,8.6057036 106.7457,9.53323983 L106.7457,9.53323983 Z" id="Lets.Trade"></path>
                        <path d="M2.53453039,28 C2.98112339,28 3.39203499,27.8918048 3.76726519,27.6754144 C4.1424954,27.4590239 4.42909761,27.1689687 4.62707182,26.8052486 L4.62707182,26.8052486 L4.19889503,26.5635359 C4.04696133,26.8581952 3.8213628,27.0930018 3.52209945,27.2679558 C3.2228361,27.4429098 2.89364641,27.5303867 2.53453039,27.5303867 C1.93139963,27.5303867 1.43876611,27.3347145 1.05662983,26.9433702 C0.674493554,26.5520258 0.483425414,26.0709024 0.483425414,25.5 C0.483425414,24.9290976 0.674493554,24.4479742 1.05662983,24.0566298 C1.43876611,23.6652855 1.93139963,23.4696133 2.53453039,23.4696133 C2.89364641,23.4696133 3.2228361,23.5570902 3.52209945,23.7320442 C3.8213628,23.9069982 4.04696133,24.1418048 4.19889503,24.4364641 L4.19889503,24.4364641 L4.62707182,24.1878453 C4.42449355,23.8241252 4.13674033,23.535221 3.76381215,23.3211326 C3.39088398,23.1070442 2.98112339,23 2.53453039,23 C1.80248619,23 1.19705341,23.2417127 0.718232044,23.7251381 C0.239410681,24.2085635 -1.42108547e-14,24.8001842 -1.42108547e-14,25.5 C-1.42108547e-14,26.1998158 0.239410681,26.7914365 0.718232044,27.2748619 C1.19705341,27.7582873 1.80248619,28 2.53453039,28 Z M6.01979742,27.9171271 L6.01979742,25.9834254 L7.37338858,25.9834254 L8.50598527,27.9171271 L9.05847145,27.9171271 L7.87753223,25.9212707 C8.18139963,25.8337937 8.43116943,25.6622928 8.62684162,25.406768 C8.82251381,25.1512431 8.92034991,24.8600368 8.92034991,24.5331492 C8.92034991,24.1325967 8.77877532,23.7907459 8.49562615,23.5075967 C8.21247698,23.2244475 7.87062615,23.0828729 7.47007366,23.0828729 L7.47007366,23.0828729 L5.53637201,23.0828729 L5.53637201,27.9171271 L6.01979742,27.9171271 Z M7.47007366,25.5276243 L6.01979742,25.5276243 L6.01979742,23.538674 L7.47007366,23.538674 C7.73710866,23.538674 7.96500921,23.6353591 8.15377532,23.8287293 C8.34254144,24.0220994 8.43692449,24.2569061 8.43692449,24.5331492 C8.43692449,24.8047882 8.34254144,25.0384438 8.15377532,25.234116 C7.96500921,25.4297882 7.73710866,25.5276243 7.47007366,25.5276243 L7.47007366,25.5276243 Z M11.4663904,27.9171271 L11.4663904,25.9350829 L13.213628,23.0828729 L12.6680479,23.0828729 L11.2315838,25.4516575 L9.78821363,23.0828729 L9.24263352,23.0828729 L10.982965,25.9212707 L10.982965,27.9171271 L11.4663904,27.9171271 Z M14.4337017,27.9171271 L14.4337017,26.121547 L15.6767956,26.121547 C16.1095764,26.121547 16.4709945,25.9765193 16.7610497,25.6864641 C17.051105,25.3964088 17.1961326,25.0349908 17.1961326,24.6022099 C17.1961326,24.1694291 17.051105,23.808011 16.7610497,23.5179558 C16.4709945,23.2279006 16.1095764,23.0828729 15.6767956,23.0828729 L15.6767956,23.0828729 L13.9502762,23.0828729 L13.9502762,27.9171271 L14.4337017,27.9171271 Z M15.6767956,25.6657459 L14.4337017,25.6657459 L14.4337017,23.538674 L15.6767956,23.538674 C15.9760589,23.538674 16.2235267,23.6388122 16.4191989,23.8390884 C16.6148711,24.0393646 16.7127072,24.2937385 16.7127072,24.6022099 C16.7127072,24.9106814 16.6148711,25.1650552 16.4191989,25.3653315 C16.2235267,25.5656077 15.9760589,25.6657459 15.6767956,25.6657459 L15.6767956,25.6657459 Z M19.555709,27.9171271 L19.555709,23.538674 L21.0405157,23.538674 L21.0405157,23.0828729 L17.587477,23.0828729 L17.587477,23.538674 L19.0722836,23.538674 L19.0722836,27.9171271 L19.555709,27.9171271 Z M23.7937385,28 C24.4935543,28 25.085175,27.7582873 25.5686004,27.2748619 C26.0520258,26.7868324 26.2937385,26.1952118 26.2937385,25.5 C26.2937385,24.8047882 26.0520258,24.2143186 25.5686004,23.7285912 C25.085175,23.2428637 24.4935543,23 23.7937385,23 C23.0939227,23 22.502302,23.2428637 22.0188766,23.7285912 C21.5354512,24.2143186 21.2937385,24.8047882 21.2937385,25.5 C21.2937385,26.1952118 21.5354512,26.7856814 22.0188766,27.2714088 C22.502302,27.7571363 23.0939227,28 23.7937385,28 Z M23.7937385,27.5303867 C23.2228361,27.5303867 22.7440147,27.3347145 22.3572744,26.9433702 C21.9705341,26.5474217 21.7771639,26.0662983 21.7771639,25.5 C21.7771639,24.9337017 21.9705341,24.4537293 22.3572744,24.0600829 C22.7440147,23.6664365 23.2228361,23.4696133 23.7937385,23.4696133 C24.3646409,23.4696133 24.8434622,23.6664365 25.2302026,24.0600829 C25.6169429,24.4537293 25.8103131,24.9337017 25.8103131,25.5 C25.8103131,26.0662983 25.6169429,26.5462707 25.2302026,26.9399171 C24.8434622,27.3335635 24.3646409,27.5303867 23.7937385,27.5303867 Z M29.4958564,28 C29.9424494,28 30.353361,27.8918048 30.7285912,27.6754144 C31.1038214,27.4590239 31.3904236,27.1689687 31.5883978,26.8052486 L31.5883978,26.8052486 L31.160221,26.5635359 C31.0082873,26.8581952 30.7826888,27.0930018 30.4834254,27.2679558 C30.1841621,27.4429098 29.8549724,27.5303867 29.4958564,27.5303867 C28.8927256,27.5303867 28.4000921,27.3347145 28.0179558,26.9433702 C27.6358195,26.5520258 27.4447514,26.0709024 27.4447514,25.5 C27.4447514,24.9290976 27.6358195,24.4479742 28.0179558,24.0566298 C28.4000921,23.6652855 28.8927256,23.4696133 29.4958564,23.4696133 C29.8549724,23.4696133 30.1841621,23.5570902 30.4834254,23.7320442 C30.7826888,23.9069982 31.0082873,24.1418048 31.160221,24.4364641 L31.160221,24.4364641 L31.5883978,24.1878453 C31.3858195,23.8241252 31.0980663,23.535221 30.7251381,23.3211326 C30.3522099,23.1070442 29.9424494,23 29.4958564,23 C28.7638122,23 28.1583794,23.2417127 27.679558,23.7251381 C27.2007366,24.2085635 26.961326,24.8001842 26.961326,25.5 C26.961326,26.1998158 27.2007366,26.7914365 27.679558,27.2748619 C28.1583794,27.7582873 28.7638122,28 29.4958564,28 Z M34.2242173,28 C34.7582873,28 35.1910681,27.8434622 35.5225599,27.5303867 C35.8540516,27.2173112 36.0197974,26.7983425 36.0197974,26.2734807 L36.0197974,26.2734807 L36.0197974,23.0828729 L35.536372,23.0828729 L35.536372,26.2734807 C35.536372,26.660221 35.4212707,26.9663904 35.1910681,27.191989 C34.9608656,27.4175875 34.638582,27.5303867 34.2242173,27.5303867 C33.8098527,27.5303867 33.4875691,27.4175875 33.2573665,27.191989 C33.0271639,26.9663904 32.9120626,26.660221 32.9120626,26.2734807 L32.9120626,26.2734807 L32.9120626,23.0828729 L32.4286372,23.0828729 L32.4286372,26.2734807 C32.4286372,26.7983425 32.5943831,27.2173112 32.9258748,27.5303867 C33.2573665,27.8434622 33.6901473,28 34.2242173,28 Z M37.6542357,27.9171271 L37.6542357,25.9834254 L39.0078269,25.9834254 L40.1404236,27.9171271 L40.6929098,27.9171271 L39.5119705,25.9212707 C39.8158379,25.8337937 40.0656077,25.6622928 40.2612799,25.406768 C40.4569521,25.1512431 40.5547882,24.8600368 40.5547882,24.5331492 C40.5547882,24.1325967 40.4132136,23.7907459 40.1300645,23.5075967 C39.8469153,23.2244475 39.5050645,23.0828729 39.104512,23.0828729 L39.104512,23.0828729 L37.1708103,23.0828729 L37.1708103,27.9171271 L37.6542357,27.9171271 Z M39.104512,25.5276243 L37.6542357,25.5276243 L37.6542357,23.538674 L39.104512,23.538674 C39.371547,23.538674 39.5994475,23.6353591 39.7882136,23.8287293 C39.9769797,24.0220994 40.0713628,24.2569061 40.0713628,24.5331492 C40.0713628,24.8047882 39.9769797,25.0384438 39.7882136,25.234116 C39.5994475,25.4297882 39.371547,25.5276243 39.104512,25.5276243 L39.104512,25.5276243 Z M41.9820442,27.9171271 L41.9820442,25.9834254 L43.3356354,25.9834254 L44.468232,27.9171271 L45.0207182,27.9171271 L43.839779,25.9212707 C44.1436464,25.8337937 44.3934162,25.6622928 44.5890884,25.406768 C44.7847606,25.1512431 44.8825967,24.8600368 44.8825967,24.5331492 C44.8825967,24.1325967 44.7410221,23.7907459 44.4578729,23.5075967 C44.1747238,23.2244475 43.8328729,23.0828729 43.4323204,23.0828729 L43.4323204,23.0828729 L41.4986188,23.0828729 L41.4986188,27.9171271 L41.9820442,27.9171271 Z M43.4323204,25.5276243 L41.9820442,25.5276243 L41.9820442,23.538674 L43.4323204,23.538674 C43.6993554,23.538674 43.927256,23.6353591 44.1160221,23.8287293 C44.3047882,24.0220994 44.3991713,24.2569061 44.3991713,24.5331492 C44.3991713,24.8047882 44.3047882,25.0384438 44.1160221,25.234116 C43.927256,25.4297882 43.6993554,25.5276243 43.4323204,25.5276243 L43.4323204,25.5276243 Z M48.657919,27.9171271 L48.657919,27.461326 L46.3098527,27.461326 L46.3098527,25.7071823 L48.4507366,25.7071823 L48.4507366,25.2513812 L46.3098527,25.2513812 L46.3098527,23.538674 L48.6233886,23.538674 L48.6233886,23.0828729 L45.8264273,23.0828729 L45.8264273,27.9171271 L48.657919,27.9171271 Z M50.085175,27.9171271 L50.085175,23.980663 L52.7785451,27.9171271 L53.1929098,27.9171271 L53.1929098,23.0828729 L52.7094843,23.0828729 L52.7094843,27.019337 L50.0161142,23.0828729 L49.6017495,23.0828729 L49.6017495,27.9171271 L50.085175,27.9171271 Z M56.6712707,28 C57.1178637,28 57.5287753,27.8918048 57.9040055,27.6754144 C58.2792357,27.4590239 58.5658379,27.1689687 58.7638122,26.8052486 L58.7638122,26.8052486 L58.3356354,26.5635359 C58.1837017,26.8581952 57.9581031,27.0930018 57.6588398,27.2679558 C57.3595764,27.4429098 57.0303867,27.5303867 56.6712707,27.5303867 C56.06814,27.5303867 55.5755064,27.3347145 55.1933702,26.9433702 C54.8112339,26.5520258 54.6201657,26.0709024 54.6201657,25.5 C54.6201657,24.9290976 54.8112339,24.4479742 55.1933702,24.0566298 C55.5755064,23.6652855 56.06814,23.4696133 56.6712707,23.4696133 C57.0303867,23.4696133 57.3595764,23.5570902 57.6588398,23.7320442 C57.9581031,23.9069982 58.1837017,24.1418048 58.3356354,24.4364641 L58.3356354,24.4364641 L58.7638122,24.1878453 C58.5612339,23.8241252 58.2734807,23.535221 57.9005525,23.3211326 C57.5276243,23.1070442 57.1178637,23 56.6712707,23 C55.9392265,23 55.3337937,23.2417127 54.8549724,23.7251381 C54.376151,24.2085635 54.1367403,24.8001842 54.1367403,25.5 C54.1367403,26.1998158 54.376151,26.7914365 54.8549724,27.2748619 C55.3337937,27.7582873 55.9392265,28 56.6712707,28 Z M61.3098527,27.9171271 L61.3098527,25.9350829 L63.0570902,23.0828729 L62.5115101,23.0828729 L61.075046,25.4516575 L59.6316759,23.0828729 L59.0860958,23.0828729 L60.8264273,25.9212707 L60.8264273,27.9171271 L61.3098527,27.9171271 Z M67.1892265,27.9171271 L67.1892265,23.538674 L68.6740331,23.538674 L68.6740331,23.0828729 L65.2209945,23.0828729 L65.2209945,23.538674 L66.7058011,23.538674 L66.7058011,27.9171271 L67.1892265,27.9171271 Z M69.9631676,27.9171271 L69.9631676,25.9834254 L71.3167587,25.9834254 L72.4493554,27.9171271 L73.0018416,27.9171271 L71.8209024,25.9212707 C72.1247698,25.8337937 72.3745396,25.6622928 72.5702118,25.406768 C72.765884,25.1512431 72.8637201,24.8600368 72.8637201,24.5331492 C72.8637201,24.1325967 72.7221455,23.7907459 72.4389963,23.5075967 C72.1558471,23.2244475 71.8139963,23.0828729 71.4134438,23.0828729 L71.4134438,23.0828729 L69.4797422,23.0828729 L69.4797422,27.9171271 L69.9631676,27.9171271 Z M71.4134438,25.5276243 L69.9631676,25.5276243 L69.9631676,23.538674 L71.4134438,23.538674 C71.6804788,23.538674 71.9083794,23.6353591 72.0971455,23.8287293 C72.2859116,24.0220994 72.3802947,24.2569061 72.3802947,24.5331492 C72.3802947,24.8047882 72.2859116,25.0384438 72.0971455,25.234116 C71.9083794,25.4297882 71.6804788,25.5276243 71.4134438,25.5276243 L71.4134438,25.5276243 Z M73.835175,27.9171271 L74.28407,26.7292818 L76.5768877,26.7292818 L77.0257827,27.9171271 L77.5368324,27.9171271 L75.6790976,23.0828729 L75.18186,23.0828729 L73.3241252,27.9171271 L73.835175,27.9171271 Z M76.4042357,26.2734807 L74.4567219,26.2734807 L75.4304788,23.6837017 L76.4042357,26.2734807 Z M80.1381215,27.9171271 C80.7965009,27.9171271 81.34093,27.6834715 81.7714088,27.2161602 C82.2018877,26.748849 82.4171271,26.1767956 82.4171271,25.5 C82.4171271,24.8232044 82.2018877,24.251151 81.7714088,23.7838398 C81.34093,23.3165285 80.7965009,23.0828729 80.1381215,23.0828729 L80.1381215,23.0828729 L78.2734807,23.0828729 L78.2734807,27.9171271 L80.1381215,27.9171271 Z M80.1381215,27.461326 L78.7569061,27.461326 L78.7569061,23.538674 L80.1381215,23.538674 C80.6675875,23.538674 81.1015193,23.7274401 81.4399171,24.1049724 C81.7783149,24.4825046 81.9475138,24.9475138 81.9475138,25.5 C81.9475138,26.0524862 81.7783149,26.5174954 81.4399171,26.8950276 C81.1015193,27.2725599 80.6675875,27.461326 80.1381215,27.461326 L80.1381215,27.461326 Z M83.8443831,27.9171271 L83.8443831,23.0828729 L83.3609576,23.0828729 L83.3609576,27.9171271 L83.8443831,27.9171271 Z M85.5478821,27.9171271 L85.5478821,23.980663 L88.2412523,27.9171271 L88.6556169,27.9171271 L88.6556169,23.0828729 L88.1721915,23.0828729 L88.1721915,27.019337 L85.4788214,23.0828729 L85.0644567,23.0828729 L85.0644567,27.9171271 L85.5478821,27.9171271 Z M92.1339779,28 C92.8522099,28 93.4254144,27.7939687 93.8535912,27.3819061 C94.281768,26.9698435 94.4958564,26.4645488 94.4958564,25.8660221 L94.4958564,25.8660221 L94.4958564,25.6174033 L92.0787293,25.6174033 L92.0787293,26.0732044 L93.9986188,26.0732044 C93.9525783,26.4967772 93.7661142,26.8455341 93.4392265,27.1194751 C93.1123389,27.3934162 92.677256,27.5303867 92.1339779,27.5303867 C91.5308471,27.5303867 91.0382136,27.3347145 90.6560773,26.9433702 C90.2739411,26.5520258 90.0828729,26.0709024 90.0828729,25.5 C90.0828729,24.9290976 90.2739411,24.4479742 90.6560773,24.0566298 C91.0382136,23.6652855 91.5308471,23.4696133 92.1339779,23.4696133 C92.4930939,23.4696133 92.8222836,23.5570902 93.121547,23.7320442 C93.4208103,23.9069982 93.6464088,24.1418048 93.7983425,24.4364641 L93.7983425,24.4364641 L94.2265193,24.1878453 C94.0239411,23.8287293 93.7361878,23.5409761 93.3632597,23.3245856 C92.9903315,23.1081952 92.5805709,23 92.1339779,23 C91.4019337,23 90.7965009,23.2417127 90.3176796,23.7251381 C89.8388582,24.2085635 89.5994475,24.8001842 89.5994475,25.5 C89.5994475,26.1998158 89.8388582,26.7914365 90.3176796,27.2748619 C90.7965009,27.7582873 91.4019337,28 92.1339779,28 Z M99.5395948,28 C99.9861878,28 100.397099,27.8918048 100.77233,27.6754144 C101.14756,27.4590239 101.434162,27.1689687 101.632136,26.8052486 L101.632136,26.8052486 L101.203959,26.5635359 C101.052026,26.8581952 100.826427,27.0930018 100.527164,27.2679558 C100.227901,27.4429098 99.8987109,27.5303867 99.5395948,27.5303867 C98.9364641,27.5303867 98.4438306,27.3347145 98.0616943,26.9433702 C97.679558,26.5520258 97.4884899,26.0709024 97.4884899,25.5 C97.4884899,24.9290976 97.679558,24.4479742 98.0616943,24.0566298 C98.4438306,23.6652855 98.9364641,23.4696133 99.5395948,23.4696133 C99.8987109,23.4696133 100.227901,23.5570902 100.527164,23.7320442 C100.826427,23.9069982 101.052026,24.1418048 101.203959,24.4364641 L101.203959,24.4364641 L101.632136,24.1878453 C101.429558,23.8241252 101.141805,23.535221 100.768877,23.3211326 C100.395948,23.1070442 99.9861878,23 99.5395948,23 C98.8075506,23 98.2021179,23.2417127 97.7232965,23.7251381 C97.2444751,24.2085635 97.0050645,24.8001842 97.0050645,25.5 C97.0050645,26.1998158 97.2444751,26.7914365 97.7232965,27.2748619 C98.2021179,27.7582873 98.8075506,28 99.5395948,28 Z M104.765193,28 C105.465009,28 106.05663,27.7582873 106.540055,27.2748619 C107.023481,26.7868324 107.265193,26.1952118 107.265193,25.5 C107.265193,24.8047882 107.023481,24.2143186 106.540055,23.7285912 C106.05663,23.2428637 105.465009,23 104.765193,23 C104.065378,23 103.473757,23.2428637 102.990331,23.7285912 C102.506906,24.2143186 102.265193,24.8047882 102.265193,25.5 C102.265193,26.1952118 102.506906,26.7856814 102.990331,27.2714088 C103.473757,27.7571363 104.065378,28 104.765193,28 Z M104.765193,27.5303867 C104.194291,27.5303867 103.71547,27.3347145 103.328729,26.9433702 C102.941989,26.5474217 102.748619,26.0662983 102.748619,25.5 C102.748619,24.9337017 102.941989,24.4537293 103.328729,24.0600829 C103.71547,23.6664365 104.194291,23.4696133 104.765193,23.4696133 C105.336096,23.4696133 105.814917,23.6664365 106.201657,24.0600829 C106.588398,24.4537293 106.781768,24.9337017 106.781768,25.5 C106.781768,26.0662983 106.588398,26.5462707 106.201657,26.9399171 C105.814917,27.3335635 105.336096,27.5303867 104.765193,27.5303867 Z" id="CRYPTOCURRENCYTRADINGCO"></path>
                    </g>
                </g>
            </g>
        </g>
    </g>
</svg>