<svg xmlns="http://www.w3.org/2000/svg" width="155" height="39" viewBox="0 0 155 39">
    <defs>
        <linearGradient id="prefix__a" x1="116.729%" x2="13.135%" y1="0%" y2="100%">
            <stop offset="0%" stop-color="#F86B61"/>
            <stop offset="100%" stop-color="#EE3932"/>
        </linearGradient>
        <linearGradient id="prefix__b" x1="-2.461%" x2="84.033%" y1="88.29%" y2="0%">
            <stop offset="0%" stop-color="#80EC68"/>
            <stop offset="100%" stop-color="#37D592"/>
        </linearGradient>
    </defs>
    <g fill="none" fill-rule="evenodd">
        <path fill="url(#prefix__a)" d="M15.178 11.994L11.09 29.532h11.692l-2.096 8.995H0l6.183-26.533h8.995z"/>
        <path fill="url(#prefix__b)" d="M33 3c0 2.21 1.79 4 4 4l.068-.002-5.251 22.535h-8.995l4.088-17.539H15.178L17.274 3H33z"/>
        <circle cx="37" cy="3" r="3" fill="#DB5143"/>
        <g fill="#FFF" fill-rule="nonzero">
            <path d="M8.976 15.708l.449-2.468H3.007L5.341 0H2.76L0 15.708h8.976zM16.22 16c2.2 0 3.913-.763 5.14-2.289l-1.774-1.346c-.777.942-1.832 1.413-3.164 1.413-.897 0-1.623-.224-2.176-.673-.554-.449-.838-1.107-.853-1.975h8.931c.045-.134.135-.47.27-1.01.314-1.645.003-3.044-.932-4.196-.935-1.152-2.24-1.728-3.916-1.728-1.66 0-3.119.535-4.376 1.605-1.256 1.07-2.027 2.427-2.31 4.073-.285 1.72.051 3.171 1.009 4.353C13.025 15.41 14.409 16 16.219 16zm4.085-6.867h-6.575c.329-.852.834-1.522 1.514-2.008.681-.486 1.463-.73 2.345-.73.823 0 1.485.225 1.986.674.501.449.745 1.137.73 2.064zm6.154 6.07c.77.561 2.046.73 3.827.505l.381-2.176c-.598.03-1.103.037-1.515.022-.411-.015-.707-.127-.886-.337-.18-.21-.232-.546-.157-1.01l.942-5.385h2.783l.426-2.334h-2.805l.561-3.142-2.535.719-.427 2.423H24.99l-.427 2.334h2.065l-.943 5.386c-.254 1.436.004 2.434.774 2.995zM36.944 16c1.227 0 2.263-.273 3.108-.82.846-.545 1.358-1.334 1.538-2.367.134-.807.037-1.473-.292-1.997-.33-.523-.774-.897-1.335-1.122-.561-.224-1.13-.415-1.706-.572-.576-.157-1.055-.355-1.436-.595-.382-.239-.535-.553-.46-.942.075-.404.292-.707.65-.909.36-.202.764-.303 1.212-.303 1.063 0 1.728.419 1.998 1.257l2.176-1.1c-.344-.733-.864-1.305-1.56-1.717-.695-.41-1.521-.617-2.479-.617-1.092 0-2.057.288-2.895.864-.837.576-1.346 1.35-1.526 2.323-.134.793-.037 1.447.292 1.963.33.517.774.89 1.335 1.122.561.232 1.126.434 1.695.606.568.172 1.043.374 1.424.606.382.232.543.535.483.91-.135.792-.808 1.188-2.02 1.188-.643 0-1.174-.145-1.593-.437-.419-.292-.696-.685-.83-1.178l-2.177 1.122C33.234 15.095 34.7 16 36.944 16zm8.186-.022c.509 0 .946-.158 1.313-.472.366-.314.595-.71.684-1.189.075-.464-.022-.864-.291-1.2-.27-.337-.636-.505-1.1-.505-.494 0-.928.157-1.302.47-.374.315-.598.704-.673 1.168-.075.478.019.886.28 1.223.263.336.625.505 1.09.505zm8.657-.27l2.334-13.24h4.42L60.969 0H49.523l-.426 2.468h4.443l-2.334 13.24h2.581zm7.76 0L62.6 9.762c.165-.719.475-1.31.931-1.773.457-.464.94-.77 1.448-.92.509-.15 1.032-.202 1.57-.157l.472-2.626c-1.63-.045-2.895.584-3.792 1.885l.291-1.683h-2.423l-1.975 11.22h2.424zm10.52.292c1.69 0 3.058-.539 4.106-1.616l-.225 1.324h2.424l1.975-11.22h-2.424l-.314 1.818c-.778-1.407-2.042-2.11-3.793-2.11-1.57 0-2.95.524-4.14 1.571-1.19 1.047-1.933 2.409-2.233 4.084-.299 1.631-.01 3.063.864 4.298.875 1.234 2.128 1.851 3.76 1.851zm.717-2.311c-1.017 0-1.803-.348-2.356-1.044-.554-.695-.74-1.567-.561-2.614.194-1.092.68-1.952 1.459-2.58.777-.63 1.653-.943 2.625-.943.958 0 1.728.299 2.311.897.584.599.823 1.414.719 2.446l-.113.651c-.239.943-.74 1.71-1.503 2.3-.763.591-1.623.887-2.58.887zM86.85 16c1.706 0 3.09-.546 4.152-1.638l-.247 1.346h2.423L95.937 0h-2.423l-1.122 6.328c-.763-1.421-2.027-2.132-3.792-2.132-1.571 0-2.951.524-4.14 1.571-1.19 1.047-1.934 2.409-2.233 4.084-.3 1.631-.012 3.063.864 4.298.875 1.234 2.128 1.851 3.758 1.851zm.74-2.311c-1.016 0-1.806-.348-2.367-1.044-.56-.695-.751-1.567-.572-2.614.195-1.092.685-1.952 1.47-2.58.785-.63 1.664-.943 2.637-.943.957 0 1.728.295 2.311.886.584.591.823 1.403.718 2.435l-.112.65c-.24.958-.74 1.732-1.504 2.323-.762.591-1.623.887-2.58.887zM102.195 16c2.199 0 3.912-.763 5.138-2.289l-1.772-1.346c-.778.942-1.833 1.413-3.164 1.413-.898 0-1.624-.224-2.177-.673-.554-.449-.838-1.107-.853-1.975h8.931c.045-.134.135-.47.27-1.01.314-1.645.003-3.044-.932-4.196-.935-1.152-2.24-1.728-3.916-1.728-1.66 0-3.119.535-4.375 1.605-1.257 1.07-2.027 2.427-2.312 4.073-.284 1.72.053 3.171 1.01 4.353C99 15.41 100.383 16 102.194 16zm4.084-6.867h-6.575c.329-.852.834-1.522 1.514-2.008.681-.486 1.463-.73 2.345-.73.823 0 1.485.225 1.986.674.502.449.745 1.137.73 2.064z" transform="translate(46 11)"/>
        </g>
    </g>
</svg>
