<svg width="200" height="50" viewBox="0 0 200 50" fill="none" xmlns="http://www.w3.org/2000/svg">
<path fill-rule="evenodd" clip-rule="evenodd" d="M19.6238 15.5659H7.99486L2.71012 38.3274L0 50H11.6289L26.7464 49.9999L29.4566 38.3274H14.339L19.6238 15.5659Z" fill="url(#paint0_linear)"/>
<path fill-rule="evenodd" clip-rule="evenodd" d="M42.6673 3.89355H37.5032H22.3339L19.6238 15.5661H34.7931L29.5083 38.3276H41.1372L47.927 9.08397C47.8978 9.08446 47.8685 9.0847 47.8391 9.0847C44.9828 9.0847 42.6674 6.76055 42.6673 3.89355Z" fill="url(#paint1_linear)"/>
<ellipse cx="47.8392" cy="3.89341" rx="3.87885" ry="3.89341" fill="url(#paint2_linear)"/>
<path fill-rule="evenodd" clip-rule="evenodd" d="M71.6617 32.7564L71.0814 35.96H59.4757L63.0445 15.5737H66.3811L63.3636 32.7564H71.6617ZM87.0909 33.3681C85.5048 35.3485 83.29 36.3387 80.4466 36.3387C78.1061 36.3387 76.3169 35.5718 75.079 34.038C73.841 32.5042 73.4058 30.6209 73.7733 28.3881C74.1408 26.2524 75.137 24.4904 76.7618 23.1022C78.3866 21.714 80.2725 21.0199 82.4196 21.0199C84.586 21.0199 86.2736 21.7674 87.4826 23.2624C88.6915 24.7574 89.0929 26.5727 88.6867 28.7084C88.5126 29.4074 88.3965 29.8442 88.3385 30.019H76.7908C76.8101 31.1451 77.1777 31.9994 77.8933 32.5818C78.609 33.1643 79.5472 33.4555 80.7077 33.4555C82.4292 33.4555 83.7929 32.8439 84.7987 31.6208L87.0909 33.3681ZM85.7271 27.4269H77.2259C77.6515 26.3203 78.3043 25.4514 79.1844 24.8204C80.0645 24.1894 81.0752 23.8739 82.2164 23.8739C83.2802 23.8739 84.1362 24.1651 84.7841 24.7476C85.4321 25.3301 85.7465 26.2232 85.7271 27.4269ZM98.632 35.96C96.3302 36.2513 94.6813 36.0328 93.6851 35.3048C92.689 34.5767 92.3553 33.2807 92.6841 31.4168L93.9027 24.4272H91.2334L91.7847 21.3984H94.454L95.0053 18.2531L98.2839 17.3212L97.5585 21.3984H101.185L100.634 24.4272H97.0363L95.8177 31.4168C95.7209 32.0187 95.7886 32.4555 96.0208 32.7274C96.2529 32.9992 96.6349 33.1448 97.1668 33.1642C97.6988 33.1836 98.3516 33.1739 99.1253 33.1351L98.632 35.96ZM107.243 36.3387C108.829 36.3387 110.168 35.9844 111.261 35.2757C112.354 34.5671 113.017 33.5429 113.249 32.2032C113.423 31.1548 113.297 30.2908 112.872 29.6112C112.446 28.9317 111.871 28.4463 111.145 28.1551C110.42 27.8639 109.685 27.6163 108.94 27.4124C108.195 27.2086 107.576 26.9513 107.083 26.6407C106.59 26.33 106.392 25.9223 106.488 25.4175C106.585 24.8933 106.866 24.5001 107.33 24.238C107.794 23.9759 108.316 23.8449 108.897 23.8449C110.27 23.8449 111.131 24.3885 111.479 25.4758L114.293 24.0487C113.848 23.0974 113.176 22.3547 112.277 21.8208C111.377 21.2869 110.309 21.0199 109.071 21.0199C107.659 21.0199 106.411 21.3936 105.328 22.1411C104.245 22.8886 103.587 23.8934 103.355 25.1554C103.181 26.1844 103.307 27.0338 103.732 27.7037C104.158 28.3735 104.733 28.8589 105.458 29.1598C106.184 29.4608 106.914 29.7229 107.649 29.9462C108.384 30.1694 108.998 30.4316 109.491 30.7325C109.985 31.0334 110.193 31.4266 110.115 31.912C109.941 32.941 109.071 33.4555 107.504 33.4555C106.672 33.4555 105.986 33.2662 105.444 32.8876C104.902 32.509 104.544 31.9994 104.37 31.3586L101.556 32.8148C102.446 35.1641 104.341 36.3387 107.243 36.3387ZM119.524 35.6978C119.05 36.1055 118.484 36.3094 117.827 36.3094C117.227 36.3094 116.758 36.091 116.419 35.6541C116.081 35.2173 115.96 34.6882 116.057 34.0669C116.153 33.465 116.444 32.9602 116.927 32.5525C117.411 32.1448 117.972 31.9409 118.61 31.9409C119.21 31.9409 119.684 32.1593 120.032 32.5962C120.38 33.033 120.506 33.5524 120.409 34.1543C120.293 34.7756 119.998 35.2901 119.524 35.6978ZM129.02 35.96L132.037 18.7773H137.753L138.304 15.5737H123.507L122.956 18.7773H128.7L125.683 35.96H129.02ZM140.416 28.2423L139.052 35.9599H135.919L138.472 21.3983H141.605L141.228 23.5826C142.389 21.8934 144.023 21.078 146.132 21.1362L145.522 24.5436C144.826 24.4854 144.149 24.5533 143.491 24.7475C142.834 24.9416 142.21 25.3397 141.62 25.9415C141.03 26.5434 140.629 27.3103 140.416 28.2423ZM152.653 36.3387C154.839 36.3387 156.609 35.6398 157.963 34.2418L157.673 35.9601H160.806L163.36 21.3985H160.226L159.82 23.7575C158.814 21.9324 157.18 21.0199 154.916 21.0199C152.885 21.0199 151.101 21.6994 149.563 23.0585C148.026 24.4176 147.063 26.1844 146.676 28.359C146.29 30.4752 146.662 32.3343 147.793 33.936C148.925 35.5378 150.545 36.3387 152.653 36.3387ZM150.535 31.9847C151.251 32.8876 152.267 33.339 153.582 33.339C154.82 33.339 155.932 32.9555 156.919 32.1886C157.905 31.4217 158.553 30.4266 158.863 29.2035L159.008 28.3589C159.143 27.0192 158.834 25.9611 158.079 25.1845C157.325 24.4078 156.329 24.0195 155.091 24.0195C153.833 24.0195 152.702 24.4273 151.696 25.2427C150.69 26.0582 150.062 27.1745 149.81 28.5919C149.578 29.951 149.82 31.0819 150.535 31.9847ZM171.767 36.3386C173.972 36.3386 175.762 35.6299 177.135 34.2126L176.816 35.96H179.949L183.518 15.5737H180.385L178.934 23.7865C177.947 21.942 176.313 21.0198 174.03 21.0198C171.999 21.0198 170.215 21.6993 168.677 23.0584C167.14 24.4175 166.177 26.1843 165.79 28.3588C165.404 30.4751 165.776 32.3341 166.907 33.9359C168.039 35.5377 169.659 36.3386 171.767 36.3386ZM169.664 31.9847C170.389 32.8876 171.41 33.339 172.725 33.339C173.963 33.339 175.075 32.9555 176.061 32.1886C177.048 31.4217 177.696 30.4169 178.005 29.1743L178.15 28.3298C178.286 26.9901 177.976 25.9368 177.222 25.1699C176.468 24.403 175.472 24.0195 174.234 24.0195C172.976 24.0195 171.84 24.4273 170.824 25.2427C169.809 26.0582 169.175 27.1745 168.924 28.5919C168.692 29.951 168.938 31.0819 169.664 31.9847ZM191.607 36.3387C194.45 36.3387 196.665 35.3485 198.251 33.3681L195.959 31.6208C194.953 32.8439 193.589 33.4555 191.868 33.4555C190.707 33.4555 189.769 33.1643 189.053 32.5818C188.338 31.9994 187.97 31.1451 187.951 30.019H199.499C199.557 29.8442 199.673 29.4074 199.847 28.7084C200.253 26.5727 199.852 24.7574 198.643 23.2624C197.434 21.7674 195.746 21.0199 193.58 21.0199C191.433 21.0199 189.547 21.714 187.922 23.1022C186.297 24.4904 185.301 26.2524 184.933 28.3881C184.566 30.6209 185.001 32.5042 186.239 34.038C187.477 35.5718 189.266 36.3387 191.607 36.3387ZM188.386 27.4269H196.887C196.907 26.2232 196.592 25.3301 195.944 24.7476C195.296 24.1651 194.44 23.8739 193.377 23.8739C192.235 23.8739 191.225 24.1894 190.345 24.8204C189.464 25.4514 188.812 26.3203 188.386 27.4269Z" fill="white"/>
<defs>
<linearGradient id="paint0_linear" x1="14.7283" y1="15.5659" x2="14.7283" y2="50" gradientUnits="userSpaceOnUse">
<stop offset="0.171875" stop-color="#FF0110"/>
<stop offset="0.854167" stop-color="#A5000A"/>
</linearGradient>
<linearGradient id="paint1_linear" x1="33.7754" y1="3.89355" x2="33.7754" y2="38.3276" gradientUnits="userSpaceOnUse">
<stop offset="0.171875" stop-color="#75DF5F"/>
<stop offset="0.854167" stop-color="#00B545"/>
</linearGradient>
<linearGradient id="paint2_linear" x1="47.8392" y1="0" x2="47.8392" y2="7.78682" gradientUnits="userSpaceOnUse">
<stop offset="0.171875" stop-color="#FF0110"/>
<stop offset="0.854167" stop-color="#A5000A"/>
</linearGradient>
</defs>
</svg>
