<svg width="504" height="593" viewBox="0 0 504 593" fill="none" xmlns="http://www.w3.org/2000/svg">
<path d="M504 -49.7279C493.778 -62.2292 482.997 -73.1478 471.772 -82.3685C453.654 -97.2104 433.574 -102.268 413.922 -96.9395C399.329 -92.7661 385.115 -84.996 371.673 -73.8433C360.738 -65.0123 350.399 -54.1094 339.949 -43.784C329.334 -32.8676 318.388 -23.0587 307.161 -14.4043C293.384 -3.9408 278.497 0.793636 263.587 -0.546478C253.589 -1.50978 243.687 -4.59904 234.084 -9.7511C219.027 -18.1228 203.493 -23.3307 187.785 -25.2732C175.856 -26.558 163.892 -26.3991 151.974 -24.7976C135.427 -22.5053 119.062 -17.0058 103.157 -8.39242C83.7244 1.59385 65.3187 17.2884 48.6657 38.0718C34.6665 55.2665 22.8351 77.6805 13.9558 103.828C6.75656 125.307 2.21011 149.378 0.63171 174.374C-1.75693 213.705 2.81507 250.829 11.194 286.459C21.8495 331.972 36.9278 372.492 54.2641 410.363C65.1669 433.688 76.8393 455.783 89.2166 476.527C100.581 495.955 112.636 513.889 124.972 531.415C145.126 559.844 166.026 586.371 187.375 611.709C205.868 633.616 224.697 654.674 243.452 675.699C258.101 692.104 272.769 708.441 287.884 723.25C300.536 735.715 313.319 747.739 326.382 758.744C340.546 770.666 354.897 781.806 369.508 791.792C392.096 807.354 415.344 819.531 439.022 828.202C453.716 833.718 468.598 837.429 483.566 839.309C490.354 840.577 497.177 841.133 504 840.973V-49.7279Z" fill="url(#paint0_linear)" fill-opacity="0.2"/>
<defs>
<linearGradient id="paint0_linear" x1="252" y1="-99" x2="252" y2="841" gradientUnits="userSpaceOnUse">
<stop stop-color="#DE15C5"/>
<stop offset="0.697917" stop-color="#DE15C5" stop-opacity="0"/>
</linearGradient>
</defs>
</svg>
