<svg xmlns="http://www.w3.org/2000/svg" width="174" height="185" viewBox="0 0 174 185">
    <defs>
        <linearGradient id="prefix__a" x1="0%" x2="100%" y1="50%" y2="50%">
            <stop offset="0%" stop-color="#80EC68"/>
            <stop offset="100%" stop-color="#159E49"/>
        </linearGradient>
        <linearGradient id="prefix__b" x1="0%" x2="100%" y1="50%" y2="50%">
            <stop offset="0%" stop-color="#80EC68"/>
            <stop offset="100%" stop-color="#159E49"/>
        </linearGradient>
        <linearGradient id="prefix__c" x1="0%" x2="100%" y1="50%" y2="50%">
            <stop offset="0%" stop-color="#80EC68"/>
            <stop offset="100%" stop-color="#159E49"/>
        </linearGradient>
        <linearGradient id="prefix__d" x1="0%" x2="100%" y1="50%" y2="50%">
            <stop offset="0%" stop-color="#80EC68"/>
            <stop offset="100%" stop-color="#159E49"/>
        </linearGradient>
        <linearGradient id="prefix__e" x1="0%" x2="100%" y1="50%" y2="50%">
            <stop offset="0%" stop-color="#80EC68"/>
            <stop offset="100%" stop-color="#159E49"/>
        </linearGradient>
        <linearGradient id="prefix__f" x1="0%" x2="100%" y1="50%" y2="50%">
            <stop offset="0%" stop-color="#80EC68"/>
            <stop offset="100%" stop-color="#159E49"/>
        </linearGradient>
        <linearGradient id="prefix__g" x1="43.371%" x2="56.583%" y1="21.362%" y2="78.518%">
            <stop offset="1%" stop-color="#159E49"/>
            <stop offset="17%" stop-color="#1BA24B"/>
            <stop offset="38%" stop-color="#2BAE4F"/>
            <stop offset="62%" stop-color="#46C257"/>
            <stop offset="88%" stop-color="#6CDD62"/>
            <stop offset="100%" stop-color="#80EC68"/>
        </linearGradient>
        <linearGradient id="prefix__h" x1="47.127%" x2="52.87%" y1="25.444%" y2="74.55%">
            <stop offset="1%" stop-color="#159E49"/>
            <stop offset="17%" stop-color="#1BA24B"/>
            <stop offset="38%" stop-color="#2BAE4F"/>
            <stop offset="62%" stop-color="#46C257"/>
            <stop offset="88%" stop-color="#6CDD62"/>
            <stop offset="100%" stop-color="#80EC68"/>
        </linearGradient>
        <linearGradient id="prefix__i" x1="27.062%" x2="72.844%" y1="47.392%" y2="52.593%">
            <stop offset="1%" stop-color="#159E49"/>
            <stop offset="17%" stop-color="#1BA24B"/>
            <stop offset="38%" stop-color="#2BAE4F"/>
            <stop offset="62%" stop-color="#46C257"/>
            <stop offset="88%" stop-color="#6CDD62"/>
            <stop offset="100%" stop-color="#80EC68"/>
        </linearGradient>
    </defs>
    <g fill="none">
        <g fill="#159E49" opacity=".31">
            <path d="M73.184 65.21l-.464-.325-.27.656c1.002.12 1.984.379 2.916.768l.205-.74c-.992-.134-1.942-.484-2.784-1.025l-.297.702c1.261.217 2.46.71 3.508 1.445l.295-.702c-.973-.256-1.925-.574-2.866-.933l-.103.754c1.195.075 2.363.38 3.442.899l.294-.705-6.348-1.265c-.202-.05-.406.07-.462.27-.055.2.059.409.257.47 1.037.3 2.098.509 3.17.625.433.046.512-.653.103-.756-1.65-.416-3.376-.416-5.026 0-.212.029-.36.224-.332.436.028.212.223.361.435.333h4.188v-.769l-6.44.47.102.755c1.626-.523 3.342-.706 5.041-.538v-.769c-2.676.008-5.348.205-7.996.59l.204.74c1.838-.61 3.766-.904 5.701-.868l-.102-.754-6.607 1.13.202.743c1.546-.472 3.176-.604 4.778-.387l.102-.755c-2.013.177-4.015.462-5.998.853l.205.743 3.467-1.12c.198-.061.312-.27.257-.47-.056-.2-.26-.32-.462-.27-1.5.362-3.02.624-4.555.786l.103.754 2.62-1.061c.445-.18.279-.892-.205-.74-1.202.38-2.358.895-3.444 1.537l.397.668 1.535-1.06c.175-.11.23-.34.127-.519-.105-.178-.331-.243-.513-.145-.934.45-1.797 1.035-2.56 1.737-.368.336.172.864.543.543.56-.482 1.054-1.038 1.467-1.652.076-.148.049-.328-.067-.447-.117-.12-.296-.15-.445-.078-.8.512-1.426 1.256-1.791 2.134-.09.167-.046.374.104.49.15.116.361.106.5-.024 1.176-1.086 2.611-1.851 4.168-2.224l-.374-.64c-.425.333-.93.55-1.463.63-.492.087-.274.807.204.74l2.633-.381-.204-.74c-1.164.327-2.378.441-3.583.335l.103.756c1.12-.156 2.23-.373 3.326-.649.494-.125.271-.807-.202-.74l-2.815.387.305.702c1.018-.543 2.064-1.03 3.134-1.46l-.204-.741-3.5 1.417.296.702c1.08-.602 2.117-1.278 3.104-2.022.315-.235.15-.863-.297-.702-1.253.447-2.405 1.138-3.388 2.035l.543.543c.857-.843 1.774-1.621 2.745-2.33.394-.289.013-.955-.389-.663-1.206.877-2.351 1.836-3.426 2.87-.358.343.184.884.542.543l2.976-2.818c.307-.292-.107-.864-.465-.605-1.05.75-1.986 1.65-2.777 2.67-.296.384.238.932.543.543.749-.957 1.6-1.829 2.538-2.6.333-.277-.11-.859-.466-.605l-.964.686.527.526c.622-.808.898-1.056 2.07-.68.383.152.755.329 1.113.531.182.098.409.033.513-.145.104-.179.048-.408-.126-.519l-1.114-.686-.294.702c.695.136 1.368.372 1.996.7l.297-.703-1.149-.41-.102.753 2.006-.192c.212 0 .384-.172.384-.384 0-.212-.172-.384-.384-.384l-1.702-.041v.768c.806-.046 1.588-.29 2.278-.71.157-.101.22-.302.146-.475-.073-.174-.26-.269-.443-.226-1.135.319-2.298.524-3.473.612v.769l.824.146v-.664c-.505.32-1.064.544-1.65.661-.494.103-.271.807.202.74l2.216-.31-.202-.74-2.303.49c-.356.076-.376.681 0 .74.95.15 1.918.158 2.87.023l-.204-.743-2.843.512c-.44.077-.314.74.103.754 1.396.047 2.793-.063 4.165-.328l-.204-.74c-1.638.414-3.28.806-4.929 1.175l.297.702c1.315-.62 2.722-1.021 4.166-1.186l-.102-.756c-1.372.3-2.762.51-4.161.628l.371.484c.113-.731.725-1.281 1.464-1.314l-.103-.756-.616.19c-.33.1-.397.681 0 .74 1.964.293 3.944.473 5.928.538v-.769c-.887.097-1.785.04-2.653-.171l-.202.74c1.072.237 2.12.57 3.132.997l.102-.753-3.472-.36c-.428-.043-.532.695-.103.757 1.706.246 3.426.388 5.149.425.427 0 .53-.661.102-.756-1.073-.232-2.122-.565-3.132-.996l-.194.717c1.625.166 3.198.67 4.618 1.478l.387-.663c-1.086-.477-2.121-1.06-3.091-1.743l-.297.702 4.31 1.502.201-.74c-1.16-.396-2.247-.979-3.219-1.725l-.292.7c1.493.408 2.902 1.074 4.166 1.967l.387-.663c-1.389-.774-2.723-1.641-3.995-2.596-.345-.256-.798.326-.463.605l1.024.845c.373.31.908-.2.545-.545-.866-.844-1.996-1.36-3.199-1.463-.435-.044-.512.65-.102.755l.852.218.102-.756c-1.174-.075-2.332.301-3.24 1.05-.309.257.031.744.374.644 1.025-.302 2.022-.693 2.979-1.168.35-.172.171-.72-.195-.718-.962.007-1.92.14-2.848.395-.48.13-.276.835.205.74.666-.125 1.285-.43 1.791-.881.361-.305-.102-.769-.465-.602l-1.364.592.386.663c.564-.384 1.247-.553 1.924-.476l-.37-.487c-.132.603-.603 1.075-1.206 1.207-.391.125-.35.784.102.753l2.429-.164c.19-.002.35-.144.375-.332.026-.19-.09-.368-.273-.421-.445-.169-.907-.285-1.38-.346l-.101.756 2.236.123c.402.023.491-.513.194-.715l-1.484-.982c-.414-.274-.798.39-.389.664l1.303.869c.412.276.798-.39.389-.664l-1.303-.869-.389.664 1.485.981.194-.717-2.236-.123c-.425-.023-.535.697-.103.756.472.06.935.175 1.38.343l.102-.768-2.429.164.103.755c.842-.239 1.501-.898 1.74-1.742.03-.115.006-.238-.066-.334-.072-.095-.183-.151-.303-.153-.812-.083-1.627.123-2.303.582-.174.11-.23.34-.126.518.104.179.33.243.513.145l1.364-.591-.466-.605c-.416.357-.921.593-1.461.684l.204.74c.863-.227 1.752-.343 2.644-.345l-.192-.715c-.906.44-1.847.804-2.815 1.084l.374.64c.764-.608 1.732-.898 2.704-.812.435.026.512-.648.103-.753l-.852-.22-.103.768c1.001.093 1.94.527 2.659 1.23l.545-.546-1.024-.843-.465.602c1.273.95 2.61 1.812 4 2.58.181.098.408.034.512-.145.104-.179.048-.408-.126-.518-1.322-.925-2.794-1.614-4.35-2.037-.448-.123-.622.453-.295.704 1.03.778 2.18 1.384 3.404 1.794.468.161.667-.58.202-.74l-4.307-1.502c-.435-.151-.632.466-.297.702.971.682 2.008 1.266 3.094 1.742.44.192.83-.415.386-.663-1.54-.872-3.244-1.412-5.005-1.586-.368-.039-.537.569-.194.715 1.072.462 2.186.822 3.326 1.073l.103-.753c-1.655-.032-3.306-.165-4.944-.397l-.102.753 3.472.359c.47.048.46-.605.1-.769-1.01-.423-2.057-.753-3.127-.986-.479-.105-.686.625-.202.74.933.232 1.9.3 2.855.2.212 0 .384-.172.384-.384 0-.213-.172-.385-.384-.385-1.916-.063-3.827-.234-5.724-.512v.74l.617-.187c.404-.123.345-.768-.102-.756-1.1-.01-2.04.792-2.206 1.881-.029.116-.004.238.068.333.073.094.184.151.303.154 1.467-.124 2.926-.342 4.365-.654.415-.09.333-.804-.102-.755-1.578.174-3.117.607-4.555 1.28-.41.193-.11.795.297.703 1.648-.37 3.29-.761 4.928-1.176.484-.123.274-.833-.204-.74-1.305.247-2.634.348-3.961.299l.102.769 2.843-.513c.494-.087.274-.807-.205-.743-.817.118-1.647.11-2.462-.02v.74l2.303-.49c.497-.104.272-.806-.202-.74l-2.216.31.202.74c.653-.128 1.275-.379 1.835-.737.117-.07.188-.196.188-.332s-.071-.262-.188-.332c-.364-.217-.79-.307-1.21-.256-.484.049-.497.807 0 .769 1.243-.092 2.475-.306 3.677-.638l-.297-.705c-.57.354-1.219.561-1.888.605-.212 0-.384.172-.384.384 0 .212.172.385.384.385l1.701.04V63.1l-2.006.192c-.188.006-.344.148-.37.335-.025.187.088.364.268.42l1.149.41c.41.147.68-.512.297-.701-.688-.36-1.423-.618-2.183-.769-.183-.04-.368.056-.44.228-.072.173-.011.372.146.474l1.113.682.386-.664c-.701-.336-1.63-1.025-2.454-.92-.824.105-1.328.769-1.778 1.345-.236.303.222.74.511.526l.965-.687-.466-.602c-.938.771-1.79 1.643-2.538 2.6l.542.544c.742-.966 1.618-1.819 2.603-2.534l-.466-.602-2.973 2.818.542.543c1.027-.99 2.12-1.909 3.273-2.75l-.376-.658c-1.024.746-1.993 1.564-2.9 2.45-.355.348.177.876.543.543.884-.81 1.921-1.435 3.05-1.837l-.294-.702c-.988.745-2.026 1.42-3.106 2.022-.369.204-.116.868.296.702l3.498-1.428c.45-.181.256-.925-.204-.74-1.131.452-2.237.965-3.312 1.537-.42.22-.102.756.295.702l2.815-.387-.203-.74c-1.096.276-2.206.491-3.326.646-.456.064-.3.722.102.755 1.268.106 2.545-.018 3.77-.363.488-.136.268-.807-.205-.74l-2.644.368.205.74c.659-.114 1.276-.4 1.791-.827.32-.256-.033-.728-.373-.643-1.684.408-3.236 1.242-4.506 2.421l.6.466c.303-.76.832-1.41 1.516-1.86l-.527-.512c-.38.557-.832 1.06-1.346 1.496l.542.543c.718-.654 1.527-1.198 2.403-1.616l-.386-.664-1.536 1.06c-.402.278-.043.92.39.664 1.027-.607 2.12-1.094 3.26-1.452l-.206-.74-2.62 1.06c-.36.146-.368.804.102.769 1.603-.168 3.193-.44 4.76-.815l-.205-.74-3.467 1.116c-.188.07-.29.273-.237.466.053.193.245.314.442.277 1.915-.379 3.849-.655 5.793-.827.394-.033.563-.692.102-.753-1.733-.256-3.502-.134-5.184.358-.205.056-.326.268-.27.473.056.205.267.326.472.27l6.602-1.135c.438-.074.317-.748-.102-.768-2.005-.038-4.002.265-5.906.896-.198.062-.312.27-.257.47.056.2.26.32.462.27 2.58-.37 5.184-.557 7.791-.56.512 0 .484-.723 0-.769-1.768-.173-3.554.02-5.245.566-.392.123-.348.787.102.754l6.448-.467c.49-.036.512-.768 0-.768h-4.188l.102.753c1.512-.381 3.094-.381 4.606 0l.102-.753c-1-.113-1.99-.313-2.955-.597l-.205.74 6.349 1.268c.399.08.713-.512.296-.704-1.203-.577-2.506-.917-3.838-1.002-.463-.028-.481.612-.102.756.94.36 1.897.67 2.868.932.183.04.368-.055.44-.228.072-.172.011-.372-.146-.474-1.1-.77-2.358-1.29-3.682-1.519-.185-.05-.378.046-.452.223-.074.177-.007.381.158.48.896.58 1.908.957 2.966 1.103.201.05.406-.07.461-.27.055-.2-.058-.409-.257-.47-.999-.41-2.049-.68-3.121-.802-.348-.041-.487.438-.272.656.21.247.49.426.801.512.46.185.658-.558.205-.74l.003.01zM87.915 93.03l.256-1.537h-1.48c.24 1.048.366 2.118.38 3.192h1.535c-.063-.914-.007-1.833.166-2.733l-1.507-.205c.071 1.095-.015 2.195-.256 3.266h1.48c-.624-2.575-.99-5.207-1.091-7.855-.038-.984-1.569-.992-1.535 0 .055 1.52.226 3.035.511 4.53.172.91 1.433.6 1.508-.205l.716-7.654h-1.535l-.21 9.368c-.02.843 1.377 1.078 1.507.205.457-3.037.713-6.1.768-9.17.015-.994-1.484-.982-1.535 0l-.684 12.554h1.536c.013-4.716.157-9.43.43-14.14.058-.997-1.446-.971-1.536 0-.254 2.781-.206 5.582.143 8.352.1.797 1.28 1.118 1.508.205.829-3.256 1.182-6.616 1.049-9.974-.033-.817-1.382-1.102-1.507-.205l-.809 5.834c-.133.95 1.198 1.391 1.482.41.485-1.667.68-3.406.578-5.14-.044-.725-1.047-1.094-1.43-.39l-2.26 4.157c-.473.868.809 1.621 1.326.768 1.034-1.692 1.96-3.448 2.773-5.257.272-.605-.366-1.581-1.049-1.053-1.32 1.008-2.522 2.163-3.582 3.443l1.087 1.087c1.147-1.422 2.232-2.889 3.258-4.402.422-.625-.425-1.489-1.05-1.053-1.617 1.13-3.28 2.36-3.973 4.289-.768 2.15-.162 4.499.44 6.61l1.479-.41c-.683-1.563-.733-3.33-.14-4.93H85.18c.617 1.982.922 4.048.905 6.124 0 .99 1.536.99 1.536 0 .02-2-.285-3.99-.904-5.893-.255-.802-1.535-.694-1.507.203.044 2.53.634 5.023 1.73 7.304.348.736 1.395.313 1.43-.39.126-2.378.046-4.764-.238-7.13l-1.507.203c.61 2.89.847 5.846.71 8.796-.04.848 1.373 1.07 1.506.205.625-3.967.021-8.03-1.73-11.643v.769c.963-1.286 1.77-2.68 2.406-4.156l-1.402-.592c-2.815 7.646-8.806 16.042-17.98 15.299-2.302-.187-4.498-.966-6.652-1.704l-6.738-2.306-13.96-4.778.18 1.404c.284-.292.745-.312 1.053-.046.85.512 1.584-.77.767-1.328-.682-.461-1.24-1.086-1.622-1.816l-1.05 1.05c1.097.65 2.104 1.442 2.997 2.352l1.085-1.086-2.316-1.85-.931 1.207c1.64.836 2.619 2.577 2.482 4.415l1.43-.39-.744-1.688c-.381-.866-1.523-.19-1.402.591l.834 5.478 1.479-.407c-.333-2.108-.877-4.178-1.622-6.177-.277-.746-1.615-.723-1.508.202l.481 4.187 1.51-.205c-.55-1.749-.95-3.541-1.192-5.358l-.768.769c1.28-.11 1.878 1.332 2.216 2.347.45 1.35.793 2.744 1.187 4.112l2.452 8.54 1.402-.592c-2.18-4.194-3.809-8.654-4.844-13.267l-1.28.748c1.259 1.527 1.984 3.423 2.066 5.401l1.51-.205-2.26-8.173-1.129.868c1.835 1.197 3.832 2.124 5.93 2.752.961.292 1.312-1.135.406-1.483l-4.64-1.794-.406 1.481c4.077.979 8.099 2.15 12.065 3.513 3.749 1.28 7.452 3.159 11.402 3.748 7.132 1.064 12.224-4.012 16.48-9.016.273-.273.302-.708.065-1.014-.236-.307-.664-.39-.997-.193-3.135 1.504-6.084 3.37-8.787 5.558l1.085 1.086c2.678-2.986 5.736-5.608 9.094-7.8l-1.052-1.052c-2.078 3.37-4.915 6.204-8.285 8.278l.929 1.207 3.966-3.685-1.085-1.086c-2.501 3.066-6.226 4.871-10.18 4.932l.546 1.312c2.492-2.016 6.778-.256 8.444-3.692.196-.334.114-.761-.192-.998s-.74-.209-1.013.065c-2.795 2.436-6.646 3.258-10.19 2.176-.954-.287-1.335 1.165-.409 1.483 3.534 1.2 7.389 1.027 10.801-.484l-.768-1.327c-3.627 2.607-8.445 2.842-12.308.6l-.59 1.403 2.246.339c.962.143 1.384-1.33.407-1.484-3.322-.526-6.629-1.13-9.921-1.814-.41-.113-.832.128-.944.538-.113.41.128.833.537.945l6.494 2.496c.932.359 1.306-1.112.41-1.48-5.643-2.335-11.444-4.267-17.36-5.781-1.73-.44-4.237-.879-4.109 1.75.061 1.217.586 2.493.98 3.633.497 1.414 1.074 2.798 1.73 4.146.43.891 1.755.112 1.325-.77-.528-1.085-1-2.196-1.415-3.33-.327-.904-1-2.216-.987-3.19.025-1.737 1.709-.848 2.779-.569 1.18.308 2.356.636 3.528.977 4.452 1.302 8.831 2.842 13.12 4.611l.409-1.48-6.497-2.499-.407 1.484c3.29.683 6.598 1.288 9.92 1.814l.408-1.484-2.247-.335c-.809-.12-1.4.93-.591 1.404 4.34 2.524 9.75 2.29 13.856-.6.335-.226.438-.672.235-1.022-.202-.35-.64-.483-1.003-.305-3.055 1.31-6.49 1.429-9.629.33l-.409 1.484c4.079 1.215 8.495.24 11.686-2.577l-1.207-.93c-.768 1.59-2.667 1.747-4.223 1.944-1.481.187-2.814.482-3.984 1.438-.53.43-.079 1.322.543 1.311 4.359-.056 8.474-2.022 11.259-5.38.622-.753-.348-1.77-1.085-1.087l-3.966 3.685c-.638.592.186 1.665.931 1.207 3.59-2.211 6.614-5.232 8.83-8.822.397-.64-.401-1.473-1.048-1.05-3.468 2.256-6.626 4.957-9.394 8.035-.673.75.327 1.698 1.085 1.086 2.609-2.092 5.452-3.873 8.472-5.306l-.929-1.207c-2.06 2.421-4.201 4.886-6.875 6.646-3.048 2.004-6.364 2.496-9.898 1.617s-6.876-2.465-10.315-3.63c-3.736-1.268-7.524-2.359-11.366-3.273-.978-.235-1.315 1.133-.407 1.481l4.64 1.794.406-1.484c-1.967-.592-3.84-1.465-5.558-2.593-.57-.374-1.3.244-1.128.866l2.26 8.174c.224.817 1.55.681 1.506-.203-.101-2.381-.985-4.663-2.515-6.49-.512-.632-1.438.062-1.28.749 1.07 4.742 2.75 9.326 4.998 13.635.404.77 1.643.239 1.402-.594l-3.132-10.91c-.588-2.05-1.422-5.457-4.201-5.216-.371.033-.827.328-.768.768.25 1.956.67 3.887 1.254 5.77.256.784 1.612.695 1.507-.205l-.481-4.186-1.507.205c.74 1.996 1.28 4.061 1.612 6.164.153.98 1.627.559 1.479-.407l-.834-5.48-1.403.594.745 1.688c.333.754 1.392.3 1.43-.386.138-2.385-1.13-4.63-3.242-5.742-.729-.39-1.642.638-.931 1.206l2.318 1.85c.753.602 1.791-.363 1.085-1.086-.985-1.004-2.096-1.876-3.306-2.593-.678-.402-1.41.39-1.052 1.05.519.958 1.265 1.772 2.173 2.37l.768-1.327c-.794-.522-1.826-.504-2.6.046-.268.156-.417.457-.377.764.04.308.26.561.558.643l15.397 5.28c4.45 1.538 9.273 3.844 14.074 3.603 9.14-.464 14.862-8.604 17.74-16.452.295-.81-1.056-1.393-1.404-.591-.637 1.474-1.444 2.869-2.406 4.155-.137.238-.137.531 0 .77 1.57 3.246 2.118 6.892 1.574 10.458l1.51.205c.135-3.088-.123-6.18-.768-9.203-.176-.833-1.612-.664-1.51.204.284 2.366.364 4.752.238 7.131l1.43-.387c-.959-2.042-1.467-4.267-1.488-6.523l-1.51.205c.58 1.766.866 3.616.85 5.475h1.535c.018-2.213-.305-4.416-.96-6.53-.09-.336-.394-.568-.74-.568-.347 0-.65.232-.741.567-.68 1.865-.629 3.919.143 5.747.368.882 1.76.574 1.479-.41-.489-1.719-1.054-3.615-.563-5.398.473-1.722 2.009-2.796 3.393-3.764l-1.052-1.05c-.948 1.407-1.955 2.773-3.02 4.099-.613.769.456 1.852 1.088 1.086.967-1.187 2.064-2.261 3.27-3.203l-1.049-1.05c-.813 1.81-1.74 3.567-2.773 5.26l1.325.769 2.257-4.164-1.43-.387c.103 1.595-.07 3.195-.512 4.73l1.481.41.817-5.829-1.507-.205c.126 3.223-.215 6.448-1.014 9.572l1.51.205c-.35-2.77-.398-5.571-.143-8.352h-1.536c-.276 4.709-.42 9.423-.43 14.14 0 .997 1.485.984 1.536 0l.683-12.554h-1.535c-.047 2.932-.286 5.859-.714 8.76l1.51.205.21-9.368c.02-1.004-1.446-.968-1.536 0l-.711 7.64 1.51-.202c-.257-1.36-.41-2.738-.456-4.122h-1.535c.105 2.786.49 5.554 1.146 8.263.174.725 1.315.74 1.479 0 .276-1.204.379-2.441.304-3.674-.048-.815-1.333-1.102-1.507-.205-.21 1.034-.285 2.09-.222 3.144.061.978 1.55.999 1.535 0-.018-1.213-.164-2.42-.435-3.603-.161-.707-1.351-.768-1.48 0l-.255 1.538c-.166.968 1.315 1.383 1.48.41l-.006.012zM87.035 104.33c-2.467 9.498-.579 20.974-7.316 28.968l1.208.93c.888-1.493 1.547-3.11 1.955-4.8.1-.37-.088-.76-.443-.91-.354-.15-.765-.013-.96.319l-2.745 4.174 1.405.591.998-3.843c.09-.335-.055-.689-.355-.864-.299-.175-.678-.127-.925.116-.874.79-1.497 1.82-1.791 2.962-.256.984 1.113 1.296 1.481.41.768-1.845 1.681-3.625 2.73-5.324.528-.864-.752-1.538-1.327-.769-1.62 2.178-2.02 5.03-1.065 7.571l.944-.945c-.444-.098-.776-.47-.824-.923-.214-.81-1.612-.676-1.51.205l.118.982h1.536c-.339-2.358.27-4.754 1.694-6.662.563-.769-.584-1.412-1.205-.933-2.016 1.573-3.102 4.059-2.884 6.608.064.797.97.997 1.43.387 2.506-3.328 4.396-7.08 5.578-11.076.284-.95-1.187-1.35-1.479-.408l-2.922 9.37c-.256.8.732 1.194 1.28.748 1.942-1.57 2.558-4.099 3.144-6.405.776-3.019 1.374-6.08 1.792-9.17.133-.953-1.28-1.399-1.48-.41-.53 2.777-1.115 5.544-1.755 8.299-.535 2.283-.903 4.942-2.666 6.644l1.31.543c-.043-5.38 2.083-10.344 4.214-15.168.39-.884-.834-1.66-1.325-.769-2.184 3.937-3.832 8.15-4.9 12.524-.213.874.91 1.281 1.402.592 2.08-2.972 3.568-6.32 4.38-9.857l-1.509-.205c-.046 1.21-.3 2.403-.752 3.526-.318.804 1.023 1.38 1.402.592.806-1.72 1.305-3.566 1.476-5.458.08-.879-1.279-1.025-1.51-.205-.496 1.821-.917 3.66-1.263 5.517-.182.968 1.297 1.38 1.479.41.34-1.857.767-3.697 1.28-5.52l-1.508-.202c-.152 1.623-.585 3.207-1.28 4.681l1.403.595c.492-1.256.766-2.587.808-3.936.034-.858-1.31-1.053-1.507-.202-.782 3.404-2.217 6.623-4.224 9.48l1.404.592c1.031-4.246 2.627-8.334 4.744-12.155l-1.325-.769c-2.224 5.045-4.46 10.256-4.414 15.914 0 .312.187.593.474.712.288.12.62.052.839-.169 1.75-1.691 2.282-4.064 2.83-6.352.733-3.074 1.394-6.163 1.983-9.267l-1.48-.41c-.376 2.764-.896 5.507-1.557 8.217-.571 2.324-1.024 5.109-2.992 6.692l1.28.748 2.922-9.372-1.48-.407c-1.152 3.865-2.99 7.492-5.424 10.707l1.43.39c-.207-2.14.715-4.232 2.434-5.52l-1.205-.932c-1.575 2.14-2.258 4.81-1.904 7.446.128.96 1.653.986 1.535 0l-.117-.982-1.508.205c.226.959.951 1.72 1.896 1.994.528.176 1.15-.403.945-.946-.834-2.141-.487-4.564.913-6.385l-1.328-.768c-1.109 1.818-2.073 3.72-2.884 5.69l1.482.41c.224-.885.709-1.681 1.392-2.285l-1.28-.746-.997 3.843c-.223.861.928 1.312 1.402.592l2.745-4.176-1.402-.592c-.37 1.56-.974 3.054-1.791 4.433-.435.73.63 1.614 1.205.932 7.006-8.317 5.146-19.78 7.708-29.644.255-.959-1.231-1.369-1.48-.41l-.012-.01zM58.982 2.9c.703.72 1.233 1.59 1.55 2.545l1.403-.592-1.832-2.878-1.052 1.05c1.13.814 2.015 1.923 2.559 3.206.37.848 1.535.203 1.402-.594-.385-2.104-1.778-3.885-3.726-4.763-.668-.3-1.456.333-1.049 1.05.72 1.287 1.19 2.697 1.385 4.159l1.481-.408C60.56 3.77 59.547 2.03 58.158.617l-.932 1.207.134.087-.354-.458.256-.351.594.077-.097.712c.96-.233.552-1.717-.41-1.481-1.082.256-1.192 2.024.016 2.185 1.207.162 1.56-1.493.64-2.098-.743-.487-1.536.594-.932 1.207 1.207 1.22 2.088 2.727 2.559 4.379.281.978 1.617.543 1.481-.408-.23-1.593-.76-3.13-1.558-4.527L58.505 2.2c1.593.685 2.73 2.132 3.018 3.843l1.405-.592c-.67-1.512-1.74-2.811-3.097-3.756-.632-.45-1.448.428-1.049 1.053l1.827 2.888c.448.702 1.692.256 1.403-.595-.396-1.207-1.061-2.308-1.945-3.22-.689-.713-1.773.374-1.085 1.086V2.9z" transform="translate(20 1)"/>
            <path d="M63.613 2.352l-.532 3.236c-.13.8.965 1.425 1.402.592.642-1.221 1.414-2.37 2.303-3.423l-1.205-.933c-.623 1.214-.94 2.561-.926 3.926 0 .899 1.22.999 1.507.202.605-1.682 1.526-3.232 2.715-4.566.28-.272.31-.711.073-1.02-.239-.31-.67-.39-1.004-.19-2.014 1.013-3.992 2.05-5.63 3.626l1.085 1.09c1.105-1.339 2.507-2.4 4.094-3.098L66.564.587l-.512.438c-.755.64.335 1.722 1.088 1.086l.511-.438c.72-.607-.197-1.537-.929-1.207-1.706.756-3.214 1.896-4.409 3.331-.624.75.359 1.78 1.085 1.09 1.536-1.474 3.437-2.438 5.328-3.388L67.795.292c-1.363 1.533-2.418 3.315-3.107 5.247l1.507.205c-.022-1.092.224-2.173.717-3.149.37-.732-.61-1.634-1.205-.93-.979 1.15-1.828 2.402-2.534 3.736l1.403.592.532-3.239c.158-.966-1.32-1.383-1.48-.407l-.015.005zM81.52 20.987c2.43 4.626 4.55 9.41 6.346 14.317.904 2.406 1.756 4.83 2.59 7.262.416 1.214.829 2.43 1.238 3.648.31.915 1.098 2.467.305 3.318l1.28.34c-3.107-9.235-6.377-18.414-9.809-27.535-.343-.917-1.83-.512-1.479.407 3.432 9.122 6.701 18.3 9.806 27.536.176.526.87.787 1.28.341 1.568-1.688.327-4.115-.298-5.954-.952-2.819-1.916-5.637-2.94-8.417-2.009-5.483-4.25-10.887-7.003-16.04-.466-.873-1.792-.097-1.326.77l.01.007zM41.74 19.81c-2.029 11.721-3.37 23.55-4.017 35.428-.054.99 1.481.987 1.535 0 .638-11.74 1.962-23.432 3.964-35.017.166-.969-1.313-1.384-1.482-.41z" transform="translate(20 1)"/>
            <path d="M70.978 29.234l.161.131.34-1.28.21.125-.353.868c1.924-.925 4.043-1.148 6.141-1.322 1.771-.148 3.583-.277 5.095.83V27.26c-.793.446-2.111.182-3.002.274-.875.098-1.744.24-2.604.428-.868.18-1.733.387-2.608.538-.284.051-3.02.533-3.15.223v.769c.233-.382 1.81-.27 2.252-.285.768-.025 1.553 0 2.328-.048 1.3-.026 2.58-.337 3.747-.91.877-.453.102-1.78-.768-1.327-2.088 1.076-4.516.569-6.766.858-.716.095-1.79.156-2.11.938-.11.27-.101.575.022.84.123.264.35.465.627.556 1.745.707 4.445-.161 6.19-.535 1.222-.301 2.468-.493 3.723-.574 1.037-.036 1.968.102 2.902-.423.548-.305.443-1 0-1.327-1.712-1.26-3.838-1.21-5.87-1.04-2.385.2-4.736.484-6.909 1.537-.3.176-.446.532-.353.869.284.768.862 1.117 1.679.945.593-.123.706-.884.34-1.281-.222-.256-.515-.44-.842-.528-.934-.325-1.336 1.158-.407 1.484l-.015-.006zM50.599 32.145c0 .064-2.275.464-2.687.546-1.181.245-2.378.406-3.582.484-1.771.095-3.583-.213-5.156.817-.822.541-.1 1.794.767 1.328 1.426-.769 2.864-1.556 4.422-2.03 1.66-.512 3.147-.34 4.841-.256.215 0 2.334.08 2.094-.538 0-.03-2.048.28-2.34.305-1.745.154-3.498.205-5.25.151l.205 1.51c1.682-.512 3.42-.813 5.176-.897.983-.05.99-1.586 0-1.538-1.889.09-3.76.412-5.57.959-.375.099-.617.462-.565.846.052.384.382.67.77.665 2.5.07 5.24.116 7.694-.446 1.223-.279 2.19-1.778.701-2.541-.857-.441-1.983.043-2.9 0-1.184-.062-2.302-.257-3.484-.085-2.355.323-4.489 1.453-6.554 2.562l.768 1.328c1.108-.73 2.4-.564 3.667-.585 1.26-.033 2.516-.163 3.756-.39 1.464-.255 4.542-.273 4.755-2.2.11-.981-1.426-.974-1.536 0l.008.005zM89.194 47.4L87.71 78.974c-.048.99 1.487.987 1.536 0L90.73 47.4c.048-.989-1.487-.989-1.536 0zM38.265 18.796c-4.356 9.243-6.672 19.317-6.791 29.537 0 .846 1.343 1.074 1.507.205l2.771-14.62c.853-4.496 1.623-9.08 3.721-13.195.45-.879-.875-1.658-1.325-.769-2.088 4.1-2.933 8.586-3.782 13.067L31.5 48.138l1.51.205c.108-9.949 2.355-19.758 6.586-28.76.42-.89-.903-1.67-1.326-.769l-.005-.018zM51.605 5.678c-2.484 1.458-4.658 3.39-6.398 5.688l1.403.592c.249-1.468 1.005-2.8 2.136-3.767.937-.825 1.889-1.537 2.518-2.634.139-.237.14-.53.003-.77-.137-.238-.39-.385-.665-.385-3.34.043-4.166 3.572-6.871 4.712l.867 1.13c1.2-2.154 2.713-4.118 4.489-5.827.327-.318.297-1.002-.156-1.21-1.103-.512-1.868.134-2.646.908-1.28 1.281-2.56 2.577-3.826 3.866-.696.702.39 1.794 1.085 1.087l2.26-2.283c.24-.244 2.08-2.373 2.351-2.25l-.153-1.207c-1.87 1.806-3.463 3.878-4.729 6.15-.292.525.212 1.406.867 1.13 1.16-.49 2.01-1.243 2.84-2.181.983-1.107 2.01-2.457 3.622-2.478l-.663-1.155c-.752 1.32-2.142 2.024-3.12 3.151-.878 1.03-1.462 2.278-1.69 3.613-.16.89.874 1.281 1.404.594 1.598-2.074 3.586-3.815 5.852-5.124.852-.512.082-1.827-.768-1.327l-.012-.023zM75.369 10.646l3.326 4.26c.512.662 1.367 2.189 2.424 1.484.946-.63.145-1.832-.23-2.526L78.38 9.201l-1.208.932 5.146 5.658c.43.474 1.366.12 1.312-.543-.235-2.893-2.674-4.643-3.495-7.295l-1.28.748c1.848 1.83 3.625 3.723 5.33 5.68.582.664 1.646-.19 1.206-.932-1.313-2.217-2.904-4.257-4.734-6.07l-1.077 1.076.532.418c.768.6 1.863-.48 1.085-1.09l-.532-.414c-.768-.592-1.81.369-1.085 1.086 1.738 1.72 3.248 3.655 4.493 5.76l1.208-.93c-1.715-1.96-3.496-3.853-5.343-5.68-.532-.526-1.515 0-1.28.748.768 2.441 3.23 4.291 3.442 6.884l1.31-.543-5.146-5.657c-.603-.664-1.61.182-1.205.93l1.482 2.754c.102.19 1.443 2.673 1.574 2.511l.747-.197c-.39-.054-.847-.933-1.078-1.227l-1.056-1.356-2.262-2.903c-.61-.768-1.69.315-1.088 1.087l-.01.01zM17.597 73.373c-1.085 9.907-2.22 19.808-3.408 29.704-.102.853 1.371 1.06 1.507.205 1.259-7.92 2.234-15.876 2.925-23.87h-1.535c.104 7.633.186 15.332-1.584 22.804l1.507.205-.594-13.98c-.033-.814-1.374-1.101-1.507-.202-.9 6.093-1.378 12.24-1.43 18.399 0 .892 1.238 1.01 1.51.205 1.049-3.133 1.489-6.438 1.297-9.736 0-.425-.344-.769-.768-.769-.424 0-.768.344-.768.769-.293 6.304-.89 12.585-1.79 18.842-.142.953 1.184 1.381 1.478.407 1.812-5.985 2.776-12.194 2.866-18.447.015-1.002-1.453-.971-1.535 0-.512 6.095-1.024 12.193-1.848 18.255-.13.958 1.318 1.394 1.48.408l3.07-18.602-1.507-.202-1.354 10.356c-.427 3.33-.696 6.777-1.868 9.952-1.126 3.043-3.188 5.67-5.225 8.15-2.12 2.576-4.383 5.032-6.776 7.356l1.085 1.089c5.781-5.96 10.04-13.229 12.413-21.19l-1.479-.407c-.754 3.591-2.048 7.047-3.838 10.249-.486.869.785 1.601 1.325.769 3.649-5.594 5.338-12.242 4.803-18.902-.064-.794-1.374-1.122-1.507-.205-.78 5.391-2.108 10.688-3.961 15.81l1.481.406c1.692-6.396 2.933-12.902 3.716-19.472.102-.85-1.387-1.06-1.507-.205-.998 7.09-2.625 14.078-4.862 20.88-.31.942 1.172 1.344 1.479.407 2.236-6.801 3.863-13.788 4.862-20.877l-1.51-.205c-.774 6.432-1.998 12.802-3.662 19.063-.256.968 1.15 1.327 1.482.407 1.851-5.12 3.179-10.417 3.961-15.806l-1.51-.205c.525 6.387-1.096 12.766-4.606 18.125l1.326.768c1.861-3.316 3.21-6.896 4-10.617.204-.964-1.196-1.363-1.48-.408-2.303 7.702-6.429 14.734-12.026 20.498-.691.712.376 1.778 1.085 1.089 2.503-2.434 4.864-5.01 7.07-7.718 2.011-2.475 3.971-5.05 5.161-8.037 1.239-3.113 1.535-6.51 1.963-9.808l1.45-11.325c.108-.853-1.368-1.06-1.51-.205l-3.057 18.601 1.479.408c.842-6.198 1.38-12.43 1.904-18.663h-1.536c-.092 6.111-1.04 12.18-2.814 18.027l1.479.408c.928-6.385 1.546-12.802 1.855-19.25h-1.535c.188 3.163-.234 6.333-1.244 9.337l1.507.205c.055-6.016.525-12.02 1.408-17.971l-1.51-.205.593 13.979c.036.835 1.3 1.078 1.508.202 1.804-7.607 1.747-15.442 1.64-23.213 0-1.002-1.451-.974-1.535 0-.683 7.857-1.64 15.678-2.872 23.462l1.51.202c1.194-9.895 2.33-19.796 3.409-29.703.105-.982-1.43-.974-1.536 0v-.003zM124.919 134.84l-10.886 6.336c-3.444 2.004-6.85 4.159-10.491 5.814-6.684 3.049-15.514 4.115-22.318.768-1.698-.793-3.188-1.972-4.35-3.443-1.28-1.683-2.28-4.597.028-5.919.205-.12.342-.33.372-.565.03-.237-.05-.473-.219-.642l-2.367-2.264-.156 1.206 3.582-1.752-.767-1.327-2.098 1.345c-.6.381-.42 1.158.181 1.404.626.273 1.337.273 1.963 0l-.944-.946-.707.702.592 1.407 3.226-1.402-.929-1.206-2.558 2.178c-.474.404-.113 1.396.545 1.311.935-.11 1.841-.4 2.668-.853l-.926-1.196c-.512.55-1.136.982-1.83 1.268l.865 1.127 1.472-2.703c.158-.27.137-.608-.053-.856s-.511-.356-.812-.274l-2.771.736.59 1.406c.838-.393 1.634-.87 2.375-1.424h-.767c.666.512 1.183 1.194 1.497 1.975l.12-.933c-1.671 1.339-3.13 2.923-4.327 4.7-.333.489.11 1.158.663 1.155 1.837 0 2.497-2.493.985-3.472-.206-.12-.455-.137-.676-.047-.22.09-.386.276-.45.506-.622 2.285-.064 4.731 1.49 6.518l1.087-1.089c-.856-.838-1.288-2.02-1.175-3.213l-1.507.205c.959 2.45 2.52 4.618 4.537 6.303.747.623 1.822-.405 1.085-1.086-1.552-1.428-2.91-3.055-4.038-4.838l-1.326.77c1.939 2.934 4.731 5.201 8 6.494.82.33 1.325-.979.59-1.404l-4.815-2.8-.591 1.404c2.185.362 4.289 1.112 6.21 2.216l.768-1.327-5.374-2.306-.591 1.406c3.47 1.41 7.119 2.336 10.842 2.75v-1.538c-2.598.045-5.194-.167-7.75-.632l-.408 1.483 10.412 1.612v-1.484c-2.949.504-5.98.18-8.756-.935l-.407 1.48 6.487 1.21.204-1.509c-1.195.101-2.396-.104-3.49-.597l-.386 1.432c4.37.34 8.761-.278 12.868-1.811.79-.295.699-1.478-.204-1.51-3.09-.104-6.182.031-9.25.406l.204 1.509c3.019-.509 5.992-1.261 8.89-2.25l-.407-1.48c-3.059 1.207-6.223 2.125-9.453 2.74l.41 1.482c3.854-1.562 7.912-2.564 12.05-2.978l-.39-1.432c-3.464 1.876-7.246 3.093-11.154 3.587v1.538l10.66-1.34-.204-1.51-10.115 2.842c-.37.103-.606.462-.555.843.05.38.374.664.757.666 6.85.046 13.44-2.616 18.342-7.407.726-.713-.33-1.673-1.088-1.087-4.433 3.435-9.706 5.616-15.269 6.314l.387 1.432c7.466-4.458 16.827-4.51 23.876-9.81.768-.582.113-1.822-.767-1.33l-15.159 8.426c-.742.413-.24 1.712.594 1.405 8.251-3.032 15.788-7.737 22.14-13.82.616-.593-.195-1.697-.932-1.208l-10.348 6.887c-.82.546-.054 1.876.767 1.328l10.223-6.747c.678-.448.35-1.34-.389-1.432-1.36-.171-2.648-.708-3.728-1.552l-.93 1.206c1.9 1.318 3.965 2.377 6.142 3.15.845.302 1.303-.956.591-1.405-1.747-1.106-3.655-1.935-5.655-2.457-.96-.256-1.346 1.181-.407 1.481.888.284 1.67.826 2.25 1.558l.156-1.207-8.222 5.778c-.801.563-.11 1.793.768 1.327l7.05-3.72-1.052-1.05c-1.76 2.572-4.303 4.507-7.25 5.516l.748 1.28c2.807-2.894 5.772-5.632 8.881-8.198.699-.577-.192-1.597-.931-1.207-5.587 2.938-10.964 6.26-16.093 9.941l.768 1.327c4.938-3.776 9.88-7.563 14.39-11.855.615-.584-.222-1.742-.93-1.207-3.232 2.442-6.449 4.91-9.704 7.318-3.07 2.27-6.256 4.417-9.88 5.683l.592 1.404c3.705-1.583 7.268-3.481 10.65-5.673 3.198-2.085 6.182-4.72 9.918-5.79l-.591-1.407-10.924 5.38c-3.51 1.73-7.004 3.55-10.875 4.303-.837.164-.66 1.6.204 1.511 3.939-.394 7.691-1.873 10.842-4.27.768-.588.126-1.794-.767-1.328l-9.724 5.078c-.878.456-.1 1.794.768 1.327l9.723-5.078-.767-1.327c-2.916 2.258-6.398 3.664-10.062 4.063l.205 1.51c3.838-.749 7.31-2.522 10.786-4.233l11.376-5.609c.788-.387.236-1.64-.59-1.404-3.737 1.071-6.708 3.587-9.896 5.69-3.5 2.304-7.198 4.292-11.05 5.94-.792.34-.227 1.691.592 1.404 3.613-1.26 6.817-3.313 9.885-5.568 3.385-2.487 6.714-5.055 10.066-7.586l-.928-1.207c-4.42 4.2-9.246 7.917-14.074 11.614-.768.587-.041 1.912.767 1.328 5.13-3.68 10.507-7.003 16.093-9.942l-.931-1.206c-3.109 2.566-6.073 5.304-8.88 8.199-.511.512 0 1.537.745 1.28 3.325-1.13 6.193-3.315 8.168-6.223.46-.671-.417-1.384-1.05-1.05l-7.049 3.72.768 1.327 8.221-5.778c.2-.124.334-.332.364-.566.03-.234-.046-.469-.207-.64-.758-.925-1.77-1.605-2.91-1.958l-.407 1.481c1.882.487 3.676 1.265 5.318 2.306l.59-1.404c-2.051-.738-3.996-1.745-5.782-2.995-.71-.492-1.62.668-.932 1.206 1.382 1.103 3.042 1.798 4.796 2.01l-.387-1.433-10.235 6.746.767 1.327 10.366-6.897-.931-1.207c-6.155 5.906-13.461 10.477-21.461 13.426l.59 1.404 15.15-8.422-.768-1.33c-7.035 5.291-16.41 5.355-23.877 9.814-.602.36-.407 1.537.389 1.432 5.964-.733 11.618-3.07 16.361-6.764l-1.087-1.087c-4.61 4.507-10.812 7.007-17.255 6.957l.205 1.509 10.118-2.842c.798-.223.68-1.619-.205-1.509l-10.663 1.343c-.967.123-.98 1.66 0 1.537 4.181-.513 8.23-1.801 11.94-3.8.642-.346.384-1.506-.387-1.432-4.276.412-8.471 1.433-12.459 3.034-.396.122-.624.539-.513.94.11.4.52.64.923.54 3.228-.615 6.392-1.533 9.45-2.74.9-.354.545-1.794-.407-1.482-2.899.987-5.871 1.74-8.89 2.25-.844.14-.657 1.614.202 1.509 3.069-.374 6.161-.51 9.25-.405l-.204-1.512c-3.975 1.49-8.228 2.09-12.46 1.758-.739-.056-1.076 1.12-.388 1.432 1.33.629 2.798.906 4.266.807.808-.056 1.108-1.342.204-1.509l-6.5-1.209c-.4-.093-.803.148-.912.545-.109.397.114.81.506.936 3.042 1.194 6.355 1.52 9.57.94.727-.125.74-1.368 0-1.483l-10.407-1.61c-.957-.148-1.387 1.302-.407 1.484 2.69.495 5.423.725 8.158.687 1.024-.018.96-1.43 0-1.537-3.585-.417-7.096-1.324-10.435-2.696-.798-.325-1.39 1.063-.591 1.404l5.373 2.306c.88.377 1.659-.822.768-1.327-2.034-1.176-4.26-1.98-6.576-2.373-.816-.135-1.395.94-.594 1.407l4.816 2.8.594-1.404c-2.893-1.166-5.363-3.184-7.083-5.788-.545-.82-1.86-.066-1.326.77 1.195 1.896 2.633 3.628 4.279 5.15l1.085-1.087c-1.83-1.498-3.255-3.432-4.143-5.624-.318-.792-1.449-.702-1.507.202-.116 1.604.477 3.177 1.622 4.305.706.714 1.714-.344 1.087-1.09-1.177-1.386-1.589-3.269-1.097-5.021l-1.126.461c.091.099.12.24.076.368-.044.127-.155.22-.289.24l.663 1.157c1.136-1.66 2.517-3.14 4.094-4.389.287-.228.256-.64.12-.93-.443-1.01-1.15-1.883-2.047-2.526-.235-.144-.531-.144-.767 0-.741.554-1.537 1.03-2.375 1.422-.8.377-.228 1.627.594 1.407l2.763-.746-.882-1.127-1.472 2.705c-.289.53.208 1.394.868 1.128.946-.366 1.802-.933 2.507-1.663.274-.274.302-.708.066-1.015-.237-.306-.664-.389-.997-.192-.585.332-1.228.55-1.894.643l.543 1.312 2.559-2.178c.721-.615-.2-1.537-.93-1.207l-3.228 1.402c-.789.34-.22 1.719.593 1.404.838-.282 1.499-.936 1.791-1.77.208-.513-.424-1.156-.944-.949-.345.234-.798.234-1.144 0l.182 1.404 2.098-1.345c.84-.535.11-1.757-.767-1.327l-3.583 1.753c-.205.12-.342.33-.372.565-.03.236.05.473.219.641l2.367 2.265.156-1.206c-3.503 2.008-2.068 6.405.08 8.85 2.425 2.761 6.043 4.245 9.59 4.885 4.284.745 8.677.576 12.891-.497 4.389-1.099 8.309-3.28 12.19-5.536l14.806-8.607c.855-.497.082-1.827-.767-1.327h-.023zM58.168 134.863c-.706 3.971-2.999 7.31-5.752 10.167-1.41 1.46-2.922 2.923-4.734 3.869-2.047 1.07-4.32 1.148-6.566.84-2.247-.307-4.447-.925-6.697-1.235-2.182-.3-4.386-.377-6.581-.533-4.575-.32-8.815-1.588-13.076-3.241-4.646-1.813-9.13-4.018-13.403-6.593v1.328l2.559-1.896-.932-1.207c-.599.753-1.236 1.475-1.909 2.162l1.088 1.087c.604-.669 1.589-1.912 2.607-1.607.394.118 1 .595.543.912-.527.37-.932-.581-1.011-.968l-.74.974c.962-.069 1.838.554 2.091 1.486l.74-.971c-1.02.026-1.985-.468-2.56-1.312l-.662 1.155c.737 0 1.19.31 1.5.979l.662-1.158c-1.006-.076-1.99-.337-2.902-.769-.882-.42-1.622.792-.767 1.327 3 1.9 6.327 3.227 9.81 3.91.372.102.76-.088.91-.443.149-.355.013-.765-.318-.96l-6.26-4.32-.767 1.327 10.537 5.59.591-1.404c-3.742-1.548-7.39-3.315-10.926-5.29-.862-.482-1.627.824-.768 1.327 2.56 1.503 5.06 3.096 7.5 4.78l.387-1.432c-2.548-.276-5.004-1.11-7.193-2.444l-.389 1.432c5.42.42 9.82 4.261 15.156 5.078.965.15 1.387-1.324.41-1.48-3.267-.52-6.456-1.451-9.489-2.773l-.59 1.404c4.077 1.383 8.26 2.43 12.507 3.134.957.159 1.377-1.194.41-1.481-4.35-1.302-8.7-2.624-12.716-4.763-.87-.464-1.637.838-.767 1.327 4.71 2.685 9.884 4.456 15.25 5.222.95.136 1.393-1.21.41-1.481-4.947-1.37-9.702-3.355-14.156-5.909l-.767 1.328c4.154 2.318 8.401 4.453 12.743 6.405l.386-1.432-6.847-.513v1.538c5.158.092 10.317.068 15.476-.072.985-.028.992-1.555 0-1.537l-7.145.128c-.826 0-1.09 1.376-.204 1.509 4.04.606 8.097 1.085 12.167 1.437v-1.537l-15.397-1.22v1.538c6.026.403 12.029 1.046 18.01 1.929l.204-1.51-6.952-.42v1.538l11.448.182-.389-1.432c-1.5.72-3.18.978-4.826.738l-.204 1.509 7.213-.6-.542-1.312c-1.464 1.231-3.416 1.711-5.282 1.3v1.483c1.795-.76 3.765-1.005 5.69-.707l-.46-1.128c-.675 1.025-1.847 1.281-2.953.84l.182 1.405 7.016-3.56c.768-.389.236-1.685-.59-1.406-1.448.492-2.853 1.1-4.202 1.82l.767 1.327c2.038-1.217 3.986-2.578 5.83-4.072l-1.085-1.086c-2.05 2.003-4.547 3.49-7.283 4.338l.407 1.48c6.959-2.411 12.426-7.89 14.828-14.86h-1.481c.878 5.457-4.186 9.157-8.107 11.85l.932 1.207.993-1.025c.685-.712-.4-1.794-1.085-1.086l-.993 1.025c-.584.604.187 1.716.929 1.206 4.606-3.159 9.82-7.304 8.812-13.58-.13-.809-1.258-.645-1.481 0-2.243 6.456-7.308 11.531-13.754 13.78-.926.318-.545 1.778.407 1.481 2.99-.925 5.718-2.547 7.96-4.732.725-.705-.332-1.694-1.084-1.087-1.746 1.407-3.59 2.687-5.517 3.83-.852.513-.098 1.794.767 1.328 1.232-.658 2.516-1.214 3.839-1.663l-.594-1.404-7.004 3.559c-.652.33-.373 1.181.182 1.407 1.728.683 3.698.037 4.688-1.538.256-.381.023-1.053-.458-1.13-2.192-.377-4.445-.133-6.505.705-.632.256-.824 1.31 0 1.484 2.399.532 4.908-.096 6.773-1.697.497-.415.103-1.365-.542-1.311l-7.213.6c-.794.066-1.121 1.378-.205 1.508 2.048.318 4.145.005 6.01-.9.72-.34.328-1.419-.386-1.431l-11.448-.182c-.996-.016-.978 1.476 0 1.537l6.952.44c.85.055 1.067-1.38.205-1.508-6.112-.907-12.254-1.57-18.424-1.986-.99-.067-.977 1.46 0 1.537l15.371 1.204c.988.077.978-1.452 0-1.537-3.934-.342-7.853-.803-11.758-1.383l-.204 1.511 7.144-.128v-1.537c-5.157.14-10.316.164-15.476.072-.998-.018-.975 1.463 0 1.537l6.847.512c.737.057 1.08-1.12.39-1.432-4.34-1.952-8.589-4.088-12.746-6.405-.863-.485-1.633.832-.768 1.327 4.568 2.62 9.445 4.657 14.519 6.062l.41-1.481c-5.236-.738-10.286-2.457-14.885-5.068l-.768 1.327c4.138 2.204 8.61 3.587 13.08 4.917l.41-1.48c-4.245-.703-8.426-1.749-12.502-3.13-.812-.274-1.395 1.054-.592 1.407 3.146 1.386 6.455 2.366 9.847 2.916l.41-1.48c-5.484-.841-9.98-4.7-15.566-5.125-.788-.062-1.003 1.06-.387 1.432 2.43 1.461 5.15 2.367 7.969 2.654.826.088.947-1.045.386-1.432-2.441-1.682-4.941-3.276-7.5-4.78l-.768 1.326c3.654 2.037 7.425 3.855 11.293 5.445.806.333 1.35-1.002.59-1.404l-10.55-5.604c-.882-.468-1.586.77-.767 1.328l6.254 4.31.59-1.405c-3.352-.655-6.554-1.928-9.441-3.756l-.768 1.327c1.155.552 2.401.886 3.677.984.635.051.886-.676.663-1.155-.497-1.1-1.61-1.788-2.815-1.74-.542 0-1.008.66-.663 1.158.853 1.302 2.304 2.085 3.86 2.083.24 0 .466-.111.612-.302.145-.192.193-.44.13-.672-.44-1.602-1.925-2.688-3.583-2.62-.24-.001-.467.11-.613.302-.145.19-.193.44-.13.67.226 1.11 1.168 2.189 2.368 2.227.527.018 1.034-.198 1.388-.59.353-.39.517-.918.446-1.441-.186-1.112-1.072-1.973-2.187-2.127-1.556-.18-2.815 1.045-3.76 2.1-.657.731.392 1.794 1.088 1.087.673-.687 1.309-1.409 1.906-2.162.492-.615-.163-1.773-.928-1.207l-2.56 1.896c-.452.336-.534 1.007 0 1.327 3.993 2.395 8.163 4.478 12.475 6.231 4.37 1.776 8.833 3.293 13.562 3.716 2.626.235 5.274.256 7.884.643 2.341.35 4.63.999 6.983 1.28 2.111.257 4.25.121 6.216-.737 1.886-.823 3.477-2.178 4.938-3.602 3.296-3.213 6.193-7.087 7.017-11.717.171-.966-1.308-1.381-1.482-.408v-.01z" transform="translate(20 1)"/>
        </g>
        <path fill="url(#prefix__a)" d="M92.028.185c2.814.317 4.723 2.25 6.613 4.155l.436.438c4.471 4.462 8.895 8.98 12.927 13.855 7.163 8.653 12.696 18.285 14.605 29.462.555 3.243.945 6.527 1.69 9.73.743 3.202 1.88 6.284 3.079 9.34 2.358 6.004 4.44 12.041 6 18.32 1.398 5.622 2.535 11.305 3.69 16.982l.434 2.129 2.015 9.85c.62 3.033 1.373 6.135 1.08 9.253-.381 4.068-2.007 7.452-4.372 10.302 3.588.408 6.936 1.634 10.308 2.92 3.503 1.334 7.268 2.36 10.284 4.67 3.154 2.422 5.155 6.35 7.226 9.668 2.166 3.469 4.148 7.038 5.688 10.833.173.427-.055.742-.386.865l-.035.019c-12.013 5.732-24.948 10.393-37.7 14.242-11.205 3.384-22.713 5.824-34.372 6.94-12.773 1.224-25.622.711-38.395-.223-11.197-.816-22.536-1.483-33.586-3.561C19.114 178.47 8.622 175.319.44 168.88l-.004-.003c-.259-.152-.414-.44-.274-.813 2.5-6.645 2.481-14.097 7.198-19.796 2.154-2.601 4.959-4.836 7.838-6.602 2.249-1.389 4.833-2.492 6.833-4.261-.23-.084-.462-.163-.695-.24l-.112.137c-.629.767-1.712-.318-1.088-1.088 3.457-4.226 7.547-8.36 9.536-13.533 1.681-4.372 2.256-9.121 2.906-13.74.705-5.008 1.285-10.032 1.868-15.056 1.144-9.833 2.31-19.678 4.35-29.372.023-.112.063-.205.116-.281.144-13.311 1.104-26.679 7.927-38.297 4.637-7.898 11.39-14.266 18.27-20.191 1.64-1.414 3.28-3.002 5.025-4.216C71.879.316 74.04.431 76.08.503c2.262.08 4.983.778 6.615 2.38.05-.05.112-.095.186-.132 2.79-1.427 5.92-2.93 9.147-2.566zm18.187 80.486l-.269.302c-5.49 6.205-12.229 12.68-21.1 12.004-2.518-.192-4.956-.903-7.38-1.565-2.245-.616-4.49-1.237-6.713-1.924-3.987-1.232-7.91-2.686-11.61-4.613.92 3.396 2.11 6.743 4.009 9.74 1.814 2.865 3.752 5.431 4.86 8.677 1.15 3.367 2.159 6.548 3.955 9.643 1.496 2.589 3.175 5.098 4.32 7.877 1.267 2.98 1.582 6.28.903 9.448-.742 3.474-2.408 6.75-4.006 9.888-1.284 2.515-2.803 5.03-5.133 6.705-2.808 2.014-6.4 2.237-9.737 2.35-7.164.237-14.313-.796-21.116-3.05-3.42-1.151-6.737-2.586-9.916-4.29-2.53-1.34-5.024-2.75-7.661-3.847-1.935 1.952-4.544 3.151-6.873 4.516-2.883 1.655-5.496 3.741-7.748 6.186-4.855 5.386-4.863 12.77-7.185 19.293l-.003.003.543.412c9.09 6.778 20.803 9.571 31.862 11.232 11.3 1.696 22.82 2.42 34.218 3.117 12.329.755 24.709.898 36.989-.615 23.213-2.864 46.082-10.489 67.1-20.513l-.527.25c-1.454-3.44-3.307-6.694-5.283-9.86-1.958-3.142-3.86-6.952-6.834-9.238-2.905-2.235-6.588-3.197-9.963-4.48-3.333-1.272-6.668-2.508-10.232-2.838l-.631-.049c-.038.003-.075-.001-.11-.008-4.466 4.583-10.85 7.675-16.602 10.04-.238.098-.44.072-.594-.027-4.843.783-9.286 3.41-14.315 3.066-4.19-.287-8.333-2.194-10.545-5.886-.167-.304-.118-.68.12-.932 1.336-1.574 2.552-3.233 3.643-4.964-1.887-.699-3.526-2.51-3.17-4.647.239-1.442 1.222-2.87 1.974-4.126.752-1.258 1.598-2.474 2.22-3.803 2.558-5.476 3.916-11.6 5.294-17.448 1.488-6.12 2.449-12.357 2.872-18.641.15-2.461.273-4.923.374-7.385zM70.303 3.351c-3.729 3.066-7.394 6.248-10.866 9.599-6.254 6.038-11.702 12.888-14.751 21.12-3.08 8.382-3.873 17.378-4.107 26.246-.246 9.294-.071 18.58-.549 27.87-.516 10.018-1.434 20.007-2.384 29.99-.095.98-1.635.989-1.54 0 1.15-12.077 2.254-24.172 2.651-36.304.103-3.138.12-6.328.126-9.542-.564 3.317-1.05 6.648-1.491 9.983-1.324 10.069-2.256 20.186-3.796 30.23-.687 4.507-1.493 9.093-3.61 13.183-1.926 3.722-4.869 6.96-7.594 10.177.276.095.55.195.821.299.432-.35.991-.015 1.136.458 2.79 1.175 5.433 2.678 8.118 4.089 3.753 1.985 7.704 3.57 11.788 4.731 3.937 1.11 7.98 1.808 12.061 2.084 3.994.27 8.677.53 12.527-.785 3.331-1.137 5.284-4.07 6.824-7.057 1.622-3.13 3.285-6.401 4.03-9.87 1.539-7.216-3.412-12.599-6.417-18.61-1.547-3.093-2.153-6.518-3.577-9.651-1.45-3.19-3.88-5.76-5.415-8.955-1.347-2.802-2.256-5.78-3.009-8.788-.364-.242-.393-.646-.234-.96l-.073-.305c-.914-3.857-1.681-7.75-2.248-11.672-1.104-7.67-1.278-15.347-.878-23.065.349-6.782.783-13.676 2.274-20.32 1.316-5.855 3.631-11.607 7.758-16.062 3.656-3.945 9.413-6.844 14.714-5.002.008-2.72-2.806-4.068-5.216-4.337-2.453-.272-5.086-.408-7.073 1.226zm13.637.575l-.276.14-.013.014-.042.02c.4.754.597 1.646.512 2.69l-.001.01c1.395-.693 2.934-1.67 4.422-1.986 1.36-.285 2.472.962 3.414 1.75 2.511 2.103 4.847 4.408 6.983 6.891 4.22 4.92 7.644 10.47 10.147 16.448.383.923-1.108 1.308-1.486.41-1.362-3.245-3.008-6.358-4.915-9.306 4.15 10.524 7.86 21.197 11.131 32.02.274.907-1.066 1.316-1.439.531-.103 5.675-.176 11.351-.306 17.03-.139 5.914-.339 11.83-.706 17.732-.382 5.76-1.225 11.48-2.52 17.104-1.25 5.545-2.602 11.147-4.602 16.476-.916 2.448-2.122 4.59-3.456 6.825-.637 1.06-1.835 2.643-1.815 3.926.026 1.403 1.309 2.402 2.551 2.735l-.053-.016c3.285-5.65 5.283-11.993 5.804-18.574.077-.982 1.62-.988 1.54 0-.714 9.168-4.183 17.895-9.936 25.044l-.374.456.08.117c2.173 3.095 6.034 4.57 9.754 4.593l.327-.002c4.43-.071 8.426-2.365 12.747-3.063.18-.03.34-.002.475.062l.044-.021c5.815-2.397 11.8-5.111 16.117-9.838 1.976-2.158 3.577-4.724 4.424-7.546.986-3.266.621-6.494-.04-9.789-2.418-12.031-4.528-24.255-7.91-36.058-1.664-5.81-4.058-11.303-6.065-16.989-2.084-5.922-2.566-12.072-3.88-18.169-2.246-10.42-8.159-19.488-15.013-27.478-3.386-3.946-7.01-7.682-10.682-11.362-1.894-1.898-3.857-4.495-6.639-4.995-2.868-.527-5.796.89-8.303 2.168zM98.218 141.85l-.121.934.394-.47.013-.018-.108-.16c-.061-.094-.12-.19-.178-.286zM86.858 7.215l-.143.07-2.15 1.003c-.315.145-.611.078-.828-.088-.212.15-.496.2-.792.057-7.101-3.446-14.292 3.487-17.497 9.178-3.025 5.377-4.308 11.54-5.033 17.644 1.872-1.26 4.067-1.89 6.344-2.143 1.517-.17 3.016-.018 4.53-.1.67-.036 1.55-.378 2.21-.09.587.259.623.829.302 1.342-.652 1.047-2.335 1.154-3.431 1.193-1.784.061-3.547-.241-5.33-.026-1.683.218-3.312.73-4.813 1.512-.045.443-.089.884-.13 1.323-.73 7.698-1.18 15.488-.783 23.22.411 7.266 1.516 14.475 3.297 21.53 3.828 2.144 7.922 3.714 12.099 5.026 2.222.695 4.43 1.311 6.708 1.937 2.28.626 4.573 1.332 6.93 1.589 9.252.99 16.074-6.389 21.595-12.755l.254-.293c.04-.038.075-.071.11-.1.287-7.965.377-15.935.516-23.906l.075-3.975c.006-.276.129-.475.303-.597-2.055-6.584-4.273-13.11-6.654-19.574-3.492-.297-7.116-.585-10.513.478-.977.305-2.366 1.062-3.254.139-.399-.385-.478-.98-.224-1.449l.03-.049c-.004-.047.002-.093.018-.14l.033-.071c.551-.97 1.545-1.188 2.586-1.312 1.859-.218 3.732-.3 5.61-.336 1.152-.022 3.325-.304 4.768.201-1.348-3.592-2.748-7.164-4.198-10.718-.081-.201-.075-.377-.01-.52-.242-.307-.487-.612-.737-.915-1.818-2.203-3.79-4.275-5.902-6.199-.516-.47-1.063-.944-1.57-1.378-.509-.433-1.156-1.177-1.769-1.434-.78-.313-1.823.356-2.557.726zM72.423 33.469c-1.95.183-3.906.018-5.862.257-1.833.224-3.608.723-5.169 1.64l-.177.108.422-.161c1.29-.473 2.643-.769 4.02-.876l.46-.029c1.345-.056 2.682.131 4.027.11.716-.007 1.632-.022 2.297-.35 1.712-.842.52-.75-.018-.699zm28.61-5.255c-1.06-.012-2.12.003-3.177.036-1.058.034-2.1.093-3.172.177-1.022.081-2.607-.013-3.288.916l-.068.104v.034c-.005.046-.02.091-.043.136l-.043.065c.41.72.904.929 1.486.626.29-.11.58-.213.873-.313.505-.165 1.02-.302 1.54-.413.93-.195 1.874-.32 2.823-.375 2.222-.143 4.452.039 6.672.224l-.392-.033v-.028l-.18-.478c-.548-.832-2.121-.667-3.031-.678zm-9.702 1.2c-.015-.314-.395-.58-.633-.276h.013l-.084.108-.042.065.009.061c.073.292.518.453.707.118l.006-.01.004-.007.017-.026h.001l.002-.034z"/>
        <path fill="url(#prefix__b)" d="M71.41 47.323c.328-.18.618.32.292.497-1.265.695-2.657 1.125-4.094 1.265-.37.036-.364-.541 0-.577 1.335-.134 2.628-.537 3.801-1.185zm-3.33-5.42c1.304-.664 2.118-.846 3.522-.382 1.57.529 3.068 1.251 4.46 2.15l-.008.01c.419.265.031.922-.387.665l-.285-.18c.007.096-.03.194-.128.278-1.484 1.267-3.234 2.004-5.048 2.66-1.887.683-3.85 1.358-5.823.627-.462-.172-.262-.917.202-.745 1.276.475 2.544.297 3.785-.069-1.519-.09-2.953-.954-3.05-2.492-1.719 1.145-3.323 2.454-4.792 3.911-.352.349-.898-.195-.544-.544 2.38-2.368 5.11-4.354 8.097-5.889zm3.524.444c-.708-.255-1.33-.401-2.006-.246.459-.03.912.037 1.347.257 1.29.649 1.38 2.109.61 3.215-.067.098-.141.191-.22.279 1.208-.497 2.363-1.09 3.375-1.952.036-.031.074-.054.112-.07-1.023-.591-2.1-1.088-3.218-1.483zm30.068.395c.318-.197.608.303.293.498-1.64 1.034-3.635 1.342-5.51.85-.141-.053-.219-.205-.179-.35.04-.144.185-.235.332-.207 1.725.453 3.56.167 5.064-.79zM68.566 39.99c2.597-.349 5.35.529 7.879 1.027.487.097.28.841-.203.744-2.438-.49-5.082-1.335-7.571-1.004-2.356.316-4.383 1.691-6.31 2.99-.411.277-.796-.39-.388-.665 2.01-1.355 4.137-2.763 6.593-3.092zM98.2 36.5c3.3-.754 6.731 1.404 9.495 2.967.175.11.231.34.127.519-.104.179-.332.243-.514.145-1.629-.92-3.562-2.119-5.534-2.69.198.465.126 1.08.013 1.528-.449 1.812-2.44 2.938-4.221 2.822l-.045-.007-.058-.005c-1.241-.228-2.69-1.485-2.307-2.869l.049-.149c.02-.054.042-.106.067-.157-.967.631-1.823 1.429-2.526 2.36 1.355 1.813 4.094 1.394 6.07 1.184 2.24-.241 3.877-.983 5.266-2.779.297-.38.967-.002.664.39-1.568 2.045-3.364 2.902-5.93 3.159-2.243.232-4.914.523-6.52-1.302l-.086.134h-.018c-.265.419-.922.031-.665-.39 1.517-2.391 3.888-4.223 6.673-4.86zm-.485-1.544c2.72-.323 5.597.685 8.212 1.268.482.107.277.849-.205.741-2.577-.575-5.497-1.637-8.154-1.203-2.343.37-3.57 2.55-5.718 3.335l-.012.01c-.462.173-.665-.572-.206-.741 2.31-.844 3.475-3.097 6.083-3.41z"/>
        <path fill="#159E49" d="M100.281 37.346l.087.088c.096.103.24.145.377.11.137-.035.243-.141.278-.278.035-.136-.008-.28-.11-.376l-.088-.088c-.152-.146-.392-.146-.544 0-.149.151-.149.394 0 .544z"/>
        <path fill="#169F4A" d="M87.667 55.9c.927-.238 2.153-.551 2.923-1.154.256-.211.398-.53.382-.862-.015-.331-.186-.636-.461-.822-1.594-1.175-3.239.77-3.678 2.145-.151.473.593.675.744.203.272-.852 1.048-2.153 2.156-1.863.257 0 .339.134.22.39.075.236 0 .375-.222.41-.234.142-.485.252-.747.327-.496.191-1.004.352-1.52.482-.205.056-.326.268-.27.474.056.205.268.326.473.27zM82.722 55.836c-.53.122-1.083.114-1.61-.023-.325-.085-1.475-.434-.77-.831.462-.257 1.025-.248 1.478.023.453.27.728.763.72 1.29 0 .493.77.496.77 0-.044-1.816-2.084-2.968-3.593-1.819-.79.603-.568 1.232.2 1.673.914.514 1.986.667 3.008.431.482-.105.277-.847-.206-.744h.003z"/>
        <path fill="url(#prefix__c)" d="M79.088 47.64c.21-.448.872-.058.665.388-.78 1.666-1.404 3.402-1.864 5.183-.2.806-.513 1.748-.513 2.582.008 1.472 1.155 1.662 2.246 2.083.456.18.256.921-.206.744-1.809-.71-3.082-1.165-2.75-3.336.443-2.652 1.26-5.229 2.424-7.654zm11.247-1.286c.18-.104.409-.048.52.127 1.242 2.13 2.55 4.37 2.866 6.859.28 2.204-.826 3.32-2.743 4.18-.45.2-.84-.465-.39-.665.926-.416 1.996-.888 2.333-1.943.297-.923-.034-2.073-.29-2.976-.534-1.809-1.497-3.449-2.441-5.068-.098-.182-.034-.41.145-.514z"/>
        <path fill="url(#prefix__d)" d="M99.775 68.116c-4.165-1.252-8.335-1.054-12.613-.618-1.923.198-3.976.223-5.854.708-1.7.436-3.08 1.52-4.427 2.6-.385.31.161.851.546.543 1.497-1.203 2.97-2.252 4.91-2.565 1.94-.313 3.865-.424 5.787-.611 3.883-.382 7.671-.45 11.446.685.477.144.68-.6.205-.742z"/>
        <path fill="url(#prefix__e)" d="M97.135 68.701c-4.996 3.786-11.717 4.384-17.303 1.54-.439-.226-.829.439-.387.665 5.89 3.006 12.985 2.358 18.234-1.666.392-.302-.157-.844-.544-.544v.005z"/>
        <path fill="#169F49" d="M102.434 63.136c-.167.151-.416.039-.554-.092-.094-.093-.172-.2-.231-.318-.028-.057-.051-.119-.082-.175-.013-.024-.023-.05-.029-.077 0-.059-.023-.049-.033.033.233-.015.461.07.626.235.166.165.253.392.239.625-.023.495.747.495.77 0 .018-.566-.268-1.1-.75-1.398-.446-.288-1.283-.403-1.56.159-.256.513.229 1.247.614 1.555.44.384 1.098.384 1.54 0 .369-.329-.178-.873-.547-.544l-.003-.003z"/>
        <path fill="#159E49" d="M79.842 94.424c1.272 1.377 2.334 2.933 3.152 4.619.215.446.88.056.665-.387-.85-1.746-1.952-3.356-3.273-4.778-.336-.364-.88.18-.544.544v.002zM82.873 102.794l1.399 4.893c.07.189.272.292.466.238.194-.053.314-.245.278-.443l-1.398-4.89c-.056-.206-.268-.327-.474-.271-.205.056-.327.268-.27.473zM99.208 92.816l-.967 2.414c-.183.46.562.66.744.205l.965-2.417c.185-.459-.56-.66-.742-.202z"/>
        <path fill="url(#prefix__f)" d="M98.954 67.5c-2.132-1.364-4.309-2.655-6.542-3.848-.667-.357-1.668-1.186-2.484-1.075-.33.043-.564.318-.847.472-.502.296-1.064.477-1.645.531-.988.085-1.78-.536-2.702-.482-.852.046-1.617.89-2.207 1.416-1.63 1.46-3.06 3.13-4.253 4.965-.272.416.396.803.665.39 1.157-1.78 2.544-3.399 4.124-4.816.362-.324.803-.816 1.232-1.009.706-.318.983 0 1.578.157.68.191 1.394.222 2.087.09.739-.144 1.404-.77 2.094-.83.84-.081 2.053.889 2.797 1.304 1.94 1.068 3.85 2.207 5.708 3.4.418.257.803-.398.387-.664h.008z"/>
        <path fill="url(#prefix__g)" d="M105.342 83.981c.224 4.866 1.128 9.677 2.684 14.292.157.467.901.257.742-.205-1.538-4.548-2.432-9.289-2.656-14.084-.023-.493-.793-.495-.77 0v-.003z"/>
        <path fill="url(#prefix__h)" d="M65.422 85.351l.328 8.658c.018.492.788.495.77 0l-.328-8.658c-.018-.495-.788-.497-.77 0z"/>
        <path fill="url(#prefix__i)" d="M98.9 133.988c-6.654 1.283-13.668.936-20.413.89-.99 0-.99 1.54 0 1.54 6.894.046 14.023.361 20.821-.947.973-.188.562-1.67-.408-1.483z"/>
        <path fill="#159E49" d="M108.814 32.266c.817 1.43 1.47 2.947 1.943 4.524.052.14.204.218.349.178.145-.04.235-.185.208-.332-.484-1.623-1.15-3.187-1.987-4.66-.08-.142-.26-.192-.401-.112-.142.08-.192.26-.112.402zM111.504 39.312l.713 2.148c.116.351.675.2.557-.154l-.713-2.148c-.118-.35-.675-.2-.557.154zM108.53 114.777c.029-1.358.144-2.713.346-4.057.074-.485-.668-.692-.742-.205-.216 1.411-.34 2.835-.375 4.262 0 .495.77.495.77 0z"/>
        <ellipse cx="68.779" cy="44.39" fill="#1C2124" rx="1.027" ry="1.026"/>
        <ellipse cx="98.549" cy="39.001" fill="#1C2124" rx="1.027" ry="1.026"/>
    </g>
</svg>
