<svg width="565" height="648" viewBox="0 0 565 648" fill="none" xmlns="http://www.w3.org/2000/svg">
<path d="M565 -70.9457C553.541 -83.8992 541.455 -95.2127 528.871 -104.767C508.56 -120.146 486.05 -125.386 464.02 -119.865C447.66 -115.541 431.726 -107.489 416.657 -95.9333C404.398 -86.783 392.809 -75.4857 381.094 -64.7868C369.194 -53.4756 356.923 -43.3119 344.338 -34.3445C328.893 -23.5025 312.205 -18.5968 295.49 -19.9854C284.281 -20.9835 273.181 -24.1845 262.415 -29.523C245.536 -38.1974 228.122 -43.5937 210.513 -45.6065C197.14 -46.9378 183.729 -46.7732 170.368 -45.1137C151.819 -42.7385 133.473 -37.04 115.642 -28.1151C93.8578 -17.7677 73.2243 -1.50541 54.5558 20.0297C38.8622 37.8463 25.5988 61.0711 15.6449 88.1646C7.57432 110.42 2.4776 135.362 0.708166 161.262C-1.96957 202.016 3.15579 240.483 12.5488 277.401C24.494 324.56 41.3973 366.546 60.8318 405.787C73.0541 429.955 86.1393 452.85 100.015 474.344C112.755 494.475 126.269 513.057 140.097 531.217C162.691 560.674 186.121 588.161 210.053 614.415C230.785 637.115 251.893 658.935 272.917 680.72C289.339 697.718 305.782 714.646 322.727 729.991C336.911 742.907 351.241 755.366 365.885 766.769C381.763 779.122 397.85 790.665 414.231 801.012C439.552 817.137 465.614 829.755 492.157 838.739C508.63 844.455 525.313 848.3 542.093 850.248C549.703 851.562 557.351 852.138 565 851.972V-70.9457Z" fill="url(#paint0_linear)" fill-opacity="0.2"/>
<defs>
<linearGradient id="paint0_linear" x1="282.5" y1="-122" x2="282.5" y2="852" gradientUnits="userSpaceOnUse">
<stop stop-color="#A5000A"/>
<stop offset="0.807292" stop-color="#FF0110" stop-opacity="0"/>
</linearGradient>
</defs>
</svg>
