<svg width="83" height="92" viewBox="0 0 83 92" fill="none" xmlns="http://www.w3.org/2000/svg">
<path d="M35.9196 34.7697C31.9856 38.6612 27.0252 40.6069 21.0386 40.6069C15.052 40.6069 10.0489 38.6612 6.02937 34.7697C2.00979 30.7936 0 25.9715 0 20.3035C0 14.6354 2.00979 9.85564 6.02937 5.96414C10.0489 1.98805 15.052 0 21.0386 0C27.0252 0 31.9856 1.94575 35.9196 5.83724C39.9392 9.72874 41.949 14.5508 41.949 20.3035C41.949 25.9715 39.9392 30.7936 35.9196 34.7697ZM20.9104 29.44C23.6471 29.44 25.8707 28.5517 27.5811 26.7752C29.2916 24.9986 30.1468 22.8414 30.1468 20.3035C30.1468 17.6809 29.2916 15.4814 27.5811 13.7048C25.8707 11.9283 23.6471 11.04 20.9104 11.04C18.2591 11.04 16.0783 11.9283 14.3679 13.7048C12.6574 15.4814 11.8022 17.6809 11.8022 20.3035C11.8022 22.8414 12.6574 24.9986 14.3679 26.7752C16.0783 28.5517 18.2591 29.44 20.9104 29.44ZM7 75L67 10L74 17L15 82L7 75ZM62.0896 92C56.103 92 51.0999 90.0543 47.0804 86.1628C43.0608 82.1867 41.051 77.3646 41.051 71.6966C41.051 66.0285 43.0608 61.2487 47.0804 57.3572C51.0999 53.3811 56.103 51.3931 62.0896 51.3931C67.9907 51.3931 72.9511 53.3811 76.9706 57.3572C80.9902 61.2487 83 66.0285 83 71.6966C83 77.3646 80.9902 82.1867 76.9706 86.1628C72.9511 90.0543 67.9907 92 62.0896 92ZM61.9614 80.8331C64.6981 80.8331 66.9217 79.9448 68.6321 78.1683C70.3426 76.3917 71.1978 74.2345 71.1978 71.6966C71.1978 69.074 70.3426 66.8745 68.6321 65.0979C66.9217 63.3214 64.6981 62.4331 61.9614 62.4331C59.3102 62.4331 57.1293 63.3214 55.4189 65.0979C53.7084 66.8745 52.8532 69.074 52.8532 71.6966C52.8532 74.2345 53.7084 76.3917 55.4189 78.1683C57.1293 79.9448 59.3102 80.8331 61.9614 80.8331Z" fill="url(#paint0_linear)"/>
<defs>
<linearGradient id="paint0_linear" x1="41.5" y1="0" x2="41.5" y2="92" gradientUnits="userSpaceOnUse">
<stop offset="0.171875" stop-color="#FF0110"/>
<stop offset="0.854167" stop-color="#A5000A"/>
</linearGradient>
</defs>
</svg>
