<svg xmlns="http://www.w3.org/2000/svg" width="205" height="97" viewBox="0 0 205 97">
    <defs>
        <linearGradient id="uz5y8xj5ra" x1="-4.021%" x2="103.971%" y1="54.573%" y2="33.141%">
            <stop offset="0%" stop-color="#142F8D"/>
            <stop offset="10%" stop-color="#163391"/>
            <stop offset="19%" stop-color="#1A3D9D"/>
            <stop offset="28%" stop-color="#224FB1"/>
            <stop offset="38%" stop-color="#2E68CD"/>
            <stop offset="47%" stop-color="#3C87F1"/>
            <stop offset="51%" stop-color="#4294FF"/>
            <stop offset="61%" stop-color="#3272D8"/>
            <stop offset="72%" stop-color="#2555B8"/>
            <stop offset="82%" stop-color="#1C40A0"/>
            <stop offset="92%" stop-color="#163392"/>
            <stop offset="100%" stop-color="#142F8D"/>
        </linearGradient>
        <linearGradient id="14yh7tn1eb" x1="54.427%" x2="45.058%" y1="-5.713%" y2="111.391%">
            <stop offset="0%" stop-color="#FFBE1E"/>
            <stop offset="52%" stop-color="#FF47C3"/>
            <stop offset="57%" stop-color="#EE42BD"/>
            <stop offset="67%" stop-color="#C235AE"/>
            <stop offset="81%" stop-color="#7B1F95"/>
            <stop offset="99%" stop-color="#1B0274"/>
            <stop offset="100%" stop-color="#130071"/>
        </linearGradient>
        <linearGradient id="h22bqb9fbc" x1="55.039%" x2="47.988%" y1="106.359%" y2="-7.413%">
            <stop offset="0%" stop-color="#3D003B"/>
            <stop offset="55%" stop-color="#FF47C3"/>
            <stop offset="63%" stop-color="#EE43B3"/>
            <stop offset="79%" stop-color="#C23889"/>
            <stop offset="100%" stop-color="#7F2849"/>
        </linearGradient>
        <linearGradient id="qj4eafwwtd" x1="53.997%" x2="38.896%" y1="104.235%" y2="-5.445%">
            <stop offset="0%" stop-color="#1A52C5"/>
            <stop offset="9%" stop-color="#1B56C7"/>
            <stop offset="17%" stop-color="#2062CC"/>
            <stop offset="26%" stop-color="#2776D4"/>
            <stop offset="34%" stop-color="#3292E0"/>
            <stop offset="43%" stop-color="#3FB6EF"/>
            <stop offset="50%" stop-color="#4DDAFF"/>
            <stop offset="54%" stop-color="#46C7F7"/>
            <stop offset="64%" stop-color="#369DE5"/>
            <stop offset="74%" stop-color="#2A7DD7"/>
            <stop offset="84%" stop-color="#2165CD"/>
            <stop offset="92%" stop-color="#1C57C7"/>
            <stop offset="100%" stop-color="#1A52C5"/>
        </linearGradient>
    </defs>
    <g fill="none" fill-rule="evenodd">
        <g fill-rule="nonzero">
            <g>
                <g>
                    <path fill="#1958C4" d="M30.646 11.64c2.034 1.032 2.553 3.485 1.159 5.49l-8.633 12.388c-1.385 2.001-3.997 2.735-6.222 1.75l-12.608-6.4c-2.041-1.032-2.56-3.492-1.16-5.49l8.612-12.36c1.387-1.998 3.995-2.734 6.223-1.756l12.629 6.379z" transform="translate(-760 -5767) translate(760 5767) translate(0 65)"/>
                    <path fill="url(#uz5y8xj5ra)" d="M31.705 12.437c.05.057.1.107.143.164.094.117.18.24.256.37.051.073.099.149.142.227l-2.41-4.807-.065-.12c0-.043-.057-.072-.078-.107-.076-.128-.16-.251-.249-.37 0 0-.043-.064-.071-.093l-.078-.07c-.1-.11-.207-.212-.32-.307-.05-.046-.101-.089-.157-.128-.175-.138-.363-.26-.561-.362L15.64.434C15.473.35 15.3.28 15.122.22l-.135-.042c-.163-.051-.33-.092-.498-.121h-.042C14.21.023 13.974.004 13.736 0h-.107c-.183.001-.366.013-.548.036h-.128l-.405.078h-.156c-.15.037-.297.082-.441.135h-.057c-.176.064-.347.14-.512.227h-.121c-.199.106-.39.222-.576.349l-.192.142-.15.114-.198.178-.136.128-.192.206-.113.12-.278.356L.78 14.457c-.86 1.128-1.02 2.64-.42 3.925l2.404 4.807c-.598-1.286-.433-2.797.427-3.925l8.604-12.245.278-.356.1-.107.205-.22.128-.12.207-.186.149-.114.2-.149c.184-.127.377-.243.575-.348l.114-.057c.168-.086.342-.162.519-.228h.071c.145-.052.292-.097.44-.135l.157-.035.406-.079h.12c.185-.01.37-.01.555 0h.107c.238.005.475.024.711.057h.043c.168.03.334.07.498.121l.135.043c.177.06.35.13.519.213l12.615 6.4c.197.103.385.222.562.356l.156.135c.118.068.232.144.341.227z" transform="translate(-760 -5767) translate(760 5767) translate(0 65)"/>
                    <path fill="#FFF" d="M24.708 17.166l-1.422-.71c-1.095-.57-1.643-.2-2.133.497l-1.074 1.55 2.61 1.358-2.027 2.247-2.269-1.187-4.323 6.215-2.724-1.422 4.324-6.208-2.247-1.238 1.685-2.424 2.283 1.187 1.237-1.785c1.17-1.928 3.671-2.56 5.618-1.422.678.345 1.336.73 1.97 1.152l-1.508 2.19z" transform="translate(-760 -5767) translate(760 5767) translate(0 65)"/>
                </g>
                <g>
                    <path fill="url(#14yh7tn1eb)" d="M25.531 1.08c2.54-2 6-1.13 7.67 1.86l10.47 18.49c1.725 2.98 1.072 6.767-1.55 9l-15.73 12.08c-2.55 2-6 1.14-7.67-1.85L8.251 22.18c-1.718-2.98-1.071-6.762 1.54-9l15.74-12.1z" transform="translate(-760 -5767) translate(760 5767) translate(56 1)"/>
                    <path fill="url(#h22bqb9fbc)" d="M27.171.24l.3-.08c.2-.048.405-.082.61-.1.127-.01.254-.01.38 0l-7.56.14h-.38c-.205.018-.41.052-.61.1h-.16l-.14.05c-.199.061-.393.138-.58.23l-.26.11c-.284.14-.552.312-.8.51L2.231 13.36c-.207.16-.401.337-.58.53l-.14.15c-.17.172-.323.36-.46.56-.188.266-.355.547-.5.84v.08c-.11.24-.21.48-.3.73v.13l-.15.56v.22c0 .21-.07.42-.09.64v.08c-.015.263-.015.526 0 .79v.18c.01.318.04.635.09.95 0 .11 0 .22.07.33l.06.27c0 .11.07.23.1.35.03.12.05.16.08.25s.1.25.15.37l.08.21c.085.195.182.386.29.57l10.47 18.49c.914 1.773 2.735 2.893 4.73 2.91l7.56-.14c-1.995-.025-3.814-1.148-4.73-2.92L8.251 22.18c-.11-.19-.2-.38-.29-.57-.027-.059-.05-.119-.07-.18-.06-.14-.11-.27-.16-.41-.028-.08-.051-.16-.07-.24 0-.12-.08-.24-.11-.36l-.06-.27c0-.11 0-.22-.07-.34-.05-.31-.07-.62-.09-.94v-.18c-.015-.264-.015-.527 0-.79v-.11c.019-.216.052-.43.1-.64v-.22l.15-.56.06-.17c.08-.247.177-.487.29-.72l.06-.13c.145-.296.312-.58.5-.85.142-.196.296-.383.46-.56.042-.052.089-.099.14-.14.179-.193.373-.37.58-.53l15.86-12.19c.248-.195.517-.363.8-.5.084-.047.17-.087.26-.12.188-.089.382-.162.58-.22z" transform="translate(-760 -5767) translate(760 5767) translate(56 1)"/>
                    <path fill="#FFF" d="M24.471 17.22c-2.43 1.985-3.117 5.411-1.64 8.18.663 1.238 1.848 2.112 3.227 2.38 1.379.267 2.805-.1 3.883-1 2.45-1.967 3.155-5.397 1.68-8.17-.66-1.254-1.852-2.14-3.242-2.41s-2.827.105-3.908 1.02zm4.49 7.88c-.696.597-1.627.843-2.528.668-.9-.176-1.671-.753-2.092-1.569-.962-1.798-.503-4.027 1.09-5.3.696-.593 1.625-.837 2.522-.662.898.175 1.667.75 2.088 1.562.96 1.797.507 4.023-1.08 5.3zm1-12.38c.348.644.184 1.444-.39 1.9-.25.214-.584.302-.907.24-.323-.063-.6-.269-.753-.56-.345-.648-.181-1.45.39-1.91.253-.21.587-.295.909-.23.322.063.598.269.751.56zm3.55-1.12c-.432-.765-1.001-1.443-1.68-2-.555-.454-1.215-.76-1.92-.89-.707-.144-1.44-.11-2.13.1-.836.249-1.622.645-2.32 1.17-.94.66-1.24.87-3.56 2.67-2.32 1.8-2.61 2-3.5 2.78-.71.567-1.327 1.242-1.83 2-.441.685-.747 1.449-.9 2.25-.175.792-.192 1.61-.05 2.41.153.895.45 1.76.88 2.56.53 1 .7 1.35 2.13 3.88s1.63 2.84 2.24 3.8c.44.744 1.009 1.405 1.68 1.95.562.446 1.225.748 1.93.88.704.141 1.431.11 2.12-.09.84-.254 1.629-.653 2.33-1.18.93-.66 1.23-.87 3.56-2.66s2.6-2 3.49-2.78c.712-.566 1.33-1.241 1.83-2 .895-1.374 1.251-3.03 1-4.65-.16-.899-.46-1.766-.89-2.57-.52-1-.69-1.35-2.13-3.88s-1.67-2.79-2.28-3.75zm2.79 8.78c.333.625.562 1.3.68 2 .11.514.11 1.045 0 1.56-.095.521-.295 1.018-.59 1.46-.378.59-.851 1.113-1.4 1.55-.88.74-1.14 1-3.43 2.72-2.29 1.72-2.56 2-3.49 2.62-.529.407-1.129.712-1.77.9-.447.137-.921.161-1.38.07-.457-.091-.885-.29-1.25-.58-.51-.42-.94-.928-1.27-1.5-.6-1-.78-1.24-2.19-3.72-1.41-2.48-1.58-2.79-2.09-3.8-.333-.61-.566-1.268-.69-1.95-.1-.52-.1-1.052 0-1.57.093-.52.294-1.014.59-1.45.38-.59.852-1.114 1.4-1.55.88-.74 1.15-1 3.43-2.73 2.28-1.73 2.56-2 3.49-2.61.534-.402 1.133-.71 1.77-.91.908-.253 1.882-.064 2.63.51.51.423.942.93 1.28 1.5.6.95.77 1.24 2.19 3.73s1.62 2.74 2.09 3.75z" transform="translate(-760 -5767) translate(760 5767) translate(56 1)"/>
                </g>
                <g>
                    <path fill="#217DE3" d="M23.428 3.976C25.58.39 30.249-.054 33.732 2.763l21.509 17.479c3.468 2.802 4.463 7.67 2.374 11.608L44.27 54.024c-2.152 3.587-6.717 4.213-10.187 1.396L12.576 37.942c-3.427-2.077-4.579-7.85-2.492-11.792L23.428 3.976z" transform="translate(-760 -5767) translate(760 5767) translate(146)"/>
                    <path fill="url(#qj4eafwwtd)" d="M25.45 2.111c.225-.15.46-.285.704-.404.143-.086.291-.164.443-.235l-9.13 3.77-.235.104-.209.13c-.244.122-.48.262-.704.418-.06.03-.116.065-.17.104l-.156.13c-.21.173-.41.356-.6.548l-.26.261c-.272.31-.517.641-.731.992L1.058 30.103c-.17.294-.323.6-.456.913 0 .09 0 .17-.105.247-.104.3-.208.6-.287.9v.066c-.093.43-.158.865-.195 1.304v.117c-.02.34-.02.679 0 1.018v.17c0 .051 0 .508.091.756-.006.052-.006.104 0 .156v.13c0 .275.117.549.183.823.006.038.006.078 0 .117.093.328.206.65.339.965v.104c-.005.04-.005.079 0 .118.159.38.342.751.548 1.109l.234.365.196.287c.093.131.193.258.3.378l.209.274c.11.132.228.258.352.378.078.078.13.157.209.222.194.193.399.376.613.548L24.81 59.046c1.948 1.723 4.69 2.225 7.122 1.304l9.13-3.77c-2.436.921-5.181.42-7.134-1.304L12.419 37.798c-.214-.172-.418-.355-.613-.548-.058-.064-.119-.125-.183-.182l-.39-.418-.197-.26c-.107-.125-.207-.256-.3-.392l-.195-.3c-.09-.12-.173-.247-.248-.378-.208-.354-.395-.72-.56-1.096 0-.078-.066-.143-.092-.221-.135-.319-.248-.646-.34-.979v-.13c-.078-.274-.13-.548-.182-.822-.052-.274 0-.196 0-.287-.039-.25-.065-.503-.078-.756-.007-.079-.007-.157 0-.235-.02-.339-.02-.679 0-1.018v-.182c.03-.44.095-.876.195-1.305v-.078c.079-.3.183-.6.287-.9 0-.078.066-.156.105-.248.128-.315.28-.62.456-.913L23.428 3.976c.214-.35.459-.682.73-.99l.261-.262c.228-.133.464-.255.704-.365l.326-.248z" transform="translate(-760 -5767) translate(760 5767) translate(146)"/>
                    <path fill="#FFF" d="M37.215 16.25l.56.444c5.714 4.617 8.87 14.178 2.61 21.926-1.86 2.292-4.35 3.992-7.162 4.891.3-.3.587-.613.874-.952 1.538-1.906 2.376-4.281 2.374-6.73-1.523 1.788-4.023 2.393-6.195 1.5.267-.214.508-.46.717-.73.305-.374.56-.787.756-1.227-2.034 1.648-4.944 1.648-6.978 0 .807-.31 1.524-.817 2.087-1.474-1.77.525-3.685.14-5.113-1.03-.767-.613-1.357-1.419-1.709-2.335 4.406.043 8.616-1.821 11.544-5.113-.378-.196-.736-.428-1.07-.691-2.373-1.881-2.78-5.326-.913-7.71.967-1.18 2.389-1.896 3.913-1.969.574-1.1.954-2.292 1.122-3.521.738 1.114 1.053 2.456.887 3.782.584-.919 1.024-1.922 1.304-2.974.356 1.272.489 2.596.392 3.913z" transform="translate(-760 -5767) translate(760 5767) translate(146)"/>
                </g>
            </g>
        </g>
    </g>
</svg>
