<svg width="87" height="72" viewBox="0 0 87 72" fill="none" xmlns="http://www.w3.org/2000/svg">
<path d="M5.33375 31.3562L57.1567 9.98538C62.2723 7.75925 79.6208 0.63564 79.6208 0.63564C79.6208 0.63564 87.6277 -2.48094 86.9605 5.0879C86.7381 8.20448 84.9588 19.1125 83.1794 30.911L77.619 65.8612C77.619 65.8612 77.1742 70.9813 73.3931 71.8718C69.612 72.7622 63.3844 68.7552 62.2723 67.8647C61.3826 67.1969 45.5911 57.1793 39.8083 52.2818C38.2514 50.9462 36.472 48.2748 40.0307 45.1582C48.0377 37.812 57.6016 28.6849 63.3844 22.8969C66.0534 20.2256 68.7224 13.9924 57.6016 21.5612L26.2409 42.7095C26.2409 42.7095 22.6822 44.9356 16.0097 42.9321C9.33724 40.9286 1.55267 38.2572 1.55267 38.2572C1.55267 38.2572 -3.78532 34.918 5.33375 31.3562Z" fill="url(#paint0_linear)"/>
<defs>
<linearGradient id="paint0_linear" x1="43.5" y1="0" x2="43.5" y2="72" gradientUnits="userSpaceOnUse">
<stop offset="0.171875" stop-color="#FF0110"/>
<stop offset="0.854167" stop-color="#A5000A"/>
</linearGradient>
</defs>
</svg>
