<svg width="30" height="830" viewBox="0 0 30 830" fill="none" xmlns="http://www.w3.org/2000/svg">
<rect width="602" height="4.00008" rx="2" transform="matrix(-1.31134e-07 1 1 1.31134e-07 13 3)" fill="url(#paint0_linear)"/>
<rect x="13" y="830" width="225" height="4.00001" rx="2" transform="rotate(-90 13 830)" fill="url(#paint1_linear)"/>
<circle cx="15" cy="15" r="15" fill="url(#paint2_linear)" fill-opacity="0.2"/>
<circle cx="15" cy="15" r="12" fill="url(#paint3_linear)"/>
<circle cx="15" cy="201" r="15" fill="url(#paint4_linear)" fill-opacity="0.2"/>
<circle cx="15" cy="201" r="12" fill="url(#paint5_linear)"/>
<circle cx="15" cy="403" r="15" fill="url(#paint6_linear)" fill-opacity="0.2"/>
<circle cx="15" cy="403" r="12" fill="url(#paint7_linear)"/>
<circle cx="15" cy="605" r="15" fill="url(#paint8_linear)" fill-opacity="0.2"/>
<circle cx="15" cy="605" r="12" fill="url(#paint9_linear)"/>
<defs>
<linearGradient id="paint0_linear" x1="301" y1="0" x2="301" y2="4.00008" gradientUnits="userSpaceOnUse">
<stop offset="0.171875" stop-color="#FF0110"/>
<stop offset="0.854167" stop-color="#A5000A"/>
</linearGradient>
<linearGradient id="paint1_linear" x1="263.515" y1="829.055" x2="260.742" y2="858.728" gradientUnits="userSpaceOnUse">
<stop offset="0.223958" stop-color="#C40000" stop-opacity="0.8"/>
<stop offset="0.817708" stop-color="#FF0110" stop-opacity="0"/>
</linearGradient>
<linearGradient id="paint2_linear" x1="15" y1="0" x2="15" y2="30" gradientUnits="userSpaceOnUse">
<stop offset="0.171875" stop-color="#FF0110"/>
<stop offset="0.854167" stop-color="#A5000A"/>
</linearGradient>
<linearGradient id="paint3_linear" x1="15" y1="3" x2="15" y2="27" gradientUnits="userSpaceOnUse">
<stop offset="0.171875" stop-color="#FF0110"/>
<stop offset="0.854167" stop-color="#A5000A"/>
</linearGradient>
<linearGradient id="paint4_linear" x1="15" y1="186" x2="15" y2="216" gradientUnits="userSpaceOnUse">
<stop offset="0.171875" stop-color="#FF0110"/>
<stop offset="0.854167" stop-color="#A5000A"/>
</linearGradient>
<linearGradient id="paint5_linear" x1="15" y1="189" x2="15" y2="213" gradientUnits="userSpaceOnUse">
<stop offset="0.171875" stop-color="#FF0110"/>
<stop offset="0.854167" stop-color="#A5000A"/>
</linearGradient>
<linearGradient id="paint6_linear" x1="15" y1="388" x2="15" y2="418" gradientUnits="userSpaceOnUse">
<stop offset="0.171875" stop-color="#FF0110"/>
<stop offset="0.854167" stop-color="#A5000A"/>
</linearGradient>
<linearGradient id="paint7_linear" x1="15" y1="391" x2="15" y2="415" gradientUnits="userSpaceOnUse">
<stop offset="0.171875" stop-color="#FF0110"/>
<stop offset="0.854167" stop-color="#A5000A"/>
</linearGradient>
<linearGradient id="paint8_linear" x1="15" y1="590" x2="15" y2="620" gradientUnits="userSpaceOnUse">
<stop offset="0.171875" stop-color="#FF0110"/>
<stop offset="0.854167" stop-color="#A5000A"/>
</linearGradient>
<linearGradient id="paint9_linear" x1="15" y1="593" x2="15" y2="617" gradientUnits="userSpaceOnUse">
<stop offset="0.171875" stop-color="#FF0110"/>
<stop offset="0.854167" stop-color="#A5000A"/>
</linearGradient>
</defs>
</svg>
