<svg xmlns="http://www.w3.org/2000/svg" xmlns:xlink="http://www.w3.org/1999/xlink" width="1240" height="324" viewBox="0 0 1240 324">
    <defs>
        <radialGradient id="prefix__d" cx="50%" cy="50%" r="114.316%" fx="50%" fy="50%" gradientTransform="scale(.26129 1) rotate(7.939 1.207 10.685)">
            <stop offset="0%" stop-color="#0E1112" stop-opacity=".07"/>
            <stop offset="100%" stop-color="#0E1112" stop-opacity=".9"/>
        </radialGradient>
        <linearGradient id="prefix__c" x1="50%" x2="50%" y1="0%" y2="100%">
            <stop offset="0%" stop-color="#97F3B3" stop-opacity=".072"/>
            <stop offset="100%" stop-color="#5EE27C" stop-opacity="0"/>
        </linearGradient>
        <rect id="prefix__a" width="1240" height="324" x="0" y="0"/>
    </defs>
    <g fill="none" fill-rule="evenodd">
        <mask id="prefix__b" fill="#fff">
            <use xlink:href="#prefix__a"/>
        </mask>
        <use fill="#0E1112" xlink:href="#prefix__a"/>
        <g mask="url(#prefix__b)" opacity=".8">
            <g>
                <path fill="url(#prefix__c)" d="M0 112.654c17.35-28.241 37.087-42.362 59.208-42.362 44.335 0 43.715 55.328 118.094 55.328 63.122 0 63.122 54.583 118.74 54.583 61.732 0 61.732-54.583 118.416-54.583 59.209 0 59.209 102.11 118.417 102.11s66.044-60.124 118.417-60.124c66.914 0 66.914-66.534 118.416-66.534C832.898 101.072 832.898 0 888.125 0c59.49 0 43.682 112.654 118.417 112.654 79.124 0 52.239 54.952 118.416 54.952 60.887 0 60.887-38.738 118.417-38.738 72.932 0 51.164-54.065 118.417-54.065 15.387 0 35.123-13.541 59.208-40.624V696.6H0" transform="translate(0 44.862)"/>
                <path id="ref-bg-path" stroke="#43C056" stroke-width="3" d="M0 113.209c17.35-28.38 37.087-42.571 59.208-42.571 44.335 0 43.715 55.6 118.094 55.6 63.122 0 63.122 54.852 118.74 54.852 61.732 0 61.732-54.851 118.416-54.851 59.209 0 59.209 102.612 118.417 102.612s66.044-60.42 118.417-60.42c66.914 0 66.914-66.862 118.416-66.862C832.898 101.57 832.898 0 888.125 0c59.49 0 43.682 113.209 118.417 113.209 79.124 0 52.239 55.223 118.416 55.223 60.887 0 60.887-38.93 118.417-38.93 72.932 0 51.164-54.33 118.417-54.33 15.387 0 35.123-13.609 59.208-40.825" transform="translate(0 44.862)"/>
            </g>
        </g>
        <rect width="1240" height="324" fill="url(#prefix__d)"/>
    </g>
</svg>
