<svg width="253" height="221" viewBox="0 0 253 221" fill="none" xmlns="http://www.w3.org/2000/svg">
<path d="M253 -0.0128288C247.517 -5.59142 241.736 -10.4637 235.715 -14.5784C225.998 -21.2014 215.229 -23.4582 204.689 -21.0805C196.862 -19.2182 189.239 -15.7509 182.03 -10.7741C176.165 -6.83335 170.62 -1.96803 165.015 2.63958C159.323 7.51089 153.451 11.8881 147.43 15.75C140.041 20.4192 132.057 22.5319 124.061 21.9339C118.698 21.504 113.388 20.1255 108.237 17.8264C100.162 14.0906 91.8306 11.7667 83.4062 10.8998C77.008 10.3265 70.5918 10.3974 64.1999 11.1121C55.3254 12.135 46.5483 14.5891 38.0177 18.4327C27.5958 22.889 17.7243 29.8925 8.7929 39.1669C1.28474 46.8399 -5.06072 56.8419 -9.82288 68.51C-13.684 78.0946 -16.1224 88.8363 -16.9689 99.9903C-18.25 117.542 -15.7979 134.108 -11.3041 150.007C-5.58929 170.317 2.49756 188.399 11.7954 205.298C17.6429 215.707 23.9031 225.566 30.5413 234.823C36.6365 243.493 43.102 251.496 49.7176 259.316C60.5268 272.002 71.7363 283.84 83.186 295.147C93.1044 304.923 103.203 314.32 113.261 323.702C121.118 331.022 128.985 338.312 137.092 344.921C143.877 350.483 150.733 355.849 157.739 360.759C165.336 366.079 173.032 371.051 180.869 375.507C192.983 382.451 205.452 387.885 218.15 391.755C226.031 394.216 234.013 395.872 242.041 396.711C245.681 397.277 249.34 397.525 253 397.454V-0.0128288Z" fill="url(#paint0_linear)" fill-opacity="0.2"/>
<defs>
<linearGradient id="paint0_linear" x1="117.846" y1="-22" x2="117.846" y2="397.465" gradientUnits="userSpaceOnUse">
<stop stop-color="#A5000A"/>
<stop offset="0.807292" stop-color="#FF0110" stop-opacity="0"/>
</linearGradient>
</defs>
</svg>
