<svg width="253" height="221" viewBox="0 0 253 221" fill="none" xmlns="http://www.w3.org/2000/svg">
<path d="M253 -0.0128288C247.518 -5.59142 241.736 -10.4637 235.715 -14.5784C225.998 -21.2014 215.229 -23.4582 204.689 -21.0805C196.862 -19.2182 189.239 -15.7509 182.03 -10.7741C176.165 -6.83335 170.62 -1.96803 165.015 2.63958C159.323 7.51089 153.452 11.8881 147.431 15.75C140.042 20.4192 132.057 22.5319 124.061 21.9339C118.699 21.504 113.388 20.1255 108.237 17.8264C100.162 14.0906 91.8307 11.7667 83.4063 10.8998C77.0081 10.3265 70.5919 10.3974 64.2 11.1121C55.3255 12.135 46.5484 14.5891 38.0178 18.4327C27.5959 22.889 17.7244 29.8925 8.79302 39.1669C1.28487 46.8399 -5.0606 56.8419 -9.82276 68.51C-13.6839 78.0946 -16.1223 88.8363 -16.9688 99.9903C-18.2499 117.542 -15.7978 134.108 -11.304 150.007C-5.58917 170.317 2.49769 188.399 11.7956 205.298C17.643 215.707 23.9032 225.566 30.5415 234.823C36.6366 243.493 43.1021 251.496 49.7177 259.316C60.5269 272.002 71.7364 283.84 83.1861 295.147C93.1045 304.923 103.203 314.32 113.262 323.702C121.118 331.022 128.985 338.312 137.092 344.921C143.878 350.483 150.733 355.849 157.739 360.759C165.336 366.079 173.032 371.051 180.869 375.507C192.983 382.451 205.452 387.885 218.15 391.755C226.032 394.216 234.013 395.872 242.041 396.711C245.681 397.277 249.341 397.525 253 397.454V-0.0128288Z" fill="url(#paint0_linear)" fill-opacity="0.2"/>
<defs>
<linearGradient id="paint0_linear" x1="117.846" y1="-22" x2="117.846" y2="397.465" gradientUnits="userSpaceOnUse">
<stop stop-color="#DE15C5"/>
<stop offset="0.697917" stop-color="#DE15C5" stop-opacity="0"/>
</linearGradient>
</defs>
</svg>
