<svg width="504" height="593" viewBox="0 0 504 593" fill="none" xmlns="http://www.w3.org/2000/svg">
<path d="M504 -45.4495C493.778 -57.0066 482.997 -67.1005 471.772 -75.6247C453.654 -89.3455 433.574 -94.021 413.922 -89.0951C399.329 -85.2369 385.115 -78.0537 371.673 -67.7434C360.738 -59.5795 350.399 -49.5001 339.949 -39.9546C329.335 -29.8627 318.388 -20.7947 307.161 -12.794C293.384 -3.1208 278.497 1.25603 263.587 0.0171356C253.589 -0.873405 243.687 -3.72932 234.084 -8.49224C219.027 -16.2316 203.493 -21.0461 187.785 -22.8419C175.856 -24.0297 163.892 -23.8828 151.974 -22.4023C135.427 -20.2831 119.062 -15.199 103.157 -7.23618C83.7244 1.9958 65.3187 16.5049 48.6657 35.7185C34.6665 51.6144 22.8351 72.3355 13.9558 96.5082C6.75656 116.364 2.21011 138.618 0.63171 161.725C-1.75693 198.086 2.81507 232.406 11.194 265.344C21.8495 307.42 36.9278 344.88 54.2641 379.89C65.1669 401.453 76.8393 421.88 89.2166 441.057C100.581 459.017 112.636 475.596 124.972 491.799C145.126 518.08 166.026 542.603 187.375 566.028C205.868 586.28 224.697 605.748 243.452 625.184C258.101 640.35 272.769 655.454 287.884 669.144C300.536 680.668 313.319 691.783 326.382 701.957C340.546 712.978 354.897 723.277 369.508 732.509C392.096 746.895 415.344 758.153 439.022 766.169C453.716 771.268 468.598 774.699 483.566 776.437C490.354 777.609 497.177 778.123 504 777.975V-45.4495Z" fill="url(#paint0_linear)" fill-opacity="0.2"/>
<defs>
<linearGradient id="paint0_linear" x1="252" y1="-91" x2="252" y2="778" gradientUnits="userSpaceOnUse">
<stop stop-color="#A5000A"/>
<stop offset="0.807292" stop-color="#FF0110" stop-opacity="0"/>
</linearGradient>
</defs>
</svg>
