<svg width="672" height="324" viewBox="0 0 672 324" fill="none" xmlns="http://www.w3.org/2000/svg">
<path d="M0 296V323.709H670.693C670.925 238.21 671.249 66.4065 670.693 63.1849C670.137 59.9632 663.513 53.3752 660.27 50.4839C655.407 45.5275 648.806 44.5981 643.247 47.3861C637.502 50.2677 635.951 61.9457 629.35 63.1849C622.167 64.5333 621.359 66.5924 618.58 69.3804C615.688 72.2815 612.327 74.6467 605.378 71.8587C599.82 69.6283 596.461 71.5489 595.303 74.6467C593.682 78.9836 588.244 87.6623 584.88 91.9943C581.754 96.0214 577.237 96.9507 574.11 90.1356C570.929 83.2009 560.909 74.6467 555.002 74.6467C548.935 74.6467 549.444 80.8422 543.885 80.8422C538.326 80.8422 536.937 75.2662 532.073 69.3804C527.209 63.4946 520.608 65.6631 518.871 71.8587C517.725 75.9459 513.659 107.173 511.575 116.157C510.281 121.733 507.962 124.521 503.237 124.521C497.331 124.521 494.204 120.184 491.772 117.086C489.339 113.987 483.803 113.989 482.044 119.565C479.96 126.173 474.749 137.842 470.927 141.869C468.388 144.544 465.401 144.12 462.241 141.559C458.42 138.461 455.293 134.744 452.861 131.336C445.238 120.655 434.448 126.689 433.058 135.983L427.152 161.385C425.068 168.51 414.645 168.51 412.213 161.385C409.849 154.46 390.062 49.5546 384.419 31.5874C381.987 23.843 376.481 24.661 372.26 30.0385C369.828 33.1363 365.311 44.9079 362.879 55.1306C361.037 62.8751 352.109 61.9457 350.372 55.1306C348.407 47.4202 343.424 18.8865 339.602 6.18557C338.204 1.5389 331.612 -0.00997877 328.832 5.56603C325.339 12.5747 317.504 60.0253 314.241 70C311.809 77.4347 307.251 75.576 306.25 70C305.787 67.4185 302.776 53.21 299.997 33.1363C299.224 27.5603 294.785 28.1799 293.743 34.3754C292.023 44.5981 287.143 61.0398 278.109 79.9129C265.949 105.315 267.22 134.434 245.799 183.379C243.02 189.729 237.693 194.121 236.419 187.716C232.597 168.51 223.662 168.2 220.785 175.325C219.743 177.906 216.616 185.671 212.447 196.08C208.278 206.488 202.095 208.161 199.94 201.656C190.907 174.395 181.152 176.564 179.442 186.477C177.357 198.558 169.367 226.748 165.893 213.737C162.629 201.516 158.588 205.064 157.555 210.949C156.049 219.52 152.691 235.174 151.301 240.378C148.985 249.052 140.184 258.036 133.583 262.682C126.982 267.329 106.136 279.72 101.273 284.367C97.7058 287.774 91.8923 287.646 87.0284 286.845C79.501 285.606 62.5701 284.367 55.0658 289.323C47.5616 294.28 4.16903 296 0 296Z" fill="url(#paint0_linear)" fill-opacity="0.2"/>
<path d="M0 297.5C9.5 297.5 47.5616 293.28 55.0658 288.323C62.5701 283.367 79.501 284.606 87.0284 285.845C91.8923 286.646 97.7058 286.774 101.273 283.367C106.136 278.72 126.982 266.329 133.583 261.682C140.184 257.036 148.985 248.052 151.301 239.378C152.691 234.174 156.049 218.52 157.555 209.949C158.588 204.064 162.629 200.516 165.893 212.737C169.367 225.748 177.357 197.558 179.442 185.477C181.152 175.564 190.907 173.395 199.94 200.656C202.095 207.161 208.278 205.488 212.447 195.08C216.616 184.671 219.743 176.906 220.785 174.325C223.662 167.2 232.597 167.51 236.419 186.716C237.693 193.121 243.02 188.729 245.799 182.379C267.22 133.434 265.949 104.315 278.109 78.9129C287.143 60.0398 292.023 43.5981 293.743 33.3754C294.785 27.1799 299.224 26.5603 299.997 32.1363C302.776 52.21 305.787 66.4185 306.25 69C307.251 74.576 311.809 76.4347 314.241 69C317.503 59.0253 325.339 11.5747 328.832 4.56603C331.612 -1.00998 338.204 0.538898 339.602 5.18557C343.424 17.8865 348.407 46.4202 350.372 54.1306C352.109 60.9457 361.037 61.8751 362.879 54.1306C365.311 43.9079 369.828 32.1363 372.26 29.0385C376.481 23.661 381.987 22.843 384.419 30.5874C390.062 48.5546 409.849 153.46 412.213 160.385C414.645 167.51 425.067 167.51 427.152 160.385L433.058 134.983C434.448 125.689 445.238 119.655 452.861 130.336C455.293 133.744 458.42 137.461 462.241 140.559C465.401 143.12 468.388 143.544 470.927 140.869C474.748 136.842 479.96 125.173 482.044 118.565C483.803 112.989 489.339 112.987 491.772 116.086C494.204 119.184 497.331 123.521 503.237 123.521C507.962 123.521 510.281 120.733 511.575 115.157C513.659 106.173 517.725 74.9459 518.871 70.8587C520.608 64.6631 527.209 62.4946 532.073 68.3804C536.937 74.2662 538.326 79.8422 543.885 79.8422C549.444 79.8422 548.935 73.6467 555.002 73.6467C560.909 73.6467 570.929 82.2009 574.11 89.1356C577.237 95.9507 581.754 95.0214 584.88 90.9943C588.244 86.6623 593.682 77.9836 595.303 73.6467C596.461 70.5489 599.819 68.6282 605.378 70.8587C612.327 73.6467 615.688 71.2815 618.58 68.3804C621.359 65.5924 622.167 63.5333 629.35 62.1848C635.951 60.9457 637.502 49.2677 643.247 46.3861C648.806 43.5981 655.407 44.5275 660.27 49.4839C663.513 52.3752 670.137 58.9631 670.693 62.1848" stroke="#DE15C5" stroke-width="2" stroke-linecap="round" stroke-linejoin="round"/>
<rect x="43" y="319.182" width="6.88596" height="4.81782" fill="url(#paint1_linear)" fill-opacity="0.2"/>
<rect x="67.7894" y="315.741" width="6.88596" height="8.25912" fill="url(#paint2_linear)" fill-opacity="0.2"/>
<rect x="51.2632" y="318.494" width="6.88596" height="5.50608" fill="url(#paint3_linear)" fill-opacity="0.2"/>
<rect x="76.0526" y="314.364" width="6.88596" height="9.63564" fill="url(#paint4_linear)" fill-opacity="0.2"/>
<rect x="84.3158" y="310.235" width="6.88596" height="13.7652" fill="url(#paint5_linear)" fill-opacity="0.2"/>
<rect x="133.895" y="310.235" width="6.88596" height="13.7652" fill="url(#paint6_linear)" fill-opacity="0.2"/>
<rect x="142.158" y="312.988" width="6.88596" height="11.0122" fill="url(#paint7_linear)" fill-opacity="0.2"/>
<rect x="125.632" y="306.105" width="6.88596" height="17.8948" fill="url(#paint8_linear)" fill-opacity="0.2"/>
<rect x="158.684" y="304.729" width="6.88596" height="19.2713" fill="url(#paint9_linear)" fill-opacity="0.2"/>
<rect x="150.421" y="303.352" width="6.88596" height="20.6478" fill="url(#paint10_linear)" fill-opacity="0.2"/>
<rect x="150.421" y="303.352" width="6.88596" height="20.6478" fill="url(#paint11_linear)" fill-opacity="0.2"/>
<rect x="166.947" y="293.716" width="6.88596" height="30.2834" fill="url(#paint12_linear)" fill-opacity="0.2"/>
<rect x="191.737" y="278.575" width="6.88596" height="45.4252" fill="url(#paint13_linear)" fill-opacity="0.2"/>
<rect x="224.789" y="290.963" width="6.88596" height="33.0365" fill="url(#paint14_linear)" fill-opacity="0.2"/>
<rect x="233.053" y="289.587" width="6.88596" height="34.413" fill="url(#paint15_linear)" fill-opacity="0.2"/>
<rect x="249.579" y="299.222" width="6.88596" height="24.7774" fill="url(#paint16_linear)" fill-opacity="0.2"/>
<rect x="266.105" y="292.34" width="6.88596" height="31.66" fill="url(#paint17_linear)" fill-opacity="0.2"/>
<rect x="282.632" y="286.834" width="6.88596" height="37.166" fill="url(#paint18_linear)" fill-opacity="0.2"/>
<rect x="290.895" y="270.316" width="6.88596" height="53.6843" fill="url(#paint19_linear)" fill-opacity="0.2"/>
<rect x="299.158" y="277.198" width="6.88596" height="46.8017" fill="url(#paint20_linear)" fill-opacity="0.2"/>
<rect x="307.421" y="224.89" width="6.88596" height="99.1095" fill="url(#paint21_linear)" fill-opacity="0.2"/>
<rect x="323.947" y="262.056" width="6.88596" height="61.9434" fill="url(#paint22_linear)" fill-opacity="0.2"/>
<rect x="332.211" y="277.198" width="6.88596" height="46.8017" fill="url(#paint23_linear)" fill-opacity="0.2"/>
<rect x="357" y="292.34" width="6.88596" height="31.66" fill="url(#paint24_linear)" fill-opacity="0.2"/>
<rect x="381.789" y="289.587" width="6.88596" height="34.413" fill="url(#paint25_linear)" fill-opacity="0.2"/>
<rect x="439.632" y="282.704" width="6.88596" height="41.2956" fill="url(#paint26_linear)" fill-opacity="0.2"/>
<rect x="447.895" y="281.328" width="6.88596" height="42.6721" fill="url(#paint27_linear)" fill-opacity="0.2"/>
<rect x="480.947" y="306.105" width="6.88596" height="17.8948" fill="url(#paint28_linear)" fill-opacity="0.2"/>
<rect x="489.211" y="303.352" width="6.88596" height="20.6478" fill="url(#paint29_linear)" fill-opacity="0.2"/>
<rect x="514" y="310.235" width="6.88596" height="13.7652" fill="url(#paint30_linear)" fill-opacity="0.2"/>
<rect x="522.263" y="278.575" width="6.88596" height="45.4252" fill="url(#paint31_linear)" fill-opacity="0.2"/>
<rect x="555.316" y="308.858" width="6.88596" height="15.1417" fill="url(#paint32_linear)" fill-opacity="0.2"/>
<rect x="588.368" y="308.858" width="6.88596" height="15.1417" fill="url(#paint33_linear)" fill-opacity="0.2"/>
<rect x="662.737" y="306.105" width="6.88596" height="17.8948" fill="url(#paint34_linear)" fill-opacity="0.2"/>
<rect x="596.632" y="297.846" width="6.88596" height="26.1539" fill="url(#paint35_linear)" fill-opacity="0.2"/>
<rect x="621.421" y="275.822" width="6.88596" height="48.1782" fill="url(#paint36_linear)" fill-opacity="0.2"/>
<rect x="629.684" y="296.469" width="6.88596" height="27.5304" fill="url(#paint37_linear)" fill-opacity="0.2"/>
<rect x="637.947" y="300.599" width="6.88596" height="23.4008" fill="url(#paint38_linear)" fill-opacity="0.2"/>
<rect x="530.526" y="270.316" width="6.88596" height="53.6843" fill="url(#paint39_linear)" fill-opacity="0.2"/>
<rect x="390.053" y="264.81" width="6.88596" height="59.1904" fill="url(#paint40_linear)" fill-opacity="0.2"/>
<rect x="414.842" y="252.421" width="6.88596" height="71.579" fill="url(#paint41_linear)" fill-opacity="0.2"/>
<rect x="398.316" y="271.692" width="6.88596" height="52.3078" fill="url(#paint42_linear)" fill-opacity="0.2"/>
<rect x="406.579" y="273.069" width="6.88596" height="50.9312" fill="url(#paint43_linear)" fill-opacity="0.2"/>
<rect x="423.105" y="281.328" width="6.88596" height="42.6721" fill="url(#paint44_linear)" fill-opacity="0.2"/>
<rect x="431.368" y="274.445" width="6.88596" height="49.5547" fill="url(#paint45_linear)" fill-opacity="0.2"/>
<rect x="456.158" y="301.976" width="6.88596" height="22.0243" fill="url(#paint46_linear)" fill-opacity="0.2"/>
<rect x="464.421" y="289.587" width="6.88596" height="34.413" fill="url(#paint47_linear)" fill-opacity="0.2"/>
<rect x="472.684" y="296.469" width="6.88596" height="27.5304" fill="url(#paint48_linear)" fill-opacity="0.2"/>
<rect x="497.474" y="300.599" width="6.88596" height="23.4008" fill="url(#paint49_linear)" fill-opacity="0.2"/>
<rect x="505.737" y="311.611" width="6.88596" height="12.3887" fill="url(#paint50_linear)" fill-opacity="0.2"/>
<rect x="538.789" y="303.352" width="6.88596" height="20.6478" fill="url(#paint51_linear)" fill-opacity="0.2"/>
<rect x="547.053" y="299.222" width="6.88596" height="24.7774" fill="url(#paint52_linear)" fill-opacity="0.2"/>
<rect x="563.579" y="301.976" width="6.88596" height="22.0243" fill="url(#paint53_linear)" fill-opacity="0.2"/>
<rect x="571.842" y="307.482" width="6.88596" height="16.5182" fill="url(#paint54_linear)" fill-opacity="0.2"/>
<rect x="580.105" y="301.976" width="6.88596" height="22.0243" fill="url(#paint55_linear)" fill-opacity="0.2"/>
<rect x="604.895" y="314.364" width="6.88596" height="9.63564" fill="url(#paint56_linear)" fill-opacity="0.2"/>
<rect x="613.158" y="303.352" width="6.88596" height="20.6478" fill="url(#paint57_linear)" fill-opacity="0.2"/>
<rect x="646.21" y="304.729" width="6.88596" height="19.2713" fill="url(#paint58_linear)" fill-opacity="0.2"/>
<rect x="654.474" y="307.482" width="6.88596" height="16.5182" fill="url(#paint59_linear)" fill-opacity="0.2"/>
<rect x="365.263" y="296.469" width="6.88596" height="27.5304" fill="url(#paint60_linear)" fill-opacity="0.2"/>
<rect x="373.526" y="296.469" width="6.88596" height="27.5304" fill="url(#paint61_linear)" fill-opacity="0.2"/>
<rect x="274.368" y="242.785" width="6.88596" height="81.2147" fill="url(#paint62_linear)" fill-opacity="0.2"/>
<rect x="175.211" y="255.174" width="6.88596" height="68.826" fill="url(#paint63_linear)" fill-opacity="0.2"/>
<rect x="92.579" y="317.117" width="6.88596" height="6.8826" fill="url(#paint64_linear)" fill-opacity="0.2"/>
<rect x="117.368" y="317.117" width="6.88596" height="6.8826" fill="url(#paint65_linear)" fill-opacity="0.2"/>
<rect x="59.5264" y="318.494" width="6.88596" height="5.50608" fill="url(#paint66_linear)" fill-opacity="0.2"/>
<rect x="100.842" y="317.117" width="6.88596" height="6.8826" fill="url(#paint67_linear)" fill-opacity="0.2"/>
<rect x="109.105" y="315.741" width="6.88596" height="8.25912" fill="url(#paint68_linear)" fill-opacity="0.2"/>
<rect x="183.474" y="289.587" width="6.88596" height="34.413" fill="url(#paint69_linear)" fill-opacity="0.2"/>
<rect x="208.263" y="296.469" width="6.88596" height="27.5304" fill="url(#paint70_linear)" fill-opacity="0.2"/>
<rect x="241.316" y="292.34" width="6.88596" height="31.66" fill="url(#paint71_linear)" fill-opacity="0.2"/>
<rect x="257.842" y="308.858" width="6.88596" height="15.1417" fill="url(#paint72_linear)" fill-opacity="0.2"/>
<rect x="315.684" y="245.538" width="6.88596" height="78.4616" fill="url(#paint73_linear)" fill-opacity="0.2"/>
<rect x="340.474" y="278.575" width="6.88596" height="45.4252" fill="url(#paint74_linear)" fill-opacity="0.2"/>
<rect x="348.737" y="286.834" width="6.88596" height="37.166" fill="url(#paint75_linear)" fill-opacity="0.2"/>
<rect x="216.526" y="275.822" width="6.88596" height="48.1782" fill="url(#paint76_linear)" fill-opacity="0.2"/>
<rect x="200" y="248.291" width="6.88596" height="75.7086" fill="url(#paint77_linear)" fill-opacity="0.2"/>
<ellipse cx="443" cy="126.938" rx="20" ry="19.9902" fill="url(#paint78_linear)" fill-opacity="0.2"/>
<ellipse cx="443" cy="126.938" rx="16" ry="15.9922" fill="url(#paint79_linear)"/>
<circle cx="66" cy="286.87" r="20" fill="url(#paint80_linear)" fill-opacity="0.2"/>
<ellipse cx="66.0001" cy="286.87" rx="16" ry="16" fill="url(#paint81_linear)"/>
<ellipse cx="299" cy="32.9841" rx="20" ry="19.9902" fill="url(#paint82_linear)" fill-opacity="0.2"/>
<ellipse cx="299" cy="32.9839" rx="16" ry="15.9922" fill="url(#paint83_linear)"/>
<ellipse cx="651" cy="48.9763" rx="20" ry="19.9902" fill="url(#paint84_linear)" fill-opacity="0.2"/>
<ellipse cx="651" cy="48.9763" rx="16" ry="15.9922" fill="url(#paint85_linear)"/>
<defs>
<linearGradient id="paint0_linear" x1="335.5" y1="1.99976" x2="335.5" y2="323.709" gradientUnits="userSpaceOnUse">
<stop offset="0.171875" stop-color="#DE15C5" stop-opacity="0.8"/>
<stop offset="0.770833" stop-color="#DE15C5" stop-opacity="0"/>
</linearGradient>
<linearGradient id="paint1_linear" x1="46.443" y1="319.182" x2="46.443" y2="324" gradientUnits="userSpaceOnUse">
<stop offset="0.213542" stop-color="#62E7FF" stop-opacity="0.8"/>
<stop offset="0.807292" stop-color="#62E7FF" stop-opacity="0"/>
</linearGradient>
<linearGradient id="paint2_linear" x1="71.2324" y1="315.741" x2="71.2324" y2="324" gradientUnits="userSpaceOnUse">
<stop offset="0.213542" stop-color="#62E7FF" stop-opacity="0.8"/>
<stop offset="0.807292" stop-color="#62E7FF" stop-opacity="0"/>
</linearGradient>
<linearGradient id="paint3_linear" x1="54.7062" y1="318.494" x2="54.7062" y2="324" gradientUnits="userSpaceOnUse">
<stop offset="0.213542" stop-color="#62E7FF" stop-opacity="0.8"/>
<stop offset="0.807292" stop-color="#62E7FF" stop-opacity="0"/>
</linearGradient>
<linearGradient id="paint4_linear" x1="79.4956" y1="314.364" x2="79.4956" y2="324" gradientUnits="userSpaceOnUse">
<stop offset="0.213542" stop-color="#62E7FF" stop-opacity="0.8"/>
<stop offset="0.807292" stop-color="#62E7FF" stop-opacity="0"/>
</linearGradient>
<linearGradient id="paint5_linear" x1="87.7588" y1="310.235" x2="87.7588" y2="324" gradientUnits="userSpaceOnUse">
<stop offset="0.213542" stop-color="#62E7FF" stop-opacity="0.8"/>
<stop offset="0.807292" stop-color="#62E7FF" stop-opacity="0"/>
</linearGradient>
<linearGradient id="paint6_linear" x1="137.338" y1="310.235" x2="137.338" y2="324" gradientUnits="userSpaceOnUse">
<stop offset="0.213542" stop-color="#62E7FF" stop-opacity="0.8"/>
<stop offset="0.807292" stop-color="#62E7FF" stop-opacity="0"/>
</linearGradient>
<linearGradient id="paint7_linear" x1="145.601" y1="312.988" x2="145.601" y2="324" gradientUnits="userSpaceOnUse">
<stop offset="0.213542" stop-color="#62E7FF" stop-opacity="0.8"/>
<stop offset="0.807292" stop-color="#62E7FF" stop-opacity="0"/>
</linearGradient>
<linearGradient id="paint8_linear" x1="129.075" y1="306.105" x2="129.075" y2="324" gradientUnits="userSpaceOnUse">
<stop offset="0.213542" stop-color="#62E7FF" stop-opacity="0.8"/>
<stop offset="0.807292" stop-color="#62E7FF" stop-opacity="0"/>
</linearGradient>
<linearGradient id="paint9_linear" x1="162.127" y1="304.729" x2="162.127" y2="324" gradientUnits="userSpaceOnUse">
<stop offset="0.213542" stop-color="#62E7FF" stop-opacity="0.8"/>
<stop offset="0.807292" stop-color="#62E7FF" stop-opacity="0"/>
</linearGradient>
<linearGradient id="paint10_linear" x1="153.864" y1="303.352" x2="153.864" y2="324" gradientUnits="userSpaceOnUse">
<stop offset="0.213542" stop-color="#62E7FF" stop-opacity="0.8"/>
<stop offset="0.807292" stop-color="#62E7FF" stop-opacity="0"/>
</linearGradient>
<linearGradient id="paint11_linear" x1="153.864" y1="303.352" x2="153.864" y2="324" gradientUnits="userSpaceOnUse">
<stop offset="0.213542" stop-color="#62E7FF" stop-opacity="0.8"/>
<stop offset="0.807292" stop-color="#62E7FF" stop-opacity="0"/>
</linearGradient>
<linearGradient id="paint12_linear" x1="170.39" y1="293.716" x2="170.39" y2="324" gradientUnits="userSpaceOnUse">
<stop offset="0.213542" stop-color="#62E7FF" stop-opacity="0.8"/>
<stop offset="0.807292" stop-color="#62E7FF" stop-opacity="0"/>
</linearGradient>
<linearGradient id="paint13_linear" x1="195.18" y1="278.575" x2="195.18" y2="324" gradientUnits="userSpaceOnUse">
<stop offset="0.213542" stop-color="#62E7FF" stop-opacity="0.8"/>
<stop offset="0.807292" stop-color="#62E7FF" stop-opacity="0"/>
</linearGradient>
<linearGradient id="paint14_linear" x1="228.232" y1="290.963" x2="228.232" y2="324" gradientUnits="userSpaceOnUse">
<stop offset="0.213542" stop-color="#62E7FF" stop-opacity="0.8"/>
<stop offset="0.807292" stop-color="#62E7FF" stop-opacity="0"/>
</linearGradient>
<linearGradient id="paint15_linear" x1="236.496" y1="289.587" x2="236.496" y2="324" gradientUnits="userSpaceOnUse">
<stop offset="0.213542" stop-color="#62E7FF" stop-opacity="0.8"/>
<stop offset="0.807292" stop-color="#62E7FF" stop-opacity="0"/>
</linearGradient>
<linearGradient id="paint16_linear" x1="253.022" y1="299.222" x2="253.022" y2="324" gradientUnits="userSpaceOnUse">
<stop offset="0.213542" stop-color="#62E7FF" stop-opacity="0.8"/>
<stop offset="0.807292" stop-color="#62E7FF" stop-opacity="0"/>
</linearGradient>
<linearGradient id="paint17_linear" x1="269.548" y1="292.34" x2="269.548" y2="324" gradientUnits="userSpaceOnUse">
<stop offset="0.213542" stop-color="#62E7FF" stop-opacity="0.8"/>
<stop offset="0.807292" stop-color="#62E7FF" stop-opacity="0"/>
</linearGradient>
<linearGradient id="paint18_linear" x1="286.075" y1="286.834" x2="286.075" y2="324" gradientUnits="userSpaceOnUse">
<stop offset="0.213542" stop-color="#62E7FF" stop-opacity="0.8"/>
<stop offset="0.807292" stop-color="#62E7FF" stop-opacity="0"/>
</linearGradient>
<linearGradient id="paint19_linear" x1="294.338" y1="270.316" x2="294.338" y2="324" gradientUnits="userSpaceOnUse">
<stop offset="0.213542" stop-color="#62E7FF" stop-opacity="0.8"/>
<stop offset="0.807292" stop-color="#62E7FF" stop-opacity="0"/>
</linearGradient>
<linearGradient id="paint20_linear" x1="302.601" y1="277.198" x2="302.601" y2="324" gradientUnits="userSpaceOnUse">
<stop offset="0.213542" stop-color="#62E7FF" stop-opacity="0.8"/>
<stop offset="0.807292" stop-color="#62E7FF" stop-opacity="0"/>
</linearGradient>
<linearGradient id="paint21_linear" x1="310.864" y1="224.89" x2="310.864" y2="324" gradientUnits="userSpaceOnUse">
<stop offset="0.213542" stop-color="#62E7FF" stop-opacity="0.8"/>
<stop offset="0.807292" stop-color="#62E7FF" stop-opacity="0"/>
</linearGradient>
<linearGradient id="paint22_linear" x1="327.39" y1="262.056" x2="327.39" y2="324" gradientUnits="userSpaceOnUse">
<stop offset="0.213542" stop-color="#62E7FF" stop-opacity="0.8"/>
<stop offset="0.807292" stop-color="#62E7FF" stop-opacity="0"/>
</linearGradient>
<linearGradient id="paint23_linear" x1="335.654" y1="277.198" x2="335.654" y2="324" gradientUnits="userSpaceOnUse">
<stop offset="0.213542" stop-color="#62E7FF" stop-opacity="0.8"/>
<stop offset="0.807292" stop-color="#62E7FF" stop-opacity="0"/>
</linearGradient>
<linearGradient id="paint24_linear" x1="360.443" y1="292.34" x2="360.443" y2="324" gradientUnits="userSpaceOnUse">
<stop offset="0.213542" stop-color="#62E7FF" stop-opacity="0.8"/>
<stop offset="0.807292" stop-color="#62E7FF" stop-opacity="0"/>
</linearGradient>
<linearGradient id="paint25_linear" x1="385.232" y1="289.587" x2="385.232" y2="324" gradientUnits="userSpaceOnUse">
<stop offset="0.213542" stop-color="#62E7FF" stop-opacity="0.8"/>
<stop offset="0.807292" stop-color="#62E7FF" stop-opacity="0"/>
</linearGradient>
<linearGradient id="paint26_linear" x1="443.075" y1="282.704" x2="443.075" y2="324" gradientUnits="userSpaceOnUse">
<stop offset="0.213542" stop-color="#62E7FF" stop-opacity="0.8"/>
<stop offset="0.807292" stop-color="#62E7FF" stop-opacity="0"/>
</linearGradient>
<linearGradient id="paint27_linear" x1="451.338" y1="281.328" x2="451.338" y2="324" gradientUnits="userSpaceOnUse">
<stop offset="0.213542" stop-color="#62E7FF" stop-opacity="0.8"/>
<stop offset="0.807292" stop-color="#62E7FF" stop-opacity="0"/>
</linearGradient>
<linearGradient id="paint28_linear" x1="484.39" y1="306.105" x2="484.39" y2="324" gradientUnits="userSpaceOnUse">
<stop offset="0.213542" stop-color="#62E7FF" stop-opacity="0.8"/>
<stop offset="0.807292" stop-color="#62E7FF" stop-opacity="0"/>
</linearGradient>
<linearGradient id="paint29_linear" x1="492.654" y1="303.352" x2="492.654" y2="324" gradientUnits="userSpaceOnUse">
<stop offset="0.213542" stop-color="#62E7FF" stop-opacity="0.8"/>
<stop offset="0.807292" stop-color="#62E7FF" stop-opacity="0"/>
</linearGradient>
<linearGradient id="paint30_linear" x1="517.443" y1="310.235" x2="517.443" y2="324" gradientUnits="userSpaceOnUse">
<stop offset="0.213542" stop-color="#62E7FF" stop-opacity="0.8"/>
<stop offset="0.807292" stop-color="#62E7FF" stop-opacity="0"/>
</linearGradient>
<linearGradient id="paint31_linear" x1="525.706" y1="278.575" x2="525.706" y2="324" gradientUnits="userSpaceOnUse">
<stop offset="0.213542" stop-color="#62E7FF" stop-opacity="0.8"/>
<stop offset="0.807292" stop-color="#62E7FF" stop-opacity="0"/>
</linearGradient>
<linearGradient id="paint32_linear" x1="558.759" y1="308.858" x2="558.759" y2="324" gradientUnits="userSpaceOnUse">
<stop offset="0.213542" stop-color="#62E7FF" stop-opacity="0.8"/>
<stop offset="0.807292" stop-color="#62E7FF" stop-opacity="0"/>
</linearGradient>
<linearGradient id="paint33_linear" x1="591.811" y1="308.858" x2="591.811" y2="324" gradientUnits="userSpaceOnUse">
<stop offset="0.213542" stop-color="#62E7FF" stop-opacity="0.8"/>
<stop offset="0.807292" stop-color="#62E7FF" stop-opacity="0"/>
</linearGradient>
<linearGradient id="paint34_linear" x1="666.18" y1="306.105" x2="666.18" y2="324" gradientUnits="userSpaceOnUse">
<stop offset="0.213542" stop-color="#62E7FF" stop-opacity="0.8"/>
<stop offset="0.807292" stop-color="#62E7FF" stop-opacity="0"/>
</linearGradient>
<linearGradient id="paint35_linear" x1="600.075" y1="297.846" x2="600.075" y2="324" gradientUnits="userSpaceOnUse">
<stop offset="0.213542" stop-color="#62E7FF" stop-opacity="0.8"/>
<stop offset="0.807292" stop-color="#62E7FF" stop-opacity="0"/>
</linearGradient>
<linearGradient id="paint36_linear" x1="624.864" y1="275.822" x2="624.864" y2="324" gradientUnits="userSpaceOnUse">
<stop offset="0.213542" stop-color="#62E7FF" stop-opacity="0.8"/>
<stop offset="0.807292" stop-color="#62E7FF" stop-opacity="0"/>
</linearGradient>
<linearGradient id="paint37_linear" x1="633.127" y1="296.469" x2="633.127" y2="324" gradientUnits="userSpaceOnUse">
<stop offset="0.213542" stop-color="#62E7FF" stop-opacity="0.8"/>
<stop offset="0.807292" stop-color="#62E7FF" stop-opacity="0"/>
</linearGradient>
<linearGradient id="paint38_linear" x1="641.39" y1="300.599" x2="641.39" y2="324" gradientUnits="userSpaceOnUse">
<stop offset="0.213542" stop-color="#62E7FF" stop-opacity="0.8"/>
<stop offset="0.807292" stop-color="#62E7FF" stop-opacity="0"/>
</linearGradient>
<linearGradient id="paint39_linear" x1="533.969" y1="270.316" x2="533.969" y2="324" gradientUnits="userSpaceOnUse">
<stop offset="0.213542" stop-color="#62E7FF" stop-opacity="0.8"/>
<stop offset="0.807292" stop-color="#62E7FF" stop-opacity="0"/>
</linearGradient>
<linearGradient id="paint40_linear" x1="393.496" y1="264.81" x2="393.496" y2="324" gradientUnits="userSpaceOnUse">
<stop offset="0.28125" stop-color="#DE15C5" stop-opacity="0.9"/>
<stop offset="1" stop-color="#DE15C5" stop-opacity="0"/>
</linearGradient>
<linearGradient id="paint41_linear" x1="418.285" y1="252.421" x2="418.285" y2="324" gradientUnits="userSpaceOnUse">
<stop offset="0.213542" stop-color="#62E7FF" stop-opacity="0.8"/>
<stop offset="0.807292" stop-color="#62E7FF" stop-opacity="0"/>
</linearGradient>
<linearGradient id="paint42_linear" x1="401.759" y1="271.692" x2="401.759" y2="324" gradientUnits="userSpaceOnUse">
<stop offset="0.28125" stop-color="#DE15C5" stop-opacity="0.9"/>
<stop offset="1" stop-color="#DE15C5" stop-opacity="0"/>
</linearGradient>
<linearGradient id="paint43_linear" x1="410.022" y1="273.069" x2="410.022" y2="324" gradientUnits="userSpaceOnUse">
<stop offset="0.28125" stop-color="#DE15C5" stop-opacity="0.9"/>
<stop offset="1" stop-color="#DE15C5" stop-opacity="0"/>
</linearGradient>
<linearGradient id="paint44_linear" x1="426.548" y1="281.328" x2="426.548" y2="324" gradientUnits="userSpaceOnUse">
<stop offset="0.28125" stop-color="#DE15C5" stop-opacity="0.9"/>
<stop offset="1" stop-color="#DE15C5" stop-opacity="0"/>
</linearGradient>
<linearGradient id="paint45_linear" x1="434.811" y1="274.445" x2="434.811" y2="324" gradientUnits="userSpaceOnUse">
<stop offset="0.28125" stop-color="#DE15C5" stop-opacity="0.9"/>
<stop offset="1" stop-color="#DE15C5" stop-opacity="0"/>
</linearGradient>
<linearGradient id="paint46_linear" x1="459.601" y1="301.976" x2="459.601" y2="324" gradientUnits="userSpaceOnUse">
<stop offset="0.28125" stop-color="#DE15C5" stop-opacity="0.9"/>
<stop offset="1" stop-color="#DE15C5" stop-opacity="0"/>
</linearGradient>
<linearGradient id="paint47_linear" x1="467.864" y1="289.587" x2="467.864" y2="324" gradientUnits="userSpaceOnUse">
<stop offset="0.28125" stop-color="#DE15C5" stop-opacity="0.9"/>
<stop offset="1" stop-color="#DE15C5" stop-opacity="0"/>
</linearGradient>
<linearGradient id="paint48_linear" x1="476.127" y1="296.469" x2="476.127" y2="324" gradientUnits="userSpaceOnUse">
<stop offset="0.28125" stop-color="#DE15C5" stop-opacity="0.9"/>
<stop offset="1" stop-color="#DE15C5" stop-opacity="0"/>
</linearGradient>
<linearGradient id="paint49_linear" x1="500.917" y1="300.599" x2="500.917" y2="324" gradientUnits="userSpaceOnUse">
<stop offset="0.28125" stop-color="#DE15C5" stop-opacity="0.9"/>
<stop offset="1" stop-color="#DE15C5" stop-opacity="0"/>
</linearGradient>
<linearGradient id="paint50_linear" x1="509.18" y1="311.611" x2="509.18" y2="324" gradientUnits="userSpaceOnUse">
<stop offset="0.28125" stop-color="#DE15C5" stop-opacity="0.9"/>
<stop offset="1" stop-color="#DE15C5" stop-opacity="0"/>
</linearGradient>
<linearGradient id="paint51_linear" x1="542.232" y1="303.352" x2="542.232" y2="324" gradientUnits="userSpaceOnUse">
<stop offset="0.28125" stop-color="#DE15C5" stop-opacity="0.9"/>
<stop offset="1" stop-color="#DE15C5" stop-opacity="0"/>
</linearGradient>
<linearGradient id="paint52_linear" x1="550.496" y1="299.222" x2="550.496" y2="324" gradientUnits="userSpaceOnUse">
<stop offset="0.28125" stop-color="#DE15C5" stop-opacity="0.9"/>
<stop offset="1" stop-color="#DE15C5" stop-opacity="0"/>
</linearGradient>
<linearGradient id="paint53_linear" x1="567.022" y1="301.976" x2="567.022" y2="324" gradientUnits="userSpaceOnUse">
<stop offset="0.28125" stop-color="#DE15C5" stop-opacity="0.9"/>
<stop offset="1" stop-color="#DE15C5" stop-opacity="0"/>
</linearGradient>
<linearGradient id="paint54_linear" x1="575.285" y1="307.482" x2="575.285" y2="324" gradientUnits="userSpaceOnUse">
<stop offset="0.28125" stop-color="#DE15C5" stop-opacity="0.9"/>
<stop offset="1" stop-color="#DE15C5" stop-opacity="0"/>
</linearGradient>
<linearGradient id="paint55_linear" x1="583.548" y1="301.976" x2="583.548" y2="324" gradientUnits="userSpaceOnUse">
<stop offset="0.28125" stop-color="#DE15C5" stop-opacity="0.9"/>
<stop offset="1" stop-color="#DE15C5" stop-opacity="0"/>
</linearGradient>
<linearGradient id="paint56_linear" x1="608.338" y1="314.364" x2="608.338" y2="324" gradientUnits="userSpaceOnUse">
<stop offset="0.28125" stop-color="#DE15C5" stop-opacity="0.9"/>
<stop offset="1" stop-color="#DE15C5" stop-opacity="0"/>
</linearGradient>
<linearGradient id="paint57_linear" x1="616.601" y1="303.352" x2="616.601" y2="324" gradientUnits="userSpaceOnUse">
<stop offset="0.28125" stop-color="#DE15C5" stop-opacity="0.9"/>
<stop offset="1" stop-color="#DE15C5" stop-opacity="0"/>
</linearGradient>
<linearGradient id="paint58_linear" x1="649.653" y1="304.729" x2="649.653" y2="324" gradientUnits="userSpaceOnUse">
<stop offset="0.28125" stop-color="#DE15C5" stop-opacity="0.9"/>
<stop offset="1" stop-color="#DE15C5" stop-opacity="0"/>
</linearGradient>
<linearGradient id="paint59_linear" x1="657.917" y1="307.482" x2="657.917" y2="324" gradientUnits="userSpaceOnUse">
<stop offset="0.28125" stop-color="#DE15C5" stop-opacity="0.9"/>
<stop offset="1" stop-color="#DE15C5" stop-opacity="0"/>
</linearGradient>
<linearGradient id="paint60_linear" x1="368.706" y1="296.469" x2="368.706" y2="324" gradientUnits="userSpaceOnUse">
<stop offset="0.213542" stop-color="#62E7FF" stop-opacity="0.8"/>
<stop offset="0.807292" stop-color="#62E7FF" stop-opacity="0"/>
</linearGradient>
<linearGradient id="paint61_linear" x1="376.969" y1="296.469" x2="376.969" y2="324" gradientUnits="userSpaceOnUse">
<stop offset="0.213542" stop-color="#62E7FF" stop-opacity="0.8"/>
<stop offset="0.807292" stop-color="#62E7FF" stop-opacity="0"/>
</linearGradient>
<linearGradient id="paint62_linear" x1="277.811" y1="242.785" x2="277.811" y2="324" gradientUnits="userSpaceOnUse">
<stop offset="0.213542" stop-color="#62E7FF" stop-opacity="0.8"/>
<stop offset="0.807292" stop-color="#62E7FF" stop-opacity="0"/>
</linearGradient>
<linearGradient id="paint63_linear" x1="178.654" y1="255.174" x2="178.654" y2="324" gradientUnits="userSpaceOnUse">
<stop offset="0.213542" stop-color="#62E7FF" stop-opacity="0.8"/>
<stop offset="0.807292" stop-color="#62E7FF" stop-opacity="0"/>
</linearGradient>
<linearGradient id="paint64_linear" x1="96.022" y1="317.117" x2="96.022" y2="324" gradientUnits="userSpaceOnUse">
<stop offset="0.213542" stop-color="#62E7FF" stop-opacity="0.8"/>
<stop offset="0.807292" stop-color="#62E7FF" stop-opacity="0"/>
</linearGradient>
<linearGradient id="paint65_linear" x1="120.811" y1="317.117" x2="120.811" y2="324" gradientUnits="userSpaceOnUse">
<stop offset="0.213542" stop-color="#62E7FF" stop-opacity="0.8"/>
<stop offset="0.807292" stop-color="#62E7FF" stop-opacity="0"/>
</linearGradient>
<linearGradient id="paint66_linear" x1="62.9693" y1="318.494" x2="62.9693" y2="324" gradientUnits="userSpaceOnUse">
<stop offset="0.28125" stop-color="#DE15C5" stop-opacity="0.9"/>
<stop offset="1" stop-color="#DE15C5" stop-opacity="0"/>
</linearGradient>
<linearGradient id="paint67_linear" x1="104.285" y1="317.117" x2="104.285" y2="324" gradientUnits="userSpaceOnUse">
<stop offset="0.28125" stop-color="#DE15C5" stop-opacity="0.9"/>
<stop offset="1" stop-color="#DE15C5" stop-opacity="0"/>
</linearGradient>
<linearGradient id="paint68_linear" x1="112.548" y1="315.741" x2="112.548" y2="324" gradientUnits="userSpaceOnUse">
<stop offset="0.28125" stop-color="#DE15C5" stop-opacity="0.9"/>
<stop offset="1" stop-color="#DE15C5" stop-opacity="0"/>
</linearGradient>
<linearGradient id="paint69_linear" x1="186.917" y1="289.587" x2="186.917" y2="324" gradientUnits="userSpaceOnUse">
<stop offset="0.28125" stop-color="#DE15C5" stop-opacity="0.9"/>
<stop offset="1" stop-color="#DE15C5" stop-opacity="0"/>
</linearGradient>
<linearGradient id="paint70_linear" x1="211.706" y1="296.469" x2="211.706" y2="324" gradientUnits="userSpaceOnUse">
<stop offset="0.28125" stop-color="#DE15C5" stop-opacity="0.9"/>
<stop offset="1" stop-color="#DE15C5" stop-opacity="0"/>
</linearGradient>
<linearGradient id="paint71_linear" x1="244.759" y1="292.34" x2="244.759" y2="324" gradientUnits="userSpaceOnUse">
<stop offset="0.28125" stop-color="#DE15C5" stop-opacity="0.9"/>
<stop offset="1" stop-color="#DE15C5" stop-opacity="0"/>
</linearGradient>
<linearGradient id="paint72_linear" x1="261.285" y1="308.858" x2="261.285" y2="324" gradientUnits="userSpaceOnUse">
<stop offset="0.28125" stop-color="#DE15C5" stop-opacity="0.9"/>
<stop offset="1" stop-color="#DE15C5" stop-opacity="0"/>
</linearGradient>
<linearGradient id="paint73_linear" x1="319.127" y1="245.538" x2="319.127" y2="324" gradientUnits="userSpaceOnUse">
<stop offset="0.28125" stop-color="#DE15C5" stop-opacity="0.9"/>
<stop offset="1" stop-color="#DE15C5" stop-opacity="0"/>
</linearGradient>
<linearGradient id="paint74_linear" x1="343.917" y1="278.575" x2="343.917" y2="324" gradientUnits="userSpaceOnUse">
<stop offset="0.28125" stop-color="#DE15C5" stop-opacity="0.9"/>
<stop offset="1" stop-color="#DE15C5" stop-opacity="0"/>
</linearGradient>
<linearGradient id="paint75_linear" x1="352.18" y1="286.834" x2="352.18" y2="324" gradientUnits="userSpaceOnUse">
<stop offset="0.28125" stop-color="#DE15C5" stop-opacity="0.9"/>
<stop offset="1" stop-color="#DE15C5" stop-opacity="0"/>
</linearGradient>
<linearGradient id="paint76_linear" x1="219.969" y1="275.822" x2="219.969" y2="324" gradientUnits="userSpaceOnUse">
<stop offset="0.28125" stop-color="#DE15C5" stop-opacity="0.9"/>
<stop offset="1" stop-color="#DE15C5" stop-opacity="0"/>
</linearGradient>
<linearGradient id="paint77_linear" x1="203.443" y1="248.291" x2="203.443" y2="324" gradientUnits="userSpaceOnUse">
<stop offset="0.28125" stop-color="#DE15C5" stop-opacity="0.9"/>
<stop offset="1" stop-color="#DE15C5" stop-opacity="0"/>
</linearGradient>
<linearGradient id="paint78_linear" x1="443" y1="106.948" x2="443" y2="146.928" gradientUnits="userSpaceOnUse">
<stop stop-color="#FF80EF"/>
<stop offset="1" stop-color="#DE15C5"/>
</linearGradient>
<linearGradient id="paint79_linear" x1="443" y1="110.946" x2="443" y2="142.93" gradientUnits="userSpaceOnUse">
<stop stop-color="#FF80EF"/>
<stop offset="1" stop-color="#DE15C5"/>
</linearGradient>
<linearGradient id="paint80_linear" x1="66" y1="266.87" x2="66" y2="306.87" gradientUnits="userSpaceOnUse">
<stop stop-color="#FF80EF"/>
<stop offset="1" stop-color="#DE15C5"/>
</linearGradient>
<linearGradient id="paint81_linear" x1="66.0001" y1="270.87" x2="66.0001" y2="302.87" gradientUnits="userSpaceOnUse">
<stop stop-color="#FF80EF"/>
<stop offset="1" stop-color="#DE15C5"/>
</linearGradient>
<linearGradient id="paint82_linear" x1="299" y1="12.9939" x2="299" y2="52.9744" gradientUnits="userSpaceOnUse">
<stop stop-color="#8EEEFF"/>
<stop offset="1" stop-color="#0090AA"/>
</linearGradient>
<linearGradient id="paint83_linear" x1="299" y1="16.9917" x2="299" y2="48.9761" gradientUnits="userSpaceOnUse">
<stop stop-color="#8EEEFF"/>
<stop offset="1" stop-color="#0090AA"/>
</linearGradient>
<linearGradient id="paint84_linear" x1="651" y1="28.9861" x2="651" y2="68.9665" gradientUnits="userSpaceOnUse">
<stop stop-color="#8EEEFF"/>
<stop offset="1" stop-color="#0090AA"/>
</linearGradient>
<linearGradient id="paint85_linear" x1="651" y1="32.9841" x2="651" y2="64.9685" gradientUnits="userSpaceOnUse">
<stop stop-color="#8EEEFF"/>
<stop offset="1" stop-color="#0090AA"/>
</linearGradient>
</defs>
</svg>
