<svg width="672" height="333" viewBox="0 0 672 333" fill="none" xmlns="http://www.w3.org/2000/svg">
<path d="M0 305V332.294H670.693C670.925 246.753 671.249 74.866 670.693 71.6427C670.137 68.4195 663.513 61.8283 660.27 58.9356C655.407 53.9767 648.806 53.0469 643.247 55.8363C637.502 58.7193 635.951 70.403 629.35 71.6427C622.167 72.9918 621.359 75.052 618.58 77.8413C615.688 80.7438 612.327 83.1102 605.378 80.3208C599.819 78.0893 596.461 80.0108 595.303 83.1102C593.682 87.4492 588.244 96.1322 584.88 100.466C581.754 104.495 577.237 105.425 574.11 98.6067C570.929 91.6686 560.909 83.1102 555.002 83.1102C548.935 83.1102 549.444 89.3088 543.885 89.3088C538.326 89.3088 536.937 83.73 532.073 77.8413C527.209 71.9527 520.608 74.1222 518.871 80.3208C517.725 84.41 513.659 115.653 511.575 124.641C510.281 130.22 507.962 133.009 503.237 133.009C497.331 133.009 494.204 128.67 491.772 125.571C489.339 122.47 483.803 122.471 482.044 128.05C479.96 134.662 474.749 146.336 470.927 150.365C468.388 153.042 465.401 152.618 462.241 150.055C458.42 146.956 455.293 143.237 452.861 139.827C445.238 129.141 434.448 135.178 433.058 144.476L427.152 169.891C425.068 177.019 414.645 177.019 412.213 169.891C409.849 162.963 390.062 58.0058 384.419 40.0299C381.987 32.2816 376.481 33.1001 372.26 38.4802C369.828 41.5795 365.311 53.3569 362.879 63.5846C361.037 71.3328 352.109 70.403 350.372 63.5846C348.407 55.8703 343.424 27.3227 339.602 14.6156C338.204 9.96665 331.612 8.41702 328.832 13.9958C325.339 21.0079 317.504 68.4816 314.241 78.4612C311.809 85.8995 307.251 84.04 306.25 78.4612C305.787 75.8784 302.776 61.663 299.997 41.5795C299.224 36.0008 294.785 36.6206 293.743 42.8193C292.023 53.0469 287.143 69.4967 278.109 88.379C265.949 113.793 267.22 142.927 245.799 191.896C243.02 198.249 237.693 202.643 236.419 196.235C232.597 177.019 223.662 176.709 220.785 183.837C219.743 186.42 216.616 194.189 212.447 204.603C208.278 215.016 202.095 216.69 199.94 210.182C190.907 182.908 181.152 185.077 179.442 194.995C177.357 207.082 169.367 235.286 165.893 222.269C162.629 210.041 158.588 213.591 157.555 219.479C156.049 228.054 152.691 243.716 151.301 248.923C148.985 257.601 140.184 266.589 133.583 271.238C126.982 275.887 106.136 288.284 101.273 292.933C97.7058 296.342 91.8923 296.213 87.0284 295.412C79.501 294.173 62.5701 292.933 55.0658 297.892C47.5616 302.851 24.5 305 0 305Z" fill="url(#paint0_linear)" fill-opacity="0.2"/>
<path d="M0 305C13.5 306 47.5616 302.851 55.0658 297.892C62.5701 292.933 79.501 294.173 87.0284 295.412C91.8923 296.213 97.7058 296.342 101.273 292.933C106.136 288.284 126.982 275.887 133.583 271.238C140.184 266.589 148.985 257.601 151.301 248.923C152.691 243.716 156.049 228.054 157.555 219.479C158.588 213.591 162.629 210.041 165.893 222.269C169.367 235.286 177.357 207.082 179.442 194.995C181.152 185.077 190.907 182.908 199.94 210.182C202.095 216.69 208.278 215.016 212.447 204.603C216.616 194.189 219.743 186.42 220.785 183.837C223.662 176.709 232.597 177.019 236.419 196.235C237.693 202.643 243.02 198.249 245.799 191.896C267.22 142.927 265.949 113.793 278.109 88.379C287.143 69.4967 292.023 53.0469 293.743 42.8193C294.785 36.6206 299.224 36.0008 299.997 41.5795C302.776 61.663 305.787 75.8784 306.25 78.4612C307.251 84.04 311.809 85.8995 314.241 78.4612C317.503 68.4816 325.339 21.0079 328.832 13.9958C331.612 8.41702 338.204 9.96665 339.602 14.6156C343.424 27.3227 348.407 55.8703 350.372 63.5846C352.109 70.403 361.037 71.3328 362.879 63.5846C365.311 53.3569 369.828 41.5795 372.26 38.4802C376.481 33.1001 381.987 32.2816 384.419 40.0299C390.062 58.0058 409.849 162.963 412.213 169.891C414.645 177.019 425.067 177.019 427.152 169.891L433.058 144.476C434.448 135.178 445.238 129.141 452.861 139.827C455.293 143.237 458.42 146.956 462.241 150.055C465.401 152.618 468.388 153.042 470.927 150.365C474.748 146.336 479.96 134.662 482.044 128.05C483.803 122.471 489.339 122.47 491.772 125.571C494.204 128.67 497.331 133.009 503.237 133.009C507.962 133.009 510.281 130.22 511.575 124.641C513.659 115.653 517.725 84.41 518.871 80.3208C520.608 74.1222 527.209 71.9527 532.073 77.8413C536.937 83.73 538.326 89.3088 543.885 89.3088C549.444 89.3088 548.935 83.1102 555.002 83.1102C560.909 83.1102 570.929 91.6686 574.11 98.6067C577.237 105.425 581.754 104.495 584.88 100.466C588.244 96.1322 593.682 87.4492 595.303 83.1102C596.461 80.0109 599.819 78.0893 605.378 80.3208C612.327 83.1102 615.688 80.7438 618.58 77.8413C621.359 75.052 622.167 72.9918 629.35 71.6427C635.951 70.403 637.502 58.7193 643.247 55.8363C648.806 53.0469 655.407 53.9767 660.27 58.9356C663.513 61.8283 670.137 68.4195 670.693 71.6427" stroke="#00B545" stroke-width="2" stroke-linecap="round" stroke-linejoin="round"/>
<rect x="43" y="327.338" width="6.88596" height="4.82018" fill="url(#paint1_linear)" fill-opacity="0.2"/>
<rect x="67.7894" y="323.895" width="6.88596" height="8.26316" fill="url(#paint2_linear)" fill-opacity="0.2"/>
<rect x="51.2632" y="326.649" width="6.88596" height="5.50877" fill="url(#paint3_linear)" fill-opacity="0.2"/>
<rect x="76.0526" y="322.518" width="6.88596" height="9.64035" fill="url(#paint4_linear)" fill-opacity="0.2"/>
<rect x="84.3158" y="318.386" width="6.88596" height="13.7719" fill="url(#paint5_linear)" fill-opacity="0.2"/>
<rect x="133.895" y="318.386" width="6.88596" height="13.7719" fill="url(#paint6_linear)" fill-opacity="0.2"/>
<rect x="142.158" y="321.14" width="6.88596" height="11.0175" fill="url(#paint7_linear)" fill-opacity="0.2"/>
<rect x="125.632" y="314.254" width="6.88596" height="17.9035" fill="url(#paint8_linear)" fill-opacity="0.2"/>
<rect x="158.684" y="312.877" width="6.88596" height="19.2807" fill="url(#paint9_linear)" fill-opacity="0.2"/>
<rect x="150.421" y="311.5" width="6.88596" height="20.6579" fill="url(#paint10_linear)" fill-opacity="0.2"/>
<rect x="150.421" y="311.5" width="6.88596" height="20.6579" fill="url(#paint11_linear)" fill-opacity="0.2"/>
<rect x="166.947" y="301.86" width="6.88596" height="30.2982" fill="url(#paint12_linear)" fill-opacity="0.2"/>
<rect x="191.737" y="286.71" width="6.88596" height="45.4474" fill="url(#paint13_linear)" fill-opacity="0.2"/>
<rect x="224.789" y="299.105" width="6.88596" height="33.0526" fill="url(#paint14_linear)" fill-opacity="0.2"/>
<rect x="233.053" y="297.728" width="6.88596" height="34.4298" fill="url(#paint15_linear)" fill-opacity="0.2"/>
<rect x="249.579" y="307.368" width="6.88596" height="24.7895" fill="url(#paint16_linear)" fill-opacity="0.2"/>
<rect x="266.105" y="300.482" width="6.88596" height="31.6754" fill="url(#paint17_linear)" fill-opacity="0.2"/>
<rect x="282.632" y="294.974" width="6.88596" height="37.1842" fill="url(#paint18_linear)" fill-opacity="0.2"/>
<rect x="290.895" y="278.447" width="6.88596" height="53.7105" fill="url(#paint19_linear)" fill-opacity="0.2"/>
<rect x="299.158" y="285.333" width="6.88596" height="46.8246" fill="url(#paint20_linear)" fill-opacity="0.2"/>
<rect x="307.421" y="233" width="6.88596" height="99.1579" fill="url(#paint21_linear)" fill-opacity="0.2"/>
<rect x="323.947" y="270.184" width="6.88596" height="61.9737" fill="url(#paint22_linear)" fill-opacity="0.2"/>
<rect x="332.211" y="285.333" width="6.88596" height="46.8246" fill="url(#paint23_linear)" fill-opacity="0.2"/>
<rect x="357" y="300.482" width="6.88596" height="31.6754" fill="url(#paint24_linear)" fill-opacity="0.2"/>
<rect x="381.789" y="297.728" width="6.88596" height="34.4298" fill="url(#paint25_linear)" fill-opacity="0.2"/>
<rect x="439.632" y="290.842" width="6.88596" height="41.3158" fill="url(#paint26_linear)" fill-opacity="0.2"/>
<rect x="447.895" y="289.465" width="6.88596" height="42.693" fill="url(#paint27_linear)" fill-opacity="0.2"/>
<rect x="480.947" y="314.254" width="6.88596" height="17.9035" fill="url(#paint28_linear)" fill-opacity="0.2"/>
<rect x="489.211" y="311.5" width="6.88596" height="20.6579" fill="url(#paint29_linear)" fill-opacity="0.2"/>
<rect x="514" y="318.386" width="6.88596" height="13.7719" fill="url(#paint30_linear)" fill-opacity="0.2"/>
<rect x="522.263" y="286.71" width="6.88596" height="45.4474" fill="url(#paint31_linear)" fill-opacity="0.2"/>
<rect x="555.316" y="317.009" width="6.88596" height="15.1491" fill="url(#paint32_linear)" fill-opacity="0.2"/>
<rect x="588.368" y="317.009" width="6.88596" height="15.1491" fill="url(#paint33_linear)" fill-opacity="0.2"/>
<rect x="662.737" y="314.254" width="6.88596" height="17.9035" fill="url(#paint34_linear)" fill-opacity="0.2"/>
<rect x="596.632" y="305.991" width="6.88596" height="26.1667" fill="url(#paint35_linear)" fill-opacity="0.2"/>
<rect x="621.421" y="283.956" width="6.88596" height="48.2018" fill="url(#paint36_linear)" fill-opacity="0.2"/>
<rect x="629.684" y="304.614" width="6.88596" height="27.5439" fill="url(#paint37_linear)" fill-opacity="0.2"/>
<rect x="637.947" y="308.746" width="6.88596" height="23.4123" fill="url(#paint38_linear)" fill-opacity="0.2"/>
<rect x="530.526" y="278.447" width="6.88596" height="53.7105" fill="url(#paint39_linear)" fill-opacity="0.2"/>
<rect x="390.053" y="272.938" width="6.88596" height="59.2193" fill="url(#paint40_linear)" fill-opacity="0.2"/>
<rect x="414.842" y="260.544" width="6.88596" height="71.614" fill="url(#paint41_linear)" fill-opacity="0.2"/>
<rect x="398.316" y="279.824" width="6.88596" height="52.3333" fill="url(#paint42_linear)" fill-opacity="0.2"/>
<rect x="406.579" y="281.202" width="6.88596" height="50.9561" fill="url(#paint43_linear)" fill-opacity="0.2"/>
<rect x="423.105" y="289.465" width="6.88596" height="42.693" fill="url(#paint44_linear)" fill-opacity="0.2"/>
<rect x="431.368" y="282.579" width="6.88596" height="49.5789" fill="url(#paint45_linear)" fill-opacity="0.2"/>
<rect x="456.158" y="310.123" width="6.88596" height="22.0351" fill="url(#paint46_linear)" fill-opacity="0.2"/>
<rect x="464.421" y="297.728" width="6.88596" height="34.4298" fill="url(#paint47_linear)" fill-opacity="0.2"/>
<rect x="472.684" y="304.614" width="6.88596" height="27.5439" fill="url(#paint48_linear)" fill-opacity="0.2"/>
<rect x="497.474" y="308.746" width="6.88596" height="23.4123" fill="url(#paint49_linear)" fill-opacity="0.2"/>
<rect x="505.737" y="319.763" width="6.88596" height="12.3947" fill="url(#paint50_linear)" fill-opacity="0.2"/>
<rect x="538.789" y="311.5" width="6.88596" height="20.6579" fill="url(#paint51_linear)" fill-opacity="0.2"/>
<rect x="547.053" y="307.368" width="6.88596" height="24.7895" fill="url(#paint52_linear)" fill-opacity="0.2"/>
<rect x="563.579" y="310.123" width="6.88596" height="22.0351" fill="url(#paint53_linear)" fill-opacity="0.2"/>
<rect x="571.842" y="315.632" width="6.88596" height="16.5263" fill="url(#paint54_linear)" fill-opacity="0.2"/>
<rect x="580.105" y="310.123" width="6.88596" height="22.0351" fill="url(#paint55_linear)" fill-opacity="0.2"/>
<rect x="604.895" y="322.518" width="6.88596" height="9.64035" fill="url(#paint56_linear)" fill-opacity="0.2"/>
<rect x="613.158" y="311.5" width="6.88596" height="20.6579" fill="url(#paint57_linear)" fill-opacity="0.2"/>
<rect x="646.21" y="312.877" width="6.88596" height="19.2807" fill="url(#paint58_linear)" fill-opacity="0.2"/>
<rect x="654.474" y="315.632" width="6.88596" height="16.5263" fill="url(#paint59_linear)" fill-opacity="0.2"/>
<rect x="365.263" y="304.614" width="6.88596" height="27.5439" fill="url(#paint60_linear)" fill-opacity="0.2"/>
<rect x="373.526" y="304.614" width="6.88596" height="27.5439" fill="url(#paint61_linear)" fill-opacity="0.2"/>
<rect x="274.368" y="250.904" width="6.88596" height="81.2544" fill="url(#paint62_linear)" fill-opacity="0.2"/>
<rect x="175.211" y="263.298" width="6.88596" height="68.8596" fill="url(#paint63_linear)" fill-opacity="0.2"/>
<rect x="92.579" y="325.272" width="6.88596" height="6.88596" fill="url(#paint64_linear)" fill-opacity="0.2"/>
<rect x="117.368" y="325.272" width="6.88596" height="6.88596" fill="url(#paint65_linear)" fill-opacity="0.2"/>
<rect x="59.5264" y="326.649" width="6.88596" height="5.50877" fill="url(#paint66_linear)" fill-opacity="0.2"/>
<rect x="100.842" y="325.272" width="6.88596" height="6.88596" fill="url(#paint67_linear)" fill-opacity="0.2"/>
<rect x="109.105" y="323.895" width="6.88596" height="8.26316" fill="url(#paint68_linear)" fill-opacity="0.2"/>
<rect x="183.474" y="297.728" width="6.88596" height="34.4298" fill="url(#paint69_linear)" fill-opacity="0.2"/>
<rect x="208.263" y="304.614" width="6.88596" height="27.5439" fill="url(#paint70_linear)" fill-opacity="0.2"/>
<rect x="241.316" y="300.482" width="6.88596" height="31.6754" fill="url(#paint71_linear)" fill-opacity="0.2"/>
<rect x="257.842" y="317.009" width="6.88596" height="15.1491" fill="url(#paint72_linear)" fill-opacity="0.2"/>
<rect x="315.684" y="253.658" width="6.88596" height="78.5" fill="url(#paint73_linear)" fill-opacity="0.2"/>
<rect x="340.474" y="286.71" width="6.88596" height="45.4474" fill="url(#paint74_linear)" fill-opacity="0.2"/>
<rect x="348.737" y="294.974" width="6.88596" height="37.1842" fill="url(#paint75_linear)" fill-opacity="0.2"/>
<rect x="216.526" y="283.956" width="6.88596" height="48.2018" fill="url(#paint76_linear)" fill-opacity="0.2"/>
<rect x="200" y="256.412" width="6.88596" height="75.7456" fill="url(#paint77_linear)" fill-opacity="0.2"/>
<circle cx="240" cy="195" r="15" fill="url(#paint78_linear)" fill-opacity="0.2"/>
<circle cx="240" cy="195" r="12" fill="url(#paint79_linear)"/>
<circle cx="467" cy="150" r="15" fill="url(#paint80_linear)" fill-opacity="0.2"/>
<circle cx="467" cy="150" r="12" fill="url(#paint81_linear)"/>
<circle cx="69" cy="296" r="15" fill="url(#paint82_linear)" fill-opacity="0.2"/>
<circle cx="69.0001" cy="296" r="12" fill="url(#paint83_linear)"/>
<circle cx="334" cy="15" r="15" fill="url(#paint84_linear)" fill-opacity="0.2"/>
<circle cx="334" cy="15" r="12" fill="url(#paint85_linear)"/>
<circle cx="630" cy="72" r="15" fill="url(#paint86_linear)" fill-opacity="0.2"/>
<circle cx="630" cy="72" r="12" fill="url(#paint87_linear)"/>
<circle cx="159" cy="218" r="15" fill="url(#paint88_linear)" fill-opacity="0.2"/>
<circle cx="159" cy="218" r="12" fill="url(#paint89_linear)"/>
<defs>
<linearGradient id="paint0_linear" x1="335.5" y1="10.4277" x2="335.5" y2="332.294" gradientUnits="userSpaceOnUse">
<stop offset="0.213542" stop-color="#00B545" stop-opacity="0.8"/>
<stop offset="1" stop-color="#00B545" stop-opacity="0"/>
</linearGradient>
<linearGradient id="paint1_linear" x1="46.443" y1="327.338" x2="46.443" y2="332.158" gradientUnits="userSpaceOnUse">
<stop offset="0.213542" stop-color="#00B545" stop-opacity="0.8"/>
<stop offset="1" stop-color="#00B545" stop-opacity="0"/>
</linearGradient>
<linearGradient id="paint2_linear" x1="71.2324" y1="323.895" x2="71.2324" y2="332.158" gradientUnits="userSpaceOnUse">
<stop offset="0.213542" stop-color="#00B545" stop-opacity="0.8"/>
<stop offset="1" stop-color="#00B545" stop-opacity="0"/>
</linearGradient>
<linearGradient id="paint3_linear" x1="54.7062" y1="326.649" x2="54.7062" y2="332.158" gradientUnits="userSpaceOnUse">
<stop offset="0.213542" stop-color="#00B545" stop-opacity="0.8"/>
<stop offset="1" stop-color="#00B545" stop-opacity="0"/>
</linearGradient>
<linearGradient id="paint4_linear" x1="79.4956" y1="322.518" x2="79.4956" y2="332.158" gradientUnits="userSpaceOnUse">
<stop offset="0.213542" stop-color="#00B545" stop-opacity="0.8"/>
<stop offset="1" stop-color="#00B545" stop-opacity="0"/>
</linearGradient>
<linearGradient id="paint5_linear" x1="87.7588" y1="318.386" x2="87.7588" y2="332.158" gradientUnits="userSpaceOnUse">
<stop offset="0.213542" stop-color="#00B545" stop-opacity="0.8"/>
<stop offset="1" stop-color="#00B545" stop-opacity="0"/>
</linearGradient>
<linearGradient id="paint6_linear" x1="137.338" y1="318.386" x2="137.338" y2="332.158" gradientUnits="userSpaceOnUse">
<stop offset="0.213542" stop-color="#00B545" stop-opacity="0.8"/>
<stop offset="1" stop-color="#00B545" stop-opacity="0"/>
</linearGradient>
<linearGradient id="paint7_linear" x1="145.601" y1="321.14" x2="145.601" y2="332.158" gradientUnits="userSpaceOnUse">
<stop offset="0.213542" stop-color="#00B545" stop-opacity="0.8"/>
<stop offset="1" stop-color="#00B545" stop-opacity="0"/>
</linearGradient>
<linearGradient id="paint8_linear" x1="129.075" y1="314.254" x2="129.075" y2="332.158" gradientUnits="userSpaceOnUse">
<stop offset="0.213542" stop-color="#00B545" stop-opacity="0.8"/>
<stop offset="1" stop-color="#00B545" stop-opacity="0"/>
</linearGradient>
<linearGradient id="paint9_linear" x1="162.127" y1="312.877" x2="162.127" y2="332.158" gradientUnits="userSpaceOnUse">
<stop offset="0.213542" stop-color="#00B545" stop-opacity="0.8"/>
<stop offset="1" stop-color="#00B545" stop-opacity="0"/>
</linearGradient>
<linearGradient id="paint10_linear" x1="153.864" y1="311.5" x2="153.864" y2="332.158" gradientUnits="userSpaceOnUse">
<stop offset="0.213542" stop-color="#00B545" stop-opacity="0.8"/>
<stop offset="1" stop-color="#00B545" stop-opacity="0"/>
</linearGradient>
<linearGradient id="paint11_linear" x1="153.864" y1="311.5" x2="153.864" y2="332.158" gradientUnits="userSpaceOnUse">
<stop offset="0.213542" stop-color="#00B545" stop-opacity="0.8"/>
<stop offset="1" stop-color="#00B545" stop-opacity="0"/>
</linearGradient>
<linearGradient id="paint12_linear" x1="170.39" y1="301.86" x2="170.39" y2="332.158" gradientUnits="userSpaceOnUse">
<stop offset="0.213542" stop-color="#00B545" stop-opacity="0.8"/>
<stop offset="1" stop-color="#00B545" stop-opacity="0"/>
</linearGradient>
<linearGradient id="paint13_linear" x1="195.18" y1="286.71" x2="195.18" y2="332.158" gradientUnits="userSpaceOnUse">
<stop offset="0.213542" stop-color="#00B545" stop-opacity="0.8"/>
<stop offset="1" stop-color="#00B545" stop-opacity="0"/>
</linearGradient>
<linearGradient id="paint14_linear" x1="228.232" y1="299.105" x2="228.232" y2="332.158" gradientUnits="userSpaceOnUse">
<stop offset="0.213542" stop-color="#00B545" stop-opacity="0.8"/>
<stop offset="1" stop-color="#00B545" stop-opacity="0"/>
</linearGradient>
<linearGradient id="paint15_linear" x1="236.496" y1="297.728" x2="236.496" y2="332.158" gradientUnits="userSpaceOnUse">
<stop offset="0.213542" stop-color="#00B545" stop-opacity="0.8"/>
<stop offset="1" stop-color="#00B545" stop-opacity="0"/>
</linearGradient>
<linearGradient id="paint16_linear" x1="253.022" y1="307.368" x2="253.022" y2="332.158" gradientUnits="userSpaceOnUse">
<stop offset="0.213542" stop-color="#00B545" stop-opacity="0.8"/>
<stop offset="1" stop-color="#00B545" stop-opacity="0"/>
</linearGradient>
<linearGradient id="paint17_linear" x1="269.548" y1="300.482" x2="269.548" y2="332.158" gradientUnits="userSpaceOnUse">
<stop offset="0.213542" stop-color="#00B545" stop-opacity="0.8"/>
<stop offset="1" stop-color="#00B545" stop-opacity="0"/>
</linearGradient>
<linearGradient id="paint18_linear" x1="286.075" y1="294.974" x2="286.075" y2="332.158" gradientUnits="userSpaceOnUse">
<stop offset="0.213542" stop-color="#00B545" stop-opacity="0.8"/>
<stop offset="1" stop-color="#00B545" stop-opacity="0"/>
</linearGradient>
<linearGradient id="paint19_linear" x1="294.338" y1="278.447" x2="294.338" y2="332.158" gradientUnits="userSpaceOnUse">
<stop offset="0.213542" stop-color="#00B545" stop-opacity="0.8"/>
<stop offset="1" stop-color="#00B545" stop-opacity="0"/>
</linearGradient>
<linearGradient id="paint20_linear" x1="302.601" y1="285.333" x2="302.601" y2="332.158" gradientUnits="userSpaceOnUse">
<stop offset="0.213542" stop-color="#00B545" stop-opacity="0.8"/>
<stop offset="1" stop-color="#00B545" stop-opacity="0"/>
</linearGradient>
<linearGradient id="paint21_linear" x1="310.864" y1="233" x2="310.864" y2="332.158" gradientUnits="userSpaceOnUse">
<stop offset="0.213542" stop-color="#00B545" stop-opacity="0.8"/>
<stop offset="1" stop-color="#00B545" stop-opacity="0"/>
</linearGradient>
<linearGradient id="paint22_linear" x1="327.39" y1="270.184" x2="327.39" y2="332.158" gradientUnits="userSpaceOnUse">
<stop offset="0.213542" stop-color="#00B545" stop-opacity="0.8"/>
<stop offset="1" stop-color="#00B545" stop-opacity="0"/>
</linearGradient>
<linearGradient id="paint23_linear" x1="335.654" y1="285.333" x2="335.654" y2="332.158" gradientUnits="userSpaceOnUse">
<stop offset="0.213542" stop-color="#00B545" stop-opacity="0.8"/>
<stop offset="1" stop-color="#00B545" stop-opacity="0"/>
</linearGradient>
<linearGradient id="paint24_linear" x1="360.443" y1="300.482" x2="360.443" y2="332.158" gradientUnits="userSpaceOnUse">
<stop offset="0.213542" stop-color="#00B545" stop-opacity="0.8"/>
<stop offset="1" stop-color="#00B545" stop-opacity="0"/>
</linearGradient>
<linearGradient id="paint25_linear" x1="385.232" y1="297.728" x2="385.232" y2="332.158" gradientUnits="userSpaceOnUse">
<stop offset="0.213542" stop-color="#00B545" stop-opacity="0.8"/>
<stop offset="1" stop-color="#00B545" stop-opacity="0"/>
</linearGradient>
<linearGradient id="paint26_linear" x1="443.075" y1="290.842" x2="443.075" y2="332.158" gradientUnits="userSpaceOnUse">
<stop offset="0.213542" stop-color="#00B545" stop-opacity="0.8"/>
<stop offset="1" stop-color="#00B545" stop-opacity="0"/>
</linearGradient>
<linearGradient id="paint27_linear" x1="451.338" y1="289.465" x2="451.338" y2="332.158" gradientUnits="userSpaceOnUse">
<stop offset="0.213542" stop-color="#00B545" stop-opacity="0.8"/>
<stop offset="1" stop-color="#00B545" stop-opacity="0"/>
</linearGradient>
<linearGradient id="paint28_linear" x1="484.39" y1="314.254" x2="484.39" y2="332.158" gradientUnits="userSpaceOnUse">
<stop offset="0.213542" stop-color="#00B545" stop-opacity="0.8"/>
<stop offset="1" stop-color="#00B545" stop-opacity="0"/>
</linearGradient>
<linearGradient id="paint29_linear" x1="492.654" y1="311.5" x2="492.654" y2="332.158" gradientUnits="userSpaceOnUse">
<stop offset="0.213542" stop-color="#00B545" stop-opacity="0.8"/>
<stop offset="1" stop-color="#00B545" stop-opacity="0"/>
</linearGradient>
<linearGradient id="paint30_linear" x1="517.443" y1="318.386" x2="517.443" y2="332.158" gradientUnits="userSpaceOnUse">
<stop offset="0.213542" stop-color="#00B545" stop-opacity="0.8"/>
<stop offset="1" stop-color="#00B545" stop-opacity="0"/>
</linearGradient>
<linearGradient id="paint31_linear" x1="525.706" y1="286.71" x2="525.706" y2="332.158" gradientUnits="userSpaceOnUse">
<stop offset="0.213542" stop-color="#00B545" stop-opacity="0.8"/>
<stop offset="1" stop-color="#00B545" stop-opacity="0"/>
</linearGradient>
<linearGradient id="paint32_linear" x1="558.759" y1="317.009" x2="558.759" y2="332.158" gradientUnits="userSpaceOnUse">
<stop offset="0.213542" stop-color="#00B545" stop-opacity="0.8"/>
<stop offset="1" stop-color="#00B545" stop-opacity="0"/>
</linearGradient>
<linearGradient id="paint33_linear" x1="591.811" y1="317.009" x2="591.811" y2="332.158" gradientUnits="userSpaceOnUse">
<stop offset="0.213542" stop-color="#00B545" stop-opacity="0.8"/>
<stop offset="1" stop-color="#00B545" stop-opacity="0"/>
</linearGradient>
<linearGradient id="paint34_linear" x1="666.18" y1="314.254" x2="666.18" y2="332.158" gradientUnits="userSpaceOnUse">
<stop offset="0.213542" stop-color="#00B545" stop-opacity="0.8"/>
<stop offset="1" stop-color="#00B545" stop-opacity="0"/>
</linearGradient>
<linearGradient id="paint35_linear" x1="600.075" y1="305.991" x2="600.075" y2="332.158" gradientUnits="userSpaceOnUse">
<stop offset="0.213542" stop-color="#00B545" stop-opacity="0.8"/>
<stop offset="1" stop-color="#00B545" stop-opacity="0"/>
</linearGradient>
<linearGradient id="paint36_linear" x1="624.864" y1="283.956" x2="624.864" y2="332.158" gradientUnits="userSpaceOnUse">
<stop offset="0.213542" stop-color="#00B545" stop-opacity="0.8"/>
<stop offset="1" stop-color="#00B545" stop-opacity="0"/>
</linearGradient>
<linearGradient id="paint37_linear" x1="633.127" y1="304.614" x2="633.127" y2="332.158" gradientUnits="userSpaceOnUse">
<stop offset="0.213542" stop-color="#00B545" stop-opacity="0.8"/>
<stop offset="1" stop-color="#00B545" stop-opacity="0"/>
</linearGradient>
<linearGradient id="paint38_linear" x1="641.39" y1="308.746" x2="641.39" y2="332.158" gradientUnits="userSpaceOnUse">
<stop offset="0.213542" stop-color="#00B545" stop-opacity="0.8"/>
<stop offset="1" stop-color="#00B545" stop-opacity="0"/>
</linearGradient>
<linearGradient id="paint39_linear" x1="533.969" y1="278.447" x2="533.969" y2="332.158" gradientUnits="userSpaceOnUse">
<stop offset="0.213542" stop-color="#00B545" stop-opacity="0.8"/>
<stop offset="1" stop-color="#00B545" stop-opacity="0"/>
</linearGradient>
<linearGradient id="paint40_linear" x1="393.496" y1="272.938" x2="393.496" y2="332.158" gradientUnits="userSpaceOnUse">
<stop offset="0.28125" stop-color="#A5000A" stop-opacity="0.9"/>
<stop offset="1" stop-color="#FF0110" stop-opacity="0"/>
</linearGradient>
<linearGradient id="paint41_linear" x1="418.285" y1="260.544" x2="418.285" y2="332.158" gradientUnits="userSpaceOnUse">
<stop offset="0.213542" stop-color="#00B545" stop-opacity="0.8"/>
<stop offset="1" stop-color="#00B545" stop-opacity="0"/>
</linearGradient>
<linearGradient id="paint42_linear" x1="401.759" y1="279.824" x2="401.759" y2="332.158" gradientUnits="userSpaceOnUse">
<stop offset="0.28125" stop-color="#A5000A" stop-opacity="0.9"/>
<stop offset="1" stop-color="#FF0110" stop-opacity="0"/>
</linearGradient>
<linearGradient id="paint43_linear" x1="410.022" y1="281.202" x2="410.022" y2="332.158" gradientUnits="userSpaceOnUse">
<stop offset="0.28125" stop-color="#A5000A" stop-opacity="0.9"/>
<stop offset="1" stop-color="#FF0110" stop-opacity="0"/>
</linearGradient>
<linearGradient id="paint44_linear" x1="426.548" y1="289.465" x2="426.548" y2="332.158" gradientUnits="userSpaceOnUse">
<stop offset="0.28125" stop-color="#A5000A" stop-opacity="0.9"/>
<stop offset="1" stop-color="#FF0110" stop-opacity="0"/>
</linearGradient>
<linearGradient id="paint45_linear" x1="434.811" y1="282.579" x2="434.811" y2="332.158" gradientUnits="userSpaceOnUse">
<stop offset="0.28125" stop-color="#A5000A" stop-opacity="0.9"/>
<stop offset="1" stop-color="#FF0110" stop-opacity="0"/>
</linearGradient>
<linearGradient id="paint46_linear" x1="459.601" y1="310.123" x2="459.601" y2="332.158" gradientUnits="userSpaceOnUse">
<stop offset="0.28125" stop-color="#A5000A" stop-opacity="0.9"/>
<stop offset="1" stop-color="#FF0110" stop-opacity="0"/>
</linearGradient>
<linearGradient id="paint47_linear" x1="467.864" y1="297.728" x2="467.864" y2="332.158" gradientUnits="userSpaceOnUse">
<stop offset="0.28125" stop-color="#A5000A" stop-opacity="0.9"/>
<stop offset="1" stop-color="#FF0110" stop-opacity="0"/>
</linearGradient>
<linearGradient id="paint48_linear" x1="476.127" y1="304.614" x2="476.127" y2="332.158" gradientUnits="userSpaceOnUse">
<stop offset="0.28125" stop-color="#A5000A" stop-opacity="0.9"/>
<stop offset="1" stop-color="#FF0110" stop-opacity="0"/>
</linearGradient>
<linearGradient id="paint49_linear" x1="500.917" y1="308.746" x2="500.917" y2="332.158" gradientUnits="userSpaceOnUse">
<stop offset="0.28125" stop-color="#A5000A" stop-opacity="0.9"/>
<stop offset="1" stop-color="#FF0110" stop-opacity="0"/>
</linearGradient>
<linearGradient id="paint50_linear" x1="509.18" y1="319.763" x2="509.18" y2="332.158" gradientUnits="userSpaceOnUse">
<stop offset="0.28125" stop-color="#A5000A" stop-opacity="0.9"/>
<stop offset="1" stop-color="#FF0110" stop-opacity="0"/>
</linearGradient>
<linearGradient id="paint51_linear" x1="542.232" y1="311.5" x2="542.232" y2="332.158" gradientUnits="userSpaceOnUse">
<stop offset="0.28125" stop-color="#A5000A" stop-opacity="0.9"/>
<stop offset="1" stop-color="#FF0110" stop-opacity="0"/>
</linearGradient>
<linearGradient id="paint52_linear" x1="550.496" y1="307.368" x2="550.496" y2="332.158" gradientUnits="userSpaceOnUse">
<stop offset="0.28125" stop-color="#A5000A" stop-opacity="0.9"/>
<stop offset="1" stop-color="#FF0110" stop-opacity="0"/>
</linearGradient>
<linearGradient id="paint53_linear" x1="567.022" y1="310.123" x2="567.022" y2="332.158" gradientUnits="userSpaceOnUse">
<stop offset="0.28125" stop-color="#A5000A" stop-opacity="0.9"/>
<stop offset="1" stop-color="#FF0110" stop-opacity="0"/>
</linearGradient>
<linearGradient id="paint54_linear" x1="575.285" y1="315.632" x2="575.285" y2="332.158" gradientUnits="userSpaceOnUse">
<stop offset="0.28125" stop-color="#A5000A" stop-opacity="0.9"/>
<stop offset="1" stop-color="#FF0110" stop-opacity="0"/>
</linearGradient>
<linearGradient id="paint55_linear" x1="583.548" y1="310.123" x2="583.548" y2="332.158" gradientUnits="userSpaceOnUse">
<stop offset="0.28125" stop-color="#A5000A" stop-opacity="0.9"/>
<stop offset="1" stop-color="#FF0110" stop-opacity="0"/>
</linearGradient>
<linearGradient id="paint56_linear" x1="608.338" y1="322.518" x2="608.338" y2="332.158" gradientUnits="userSpaceOnUse">
<stop offset="0.28125" stop-color="#A5000A" stop-opacity="0.9"/>
<stop offset="1" stop-color="#FF0110" stop-opacity="0"/>
</linearGradient>
<linearGradient id="paint57_linear" x1="616.601" y1="311.5" x2="616.601" y2="332.158" gradientUnits="userSpaceOnUse">
<stop offset="0.28125" stop-color="#A5000A" stop-opacity="0.9"/>
<stop offset="1" stop-color="#FF0110" stop-opacity="0"/>
</linearGradient>
<linearGradient id="paint58_linear" x1="649.653" y1="312.877" x2="649.653" y2="332.158" gradientUnits="userSpaceOnUse">
<stop offset="0.28125" stop-color="#A5000A" stop-opacity="0.9"/>
<stop offset="1" stop-color="#FF0110" stop-opacity="0"/>
</linearGradient>
<linearGradient id="paint59_linear" x1="657.917" y1="315.632" x2="657.917" y2="332.158" gradientUnits="userSpaceOnUse">
<stop offset="0.28125" stop-color="#A5000A" stop-opacity="0.9"/>
<stop offset="1" stop-color="#FF0110" stop-opacity="0"/>
</linearGradient>
<linearGradient id="paint60_linear" x1="368.706" y1="304.614" x2="368.706" y2="332.158" gradientUnits="userSpaceOnUse">
<stop offset="0.213542" stop-color="#00B545" stop-opacity="0.8"/>
<stop offset="1" stop-color="#00B545" stop-opacity="0"/>
</linearGradient>
<linearGradient id="paint61_linear" x1="376.969" y1="304.614" x2="376.969" y2="332.158" gradientUnits="userSpaceOnUse">
<stop offset="0.213542" stop-color="#00B545" stop-opacity="0.8"/>
<stop offset="1" stop-color="#00B545" stop-opacity="0"/>
</linearGradient>
<linearGradient id="paint62_linear" x1="277.811" y1="250.904" x2="277.811" y2="332.158" gradientUnits="userSpaceOnUse">
<stop offset="0.213542" stop-color="#00B545" stop-opacity="0.8"/>
<stop offset="1" stop-color="#00B545" stop-opacity="0"/>
</linearGradient>
<linearGradient id="paint63_linear" x1="178.654" y1="263.298" x2="178.654" y2="332.158" gradientUnits="userSpaceOnUse">
<stop offset="0.213542" stop-color="#00B545" stop-opacity="0.8"/>
<stop offset="1" stop-color="#00B545" stop-opacity="0"/>
</linearGradient>
<linearGradient id="paint64_linear" x1="96.022" y1="325.272" x2="96.022" y2="332.158" gradientUnits="userSpaceOnUse">
<stop offset="0.213542" stop-color="#00B545" stop-opacity="0.8"/>
<stop offset="1" stop-color="#00B545" stop-opacity="0"/>
</linearGradient>
<linearGradient id="paint65_linear" x1="120.811" y1="325.272" x2="120.811" y2="332.158" gradientUnits="userSpaceOnUse">
<stop offset="0.213542" stop-color="#00B545" stop-opacity="0.8"/>
<stop offset="1" stop-color="#00B545" stop-opacity="0"/>
</linearGradient>
<linearGradient id="paint66_linear" x1="62.9693" y1="326.649" x2="62.9693" y2="332.158" gradientUnits="userSpaceOnUse">
<stop offset="0.28125" stop-color="#A5000A" stop-opacity="0.9"/>
<stop offset="1" stop-color="#FF0110" stop-opacity="0"/>
</linearGradient>
<linearGradient id="paint67_linear" x1="104.285" y1="325.272" x2="104.285" y2="332.158" gradientUnits="userSpaceOnUse">
<stop offset="0.28125" stop-color="#A5000A" stop-opacity="0.9"/>
<stop offset="1" stop-color="#FF0110" stop-opacity="0"/>
</linearGradient>
<linearGradient id="paint68_linear" x1="112.548" y1="323.895" x2="112.548" y2="332.158" gradientUnits="userSpaceOnUse">
<stop offset="0.28125" stop-color="#A5000A" stop-opacity="0.9"/>
<stop offset="1" stop-color="#FF0110" stop-opacity="0"/>
</linearGradient>
<linearGradient id="paint69_linear" x1="186.917" y1="297.728" x2="186.917" y2="332.158" gradientUnits="userSpaceOnUse">
<stop offset="0.28125" stop-color="#A5000A" stop-opacity="0.9"/>
<stop offset="1" stop-color="#FF0110" stop-opacity="0"/>
</linearGradient>
<linearGradient id="paint70_linear" x1="211.706" y1="304.614" x2="211.706" y2="332.158" gradientUnits="userSpaceOnUse">
<stop offset="0.28125" stop-color="#A5000A" stop-opacity="0.9"/>
<stop offset="1" stop-color="#FF0110" stop-opacity="0"/>
</linearGradient>
<linearGradient id="paint71_linear" x1="244.759" y1="300.482" x2="244.759" y2="332.158" gradientUnits="userSpaceOnUse">
<stop offset="0.28125" stop-color="#A5000A" stop-opacity="0.9"/>
<stop offset="1" stop-color="#FF0110" stop-opacity="0"/>
</linearGradient>
<linearGradient id="paint72_linear" x1="261.285" y1="317.009" x2="261.285" y2="332.158" gradientUnits="userSpaceOnUse">
<stop offset="0.28125" stop-color="#A5000A" stop-opacity="0.9"/>
<stop offset="1" stop-color="#FF0110" stop-opacity="0"/>
</linearGradient>
<linearGradient id="paint73_linear" x1="319.127" y1="253.658" x2="319.127" y2="332.158" gradientUnits="userSpaceOnUse">
<stop offset="0.28125" stop-color="#A5000A" stop-opacity="0.9"/>
<stop offset="1" stop-color="#FF0110" stop-opacity="0"/>
</linearGradient>
<linearGradient id="paint74_linear" x1="343.917" y1="286.71" x2="343.917" y2="332.158" gradientUnits="userSpaceOnUse">
<stop offset="0.28125" stop-color="#A5000A" stop-opacity="0.9"/>
<stop offset="1" stop-color="#FF0110" stop-opacity="0"/>
</linearGradient>
<linearGradient id="paint75_linear" x1="352.18" y1="294.974" x2="352.18" y2="332.158" gradientUnits="userSpaceOnUse">
<stop offset="0.28125" stop-color="#A5000A" stop-opacity="0.9"/>
<stop offset="1" stop-color="#FF0110" stop-opacity="0"/>
</linearGradient>
<linearGradient id="paint76_linear" x1="219.969" y1="283.956" x2="219.969" y2="332.158" gradientUnits="userSpaceOnUse">
<stop offset="0.28125" stop-color="#A5000A" stop-opacity="0.9"/>
<stop offset="1" stop-color="#FF0110" stop-opacity="0"/>
</linearGradient>
<linearGradient id="paint77_linear" x1="203.443" y1="256.412" x2="203.443" y2="332.158" gradientUnits="userSpaceOnUse">
<stop offset="0.28125" stop-color="#A5000A" stop-opacity="0.9"/>
<stop offset="1" stop-color="#FF0110" stop-opacity="0"/>
</linearGradient>
<linearGradient id="paint78_linear" x1="240" y1="180" x2="240" y2="210" gradientUnits="userSpaceOnUse">
<stop offset="0.171875" stop-color="#75DF5F"/>
<stop offset="0.854167" stop-color="#00B545"/>
</linearGradient>
<linearGradient id="paint79_linear" x1="240" y1="183" x2="240" y2="207" gradientUnits="userSpaceOnUse">
<stop offset="0.171875" stop-color="#75DF5F"/>
<stop offset="0.854167" stop-color="#00B545"/>
</linearGradient>
<linearGradient id="paint80_linear" x1="467" y1="135" x2="467" y2="165" gradientUnits="userSpaceOnUse">
<stop offset="0.171875" stop-color="#75DF5F"/>
<stop offset="0.854167" stop-color="#00B545"/>
</linearGradient>
<linearGradient id="paint81_linear" x1="467" y1="138" x2="467" y2="162" gradientUnits="userSpaceOnUse">
<stop offset="0.171875" stop-color="#75DF5F"/>
<stop offset="0.854167" stop-color="#00B545"/>
</linearGradient>
<linearGradient id="paint82_linear" x1="69" y1="281" x2="69" y2="311" gradientUnits="userSpaceOnUse">
<stop offset="0.171875" stop-color="#75DF5F"/>
<stop offset="0.854167" stop-color="#00B545"/>
</linearGradient>
<linearGradient id="paint83_linear" x1="69.0001" y1="284" x2="69.0001" y2="308" gradientUnits="userSpaceOnUse">
<stop offset="0.171875" stop-color="#75DF5F"/>
<stop offset="0.854167" stop-color="#00B545"/>
</linearGradient>
<linearGradient id="paint84_linear" x1="334" y1="0" x2="334" y2="30" gradientUnits="userSpaceOnUse">
<stop offset="0.171875" stop-color="#FF0110"/>
<stop offset="0.854167" stop-color="#A5000A"/>
</linearGradient>
<linearGradient id="paint85_linear" x1="334" y1="3" x2="334" y2="27" gradientUnits="userSpaceOnUse">
<stop offset="0.171875" stop-color="#FF0110"/>
<stop offset="0.854167" stop-color="#A5000A"/>
</linearGradient>
<linearGradient id="paint86_linear" x1="630" y1="57" x2="630" y2="87" gradientUnits="userSpaceOnUse">
<stop offset="0.171875" stop-color="#FF0110"/>
<stop offset="0.854167" stop-color="#A5000A"/>
</linearGradient>
<linearGradient id="paint87_linear" x1="630" y1="60" x2="630" y2="84" gradientUnits="userSpaceOnUse">
<stop offset="0.171875" stop-color="#FF0110"/>
<stop offset="0.854167" stop-color="#A5000A"/>
</linearGradient>
<linearGradient id="paint88_linear" x1="159" y1="203" x2="159" y2="233" gradientUnits="userSpaceOnUse">
<stop offset="0.171875" stop-color="#FF0110"/>
<stop offset="0.854167" stop-color="#A5000A"/>
</linearGradient>
<linearGradient id="paint89_linear" x1="159" y1="206" x2="159" y2="230" gradientUnits="userSpaceOnUse">
<stop offset="0.171875" stop-color="#FF0110"/>
<stop offset="0.854167" stop-color="#A5000A"/>
</linearGradient>
</defs>
</svg>
