<?xml version="1.0" encoding="UTF-8"?>
<svg width="219px" height="146px" viewBox="0 0 219 146" version="1.1" xmlns="http://www.w3.org/2000/svg" xmlns:xlink="http://www.w3.org/1999/xlink">
    <title>02</title>
    <defs>
        <linearGradient x1="50%" y1="26.8902972%" x2="50%" y2="100%" id="linearGradient-1">
            <stop stop-color="#141417" offset="0%"></stop>
            <stop stop-color="#141417" stop-opacity="0" offset="100%"></stop>
        </linearGradient>
    </defs>
    <g id="web---new" stroke="none" stroke-width="1" fill="none" fill-rule="evenodd">
        <g id="LT---main-page" transform="translate(-466.000000, -5781.000000)" fill="url(#linearGradient-1)" fill-rule="nonzero">
            <g id="Group-25-Copy" transform="translate(466.000000, 5781.000000)">
                <path d="M57.7,145.8 C75.5666667,145.8 89.5,139.2 99.5,126 C109.633333,112.666667 114.7,95 114.7,73 C114.7,51 109.666667,33.3666667 99.6,20.1 C89.5333333,6.83333333 75.5666667,0.2 57.7,0.2 C39.8333333,0.2 25.8666667,6.83333333 15.8,20.1 C5.73333333,33.3666667 0.7,51 0.7,73 C0.7,95 5.73333333,112.633333 15.8,125.9 C25.8666667,139.166667 39.8333333,145.8 57.7,145.8 Z M57.7,114.6 C41.0333333,114.6 32.7,100.733333 32.7,73 C32.7,45.2666667 41.0333333,31.4 57.7,31.4 C74.3666667,31.4 82.7,45.2666667 82.7,73 C82.7,100.733333 74.3666667,114.6 57.7,114.6 Z M218.8,143 L218.8,112.2 L171.8,112.2 L195,88.8 C209.533333,74.2666667 216.8,59.6 216.8,44.8 C216.8,31.2 212.166667,20.3666667 202.9,12.3 C193.633333,4.23333333 182.466667,0.2 169.4,0.2 C159.266667,0.2 149.933333,2.8 141.4,8 C132.866667,13.2 126.466667,20.8 122.2,30.8 L122.2,30.8 L149.2,46.6 C153.6,36.4666667 160.466667,31.4 169.8,31.4 C174.466667,31.4 178.133333,32.7666667 180.8,35.5 C183.466667,38.2333333 184.8,41.8 184.8,46.2 C184.8,53 180.066667,61.2666667 170.6,71 L170.6,71 L123.6,119.8 L123.6,143 L218.8,143 Z" id="02"></path>
            </g>
        </g>
    </g>
</svg>