<?xml version="1.0" encoding="UTF-8"?>
<svg width="221px" height="146px" viewBox="0 0 221 146" version="1.1" xmlns="http://www.w3.org/2000/svg" xmlns:xlink="http://www.w3.org/1999/xlink">
    <title>03</title>
    <defs>
        <linearGradient x1="50%" y1="26.8902972%" x2="50%" y2="100%" id="linearGradient-1">
            <stop stop-color="#141417" offset="0%"></stop>
            <stop stop-color="#141417" stop-opacity="0" offset="100%"></stop>
        </linearGradient>
    </defs>
    <g id="web---new" stroke="none" stroke-width="1" fill="none" fill-rule="evenodd">
        <g id="LT---main-page" transform="translate(-751.000000, -5781.000000)" fill="url(#linearGradient-1)" fill-rule="nonzero">
            <g id="Group-25-Copy-2" transform="translate(751.000000, 5781.000000)">
                <path d="M57,145.8 C74.8666667,145.8 88.8,139.2 98.8,126 C108.933333,112.666667 114,95 114,73 C114,51 108.966667,33.3666667 98.9,20.1 C88.8333333,6.83333333 74.8666667,0.2 57,0.2 C39.1333333,0.2 25.1666667,6.83333333 15.1,20.1 C5.03333333,33.3666667 0,51 0,73 C0,95 5.03333333,112.633333 15.1,125.9 C25.1666667,139.166667 39.1333333,145.8 57,145.8 Z M57,114.6 C40.3333333,114.6 32,100.733333 32,73 C32,45.2666667 40.3333333,31.4 57,31.4 C73.6666667,31.4 82,45.2666667 82,73 C82,100.733333 73.6666667,114.6 57,114.6 Z M169.5,145.8 C183.766667,145.8 195.833333,141.666667 205.7,133.4 C215.566667,125.133333 220.5,113.666667 220.5,99 C220.5,89.6666667 217.766667,81.5666667 212.3,74.7 C206.833333,67.8333333 199.633333,62.8666667 190.7,59.8 L190.7,59.8 L214.9,29 L214.9,3 L124.9,3 L124.9,33 L176.1,33 L150.7,65.2 L162.9,83.4 L169.5,83.4 C175.766667,83.4 180.5,84.8666667 183.7,87.8 C186.9,90.7333333 188.5,94.4666667 188.5,99 C188.5,103.533333 186.9,107.266667 183.7,110.2 C180.5,113.133333 175.766667,114.6 169.5,114.6 C158.7,114.6 151.566667,109.666667 148.1,99.8 L148.1,99.8 L120.5,115.8 C124.633333,125.666667 131.066667,133.133333 139.8,138.2 C148.533333,143.266667 158.433333,145.8 169.5,145.8 Z" id="03"></path>
            </g>
        </g>
    </g>
</svg>