<?xml version="1.0" encoding="UTF-8"?>
<svg width="1551px" height="1452px" viewBox="0 0 1551 1452" version="1.1" xmlns="http://www.w3.org/2000/svg" xmlns:xlink="http://www.w3.org/1999/xlink">
    <!-- Generator: Sketch 61.2 (89653) - https://sketch.com -->
    <title>Group</title>
    <desc>Created with Sketch.</desc>
    <defs>
        <linearGradient x1="0%" y1="50%" x2="100%" y2="50%" id="linearGradient-1">
            <stop stop-color="#80EC68" offset="0%"></stop>
            <stop stop-color="#159E49" offset="100%"></stop>
        </linearGradient>
        <linearGradient x1="0%" y1="50%" x2="100%" y2="50%" id="linearGradient-2">
            <stop stop-color="#80EC68" offset="0%"></stop>
            <stop stop-color="#159E49" offset="100%"></stop>
        </linearGradient>
        <linearGradient x1="0%" y1="50%" x2="100%" y2="50%" id="linearGradient-3">
            <stop stop-color="#80EC68" offset="0%"></stop>
            <stop stop-color="#159E49" offset="100%"></stop>
        </linearGradient>
        <linearGradient x1="0%" y1="50%" x2="100%" y2="50%" id="linearGradient-4">
            <stop stop-color="#80EC68" offset="0%"></stop>
            <stop stop-color="#159E49" offset="100%"></stop>
        </linearGradient>
        <linearGradient x1="0%" y1="50%" x2="100%" y2="50%" id="linearGradient-5">
            <stop stop-color="#80EC68" offset="0%"></stop>
            <stop stop-color="#159E49" offset="100%"></stop>
        </linearGradient>
        <linearGradient x1="0%" y1="50%" x2="100%" y2="50%" id="linearGradient-6">
            <stop stop-color="#80EC68" offset="0%"></stop>
            <stop stop-color="#159E49" offset="100%"></stop>
        </linearGradient>
        <linearGradient x1="0%" y1="50%" x2="100%" y2="50%" id="linearGradient-7">
            <stop stop-color="#80EC68" offset="0%"></stop>
            <stop stop-color="#159E49" offset="100%"></stop>
        </linearGradient>
        <linearGradient x1="0%" y1="50%" x2="100%" y2="50%" id="linearGradient-8">
            <stop stop-color="#80EC68" offset="0%"></stop>
            <stop stop-color="#159E49" offset="100%"></stop>
        </linearGradient>
        <linearGradient x1="0%" y1="50%" x2="100%" y2="50%" id="linearGradient-9">
            <stop stop-color="#80EC68" offset="0%"></stop>
            <stop stop-color="#159E49" offset="100%"></stop>
        </linearGradient>
        <linearGradient x1="0%" y1="50%" x2="100%" y2="50%" id="linearGradient-10">
            <stop stop-color="#80EC68" offset="0%"></stop>
            <stop stop-color="#159E49" offset="100%"></stop>
        </linearGradient>
        <linearGradient x1="0%" y1="50%" x2="100%" y2="50%" id="linearGradient-11">
            <stop stop-color="#80EC68" offset="0%"></stop>
            <stop stop-color="#159E49" offset="100%"></stop>
        </linearGradient>
        <linearGradient x1="0%" y1="50%" x2="100%" y2="50%" id="linearGradient-12">
            <stop stop-color="#80EC68" offset="0%"></stop>
            <stop stop-color="#159E49" offset="100%"></stop>
        </linearGradient>
        <linearGradient x1="0%" y1="50%" x2="100%" y2="50%" id="linearGradient-13">
            <stop stop-color="#80EC68" offset="0%"></stop>
            <stop stop-color="#159E49" offset="100%"></stop>
        </linearGradient>
        <linearGradient x1="0%" y1="50%" x2="100%" y2="50%" id="linearGradient-14">
            <stop stop-color="#80EC68" offset="0%"></stop>
            <stop stop-color="#159E49" offset="100%"></stop>
        </linearGradient>
        <linearGradient x1="0%" y1="50%" x2="100%" y2="50%" id="linearGradient-15">
            <stop stop-color="#80EC68" offset="0%"></stop>
            <stop stop-color="#159E49" offset="100%"></stop>
        </linearGradient>
        <linearGradient x1="0%" y1="50%" x2="100%" y2="50%" id="linearGradient-16">
            <stop stop-color="#80EC68" offset="0%"></stop>
            <stop stop-color="#159E49" offset="100%"></stop>
        </linearGradient>
        <linearGradient x1="0%" y1="50%" x2="100%" y2="50%" id="linearGradient-17">
            <stop stop-color="#80EC68" offset="0%"></stop>
            <stop stop-color="#159E49" offset="100%"></stop>
        </linearGradient>
        <linearGradient x1="0%" y1="50%" x2="100%" y2="50%" id="linearGradient-18">
            <stop stop-color="#80EC68" offset="0%"></stop>
            <stop stop-color="#159E49" offset="100%"></stop>
        </linearGradient>
        <linearGradient x1="0%" y1="50%" x2="100%" y2="50%" id="linearGradient-19">
            <stop stop-color="#80EC68" offset="0%"></stop>
            <stop stop-color="#159E49" offset="100%"></stop>
        </linearGradient>
        <linearGradient x1="0%" y1="50%" x2="100%" y2="50%" id="linearGradient-20">
            <stop stop-color="#80EC68" offset="0%"></stop>
            <stop stop-color="#159E49" offset="100%"></stop>
        </linearGradient>
        <linearGradient x1="0%" y1="50%" x2="100%" y2="50%" id="linearGradient-21">
            <stop stop-color="#80EC68" offset="0%"></stop>
            <stop stop-color="#159E49" offset="100%"></stop>
        </linearGradient>
        <linearGradient x1="0%" y1="50%" x2="100%" y2="50%" id="linearGradient-22">
            <stop stop-color="#80EC68" offset="0%"></stop>
            <stop stop-color="#159E49" offset="100%"></stop>
        </linearGradient>
        <linearGradient x1="0%" y1="50%" x2="100%" y2="50%" id="linearGradient-23">
            <stop stop-color="#80EC68" offset="0%"></stop>
            <stop stop-color="#159E49" offset="100%"></stop>
        </linearGradient>
        <linearGradient x1="0%" y1="50%" x2="100%" y2="50%" id="linearGradient-24">
            <stop stop-color="#80EC68" offset="0%"></stop>
            <stop stop-color="#159E49" offset="100%"></stop>
        </linearGradient>
        <linearGradient x1="0%" y1="50%" x2="100%" y2="50%" id="linearGradient-25">
            <stop stop-color="#80EC68" offset="0%"></stop>
            <stop stop-color="#159E49" offset="100%"></stop>
        </linearGradient>
        <linearGradient x1="0%" y1="50%" x2="100%" y2="50%" id="linearGradient-26">
            <stop stop-color="#80EC68" offset="0%"></stop>
            <stop stop-color="#159E49" offset="100%"></stop>
        </linearGradient>
        <linearGradient x1="0%" y1="50%" x2="100%" y2="50%" id="linearGradient-27">
            <stop stop-color="#80EC68" offset="0%"></stop>
            <stop stop-color="#159E49" offset="100%"></stop>
        </linearGradient>
        <linearGradient x1="0%" y1="50%" x2="100%" y2="50%" id="linearGradient-28">
            <stop stop-color="#80EC68" offset="0%"></stop>
            <stop stop-color="#159E49" offset="100%"></stop>
        </linearGradient>
        <linearGradient x1="0%" y1="50%" x2="100%" y2="50%" id="linearGradient-29">
            <stop stop-color="#80EC68" offset="0%"></stop>
            <stop stop-color="#159E49" offset="100%"></stop>
        </linearGradient>
        <linearGradient x1="0%" y1="50%" x2="100%" y2="50%" id="linearGradient-30">
            <stop stop-color="#80EC68" offset="0%"></stop>
            <stop stop-color="#159E49" offset="100%"></stop>
        </linearGradient>
        <linearGradient x1="0%" y1="50%" x2="100%" y2="50%" id="linearGradient-31">
            <stop stop-color="#80EC68" offset="0%"></stop>
            <stop stop-color="#159E49" offset="100%"></stop>
        </linearGradient>
        <linearGradient x1="0%" y1="50%" x2="100%" y2="50%" id="linearGradient-32">
            <stop stop-color="#80EC68" offset="0%"></stop>
            <stop stop-color="#159E49" offset="100%"></stop>
        </linearGradient>
        <linearGradient x1="0%" y1="50%" x2="100%" y2="50%" id="linearGradient-33">
            <stop stop-color="#80EC68" offset="0%"></stop>
            <stop stop-color="#159E49" offset="100%"></stop>
        </linearGradient>
    </defs>
    <g id="assets" stroke="none" stroke-width="1" fill="none" fill-rule="evenodd" opacity="0.3">
        <g id="Group" style="mix-blend-mode: screen;" transform="translate(775.500000, 726.520526) rotate(-15.000000) translate(-775.500000, -726.520526) translate(55.000000, -49.979474)" fill-rule="nonzero">
            <path d="M823.999384,744.120927 C824.358962,744.599907 824.487792,745.211913 824.351544,745.793855 L799.71833,850.270855 C799.552188,850.976206 799.019344,851.539683 798.320975,851.748545 L694.858951,882.638196 C694.162314,882.846608 693.406649,882.669861 692.876857,882.174591 L614.04724,808.590311 C613.517126,808.095465 613.292655,807.357558 613.458201,806.653953 L638.09249,702.177087 C638.257734,701.471029 638.79128,700.90708 639.490516,700.699397 L742.952004,669.810147 C743.648422,669.601722 744.403892,669.778256 744.933695,670.273218 L823.76264,743.857497 C823.848813,743.938597 823.928003,744.026714 823.999384,744.120927 Z M796.018565,848.207719 L820.114335,746.008576 L742.999299,674.024228 L641.79239,704.239956 L617.695679,806.439766 L694.810581,878.424114 L796.018565,848.207719 Z" id="Shape" fill="url(#linearGradient-1)"></path>
            <path d="M834.353638,750.495941 C834.751187,751.026909 834.864356,751.718129 834.656844,752.347866 L798.8203,861.314462 C798.59346,862.006398 798.013167,862.524244 797.299169,862.671897 L684.836461,885.992317 C684.124171,886.138374 683.387808,885.895481 682.90282,885.354494 L606.277059,799.70738 C605.792208,799.16679 605.633476,798.408772 605.860789,797.719497 L641.699347,688.753571 C641.926343,688.061812 642.506135,687.543828 643.219807,687.395198 L755.682649,664.075985 C756.394636,663.929624 757.130851,664.172417 757.615484,664.713405 L834.240708,750.358642 C834.281261,750.404096 834.318322,750.448745 834.353638,750.495941 Z M795.318261,858.929029 L830.420559,752.193941 L755.361047,668.29846 L645.200849,691.139004 L610.096537,797.873421 L685.157525,881.769976 L795.318261,858.929029 Z" id="Shape" fill="url(#linearGradient-2)"></path>
            <path d="M769.218961,661.705234 L842.242518,759.827029 C842.676674,760.409952 842.767927,761.18132 842.481856,761.850185 L794.53499,874.310725 C794.250282,874.98203 793.628954,875.448402 792.907277,875.532497 L671.938192,889.873258 C671.218446,889.959511 670.507625,889.65318 670.073952,889.069857 L597.050395,790.948061 C596.616212,790.365149 596.524958,789.593766 596.811057,788.924905 L644.758994,676.464904 C645.043186,675.793169 645.664774,675.32655 646.386707,675.242997 L767.35539,660.901833 C768.074865,660.816143 768.785219,661.122383 769.218961,661.705234 Z M838.288353,761.325878 L766.668029,665.089709 L648.02794,679.153662 L601.003623,789.449616 L672.623813,885.685785 L791.264839,871.621832 L838.288353,761.325878 Z" id="Shape" fill="url(#linearGradient-3)"></path>
            <path d="M782.923263,659.834004 C782.958854,659.881623 782.9911,659.929645 783.022544,659.98035 L851.325627,770.521314 C851.706587,771.139229 851.730848,771.913674 851.389316,772.554337 L790.220835,887.020097 C789.878105,887.662404 789.218547,888.071554 788.492244,888.09241 L659.019877,892.016663 C658.298104,892.030392 657.621356,891.665684 657.234956,891.054351 L588.933211,780.513118 C588.552492,779.895334 588.527982,779.121245 588.868852,778.480498 L650.037601,664.013933 C650.380559,663.372017 651.03999,662.963221 651.766058,662.942425 L781.237221,659.017895 C781.898198,658.99869 782.527453,659.302923 782.923263,659.834004 Z M847.25804,771.666332 L780.189148,663.120428 L653.060862,666.97252 L593.000263,779.36904 L660.068084,887.91387 L787.197039,884.061778 L847.25804,771.666332 Z" id="Shape" fill="url(#linearGradient-4)"></path>
            <path d="M797.609925,659.802476 C797.681305,659.897523 797.744166,659.998671 797.797779,660.104747 L860.135176,783.570226 C860.462907,784.218317 860.419314,784.992003 860.020853,785.599224 L784.394652,901.191175 C783.996681,901.80144 783.301941,902.151681 782.574345,902.10885 L644.610479,894.235457 C643.883656,894.198502 643.233406,893.772293 642.909862,893.120782 L580.571928,769.654766 C580.244201,769.006628 580.287793,768.232906 580.686251,767.625635 L656.312318,652.03422 C656.710419,651.424295 657.404648,651.073901 658.132088,651.11574 L796.095954,658.989 C796.695967,659.023695 797.250034,659.321403 797.609925,659.802476 Z M855.972864,784.356882 L794.691342,662.984904 L659.07525,655.245078 L584.735984,768.870793 L646.01442,890.24076 L781.631719,897.979915 L855.972864,784.356882 Z" id="Shape" fill="url(#linearGradient-5)"></path>
            <path d="M813.458009,660.100896 C813.564632,660.242512 813.651803,660.397634 813.717219,660.562165 L868.320168,796.536937 C868.590171,797.207714 868.480067,797.970822 868.031308,798.538969 L777.170129,913.485471 C776.720332,914.055576 775.998136,914.342483 775.277308,914.237434 L629.812777,893.208496 C629.092978,893.106504 628.483313,892.628623 628.215257,891.956292 L573.611368,755.982187 C573.341714,755.311293 573.452009,754.548279 573.900765,753.980155 L664.762212,639.032185 C665.212253,638.462998 665.933499,638.176102 666.65396,638.279688 L812.119967,659.308893 C812.653686,659.386561 813.134772,659.671321 813.458009,660.100896 L813.458009,660.100896 Z M864.105864,796.95376 L810.374326,663.148789 L667.234499,642.455258 L577.82688,755.564963 L631.558149,889.369667 L774.69744,910.062264 L864.105864,796.95376 Z" id="Shape" fill="url(#linearGradient-6)"></path>
            <path d="M829.788093,660.97804 C829.930177,661.168128 830.037798,661.381612 830.106073,661.608802 L875.378673,811.571532 C875.589625,812.267484 875.411857,813.022953 874.91259,813.552258 L767.724255,927.61567 C767.224749,928.145977 766.480326,928.37069 765.770279,928.205499 L613.30894,892.303228 C612.601135,892.135882 612.036,891.605037 611.825483,890.909782 L566.553152,740.946514 C566.34229,740.250478 566.519927,739.494981 567.018966,738.965387 L674.207301,624.901975 C674.706552,624.371087 675.451485,624.146456 676.161546,624.312682 L828.622481,660.214282 C829.08881,660.324214 829.50148,660.594613 829.788093,660.97804 L829.788093,660.97804 Z M871.136479,811.622664 L826.542308,663.908934 L676.373891,628.546031 L570.795077,740.894846 L615.389248,888.609516 L765.557127,923.971076 L871.136479,811.622664 Z" id="Shape" fill="url(#linearGradient-7)"></path>
            <path d="M844.988013,664.622236 C845.166417,664.859476 845.290099,665.133007 845.350245,665.423331 L879.344949,827.896126 C879.492777,828.604506 879.25072,829.337712 878.7097,829.820332 L754.739025,940.336881 C754.196215,940.820078 753.436064,940.97836 752.744467,940.7522 L594.779893,888.796355 C594.089163,888.570274 593.572387,887.993592 593.424876,887.284259 L559.430173,724.811197 C559.282595,724.102872 559.524797,723.369846 560.065824,722.887392 L684.037304,612.370976 C684.579557,611.886683 685.340333,611.72827 686.031862,611.955658 L843.995362,663.910433 C844.391587,664.040839 844.73808,664.289299 844.988013,664.622236 L844.988013,664.622236 Z M875.121453,827.578789 L841.606507,667.395659 L685.873419,616.174475 L563.654473,725.129603 L597.16942,885.312867 L752.902507,936.53365 L875.121453,827.578789 Z" id="Shape" fill="url(#linearGradient-8)"></path>
            <path d="M863.025756,669.380096 C863.240401,669.665254 863.375746,670.001632 863.418167,670.35537 L884.373172,845.825783 C884.459714,846.545252 884.153374,847.255915 883.569791,847.689505 L741.568279,953.448741 C740.983859,953.884402 740.209727,953.975512 739.539252,953.687542 L576.578163,883.975428 C575.909334,883.689698 575.444391,883.070881 575.358299,882.351845 L554.402084,706.881298 C554.315592,706.162008 554.621498,705.451469 555.204523,705.017442 L697.208187,599.258474 C697.79253,598.822949 698.566417,598.731652 699.236946,599.019138 L862.198304,668.731787 C862.526694,668.871636 862.812135,669.09528 863.025756,669.380096 Z M880.183059,845.141353 L859.506158,671.997147 L698.708441,603.210138 L558.592332,707.565729 L579.270846,880.710202 L740.068025,949.49788 L880.183059,845.141353 Z" id="Shape" fill="url(#linearGradient-9)"></path>
            <path d="M881.264736,675.761235 C881.514017,676.094867 881.654613,676.497072 881.667456,676.913298 L887.49907,864.883887 C887.520959,865.608524 887.155184,866.290274 886.53865,866.672074 L726.90076,965.694367 C726.283631,966.077886 725.508417,966.102086 724.868553,965.757805 L559.399932,876.809641 C558.761712,876.466636 558.3549,875.809444 558.332618,875.085428 L552.500902,687.11698 C552.479358,686.392217 552.845002,685.710405 553.46129,685.32799 L713.100251,586.30543 C713.717254,585.922022 714.492322,585.897974 715.131923,586.242393 L880.60041,675.188415 C880.860951,675.328697 881.087682,675.524196 881.264736,675.761235 L881.264736,675.761235 Z M883.402712,863.840098 L877.645749,678.21044 L714.243744,590.373653 L556.597496,688.160903 L562.354458,873.788554 L725.758472,961.626679 L883.402712,863.840098 Z" id="Shape" fill="url(#linearGradient-10)"></path>
            <path d="M900.093557,684.537533 C900.379273,684.920202 900.521126,685.391289 900.497453,685.868131 L889.231217,885.835108 C889.190256,886.559621 888.766606,887.207476 888.11937,887.53537 L709.654446,977.782281 C709.004821,978.10989 708.229681,978.065282 707.62191,977.665313 L540.419457,867.943104 C539.813657,867.545516 539.465521,866.855229 539.502706,866.131635 L550.76807,666.162381 C550.809143,665.43828 551.232126,664.790664 551.878578,664.462119 L730.345243,574.217753 C730.994583,573.890334 731.7693,573.934625 732.377109,574.333918 L899.58117,684.056261 C899.779101,684.185085 899.952589,684.348038 900.093557,684.537533 L900.093557,684.537533 Z M885.238749,884.436177 L896.371416,686.809907 L731.129832,578.37636 L554.760002,667.561713 L543.628139,865.189859 L708.868384,973.623407 L885.238749,884.436177 Z" id="Shape" fill="url(#linearGradient-11)"></path>
            <path d="M920.062238,695.917482 C920.384734,696.349221 920.522361,696.891621 920.44476,697.425039 L889.9776,908.392737 C889.874711,909.11163 889.395575,909.720591 888.721412,909.989298 L691.252027,989.11321 C690.577214,989.383514 689.80952,989.272443 689.238831,988.821939 L522.237945,856.979359 C521.669171,856.529347 521.383006,855.810183 521.486964,855.092063 L551.954794,644.125169 C552.057487,643.406422 552.536446,642.797529 553.210446,642.528877 L750.680367,563.404563 C751.355156,563.134059 752.122954,563.245145 752.693563,563.695834 L919.694047,695.538414 C919.832452,695.648513 919.956189,695.775906 920.062238,695.917482 Z M886.123583,906.650206 L916.257242,698.00557 L751.098248,567.615724 L555.808811,645.867432 L525.675152,854.512203 L690.833476,984.90111 L886.123583,906.650206 Z" id="Shape" fill="url(#linearGradient-12)"></path>
            <path d="M937.966808,709.818939 C938.326503,710.299485 938.454424,710.914895 938.31603,711.499 L886.514219,931.969572 C886.348518,932.675136 885.819785,933.239125 885.12643,933.4499 L668.65615,998.896771 C667.960539,999.105847 667.20624,998.928422 666.67673,998.431173 L502.008663,843.407205 C501.481036,842.910543 501.258461,842.170067 501.424796,841.46476 L553.227544,620.996331 C553.393395,620.290801 553.922136,619.726858 554.615467,619.516003 L771.085613,554.069667 C771.781239,553.859711 772.53602,554.037238 773.065167,554.535265 L937.732163,709.556555 C937.818058,709.636831 937.896587,709.724643 937.966808,709.818939 L937.966808,709.818939 Z M882.83085,929.900219 L934.09658,711.709577 L771.136879,558.295254 L556.912386,623.063809 L505.644916,841.25405 L668.605419,994.67038 L882.83085,929.900219 Z" id="Shape" fill="url(#linearGradient-13)"></path>
            <path d="M957.096004,725.470367 C957.492286,726.001537 957.605158,726.692582 957.398503,727.322369 L882.061792,956.291142 C881.835226,956.980238 881.258068,957.495737 880.548226,957.643008 L645.078575,1006.9562 C644.367222,1007.10663 643.629902,1006.8636 643.147133,1006.31957 L483.012185,826.664526 C482.534049,826.12144 482.377055,825.366518 482.598993,824.677645 L557.9349,595.709542 C558.161969,595.020775 558.738894,594.505484 559.448466,594.357675 L794.919321,545.043148 C795.630262,544.894135 796.36655,545.137025 796.849559,545.679903 L956.984909,725.33589 C957.02319,725.378483 957.061872,725.424559 957.096004,725.470367 Z M878.569669,953.905921 L953.175429,727.164854 L794.601563,549.261351 L561.426221,598.093423 L486.821665,824.835026 L645.395664,1002.73853 L878.569669,953.905921 Z" id="Shape" fill="url(#linearGradient-14)"></path>
            <path d="M823.788516,540.071864 L823.789588,540.073199 L977.063442,744.723627 C977.496205,745.303643 977.586962,746.069125 977.301753,746.733648 L876.107635,981.707881 C875.821344,982.372798 875.200751,982.835003 874.479666,982.920358 L620.013303,1013.24456 C619.291679,1013.33021 618.579031,1013.02566 618.14394,1012.44568 L618.142867,1012.44435 L464.869416,807.792451 C464.435786,807.21283 464.344634,806.447031 464.630166,805.782429 L565.825356,570.809265 C566.111572,570.144367 566.732145,569.68219 567.453192,569.596922 L821.919019,539.273117 C822.64067,539.18733 823.353404,539.491847 823.788516,540.071864 L823.788516,540.071864 Z M973.103426,746.21081 L821.232768,543.433786 L569.098317,573.480747 L468.827957,806.306469 L620.698616,1009.08283 L872.833334,979.035998 L973.103426,746.21081 Z" id="Shape" fill="url(#linearGradient-15)"></path>
            <path d="M850.592486,534.79917 C850.628224,534.846692 850.661728,534.895822 850.692998,534.94656 L994.066657,766.758265 C994.448575,767.37556 994.472126,768.14967 994.128438,768.789033 L865.035162,1009.2575 C864.693074,1009.89782 864.034262,1010.30599 863.308495,1010.32728 L590.842095,1018.98264 C590.117656,1018.9954 589.438404,1018.63136 589.048286,1018.02091 L445.674896,786.210009 C445.292855,785.593074 445.268948,784.819246 445.612176,784.179911 L574.705587,543.710645 C575.048236,543.070473 575.707166,542.662413 576.433058,542.640861 L848.899189,533.98395 C849.562803,533.963312 850.195126,534.26733 850.592486,534.79917 L850.592486,534.79917 Z M989.992291,767.900136 L847.853995,538.08396 L577.734089,546.666353 L449.748457,785.068406 L591.887959,1014.88311 L862.006794,1006.30219 L989.992291,767.900136 Z" id="Shape" fill="url(#linearGradient-16)"></path>
            <path d="M879.930301,531.773752 C880.001418,531.869224 880.064537,531.97042 880.119015,532.076309 L1010.30077,791.040071 C1010.62615,791.688183 1010.58191,792.460937 1010.18468,793.06752 L851.396504,1035.94864 C851.000315,1036.55583 850.310828,1036.90507 849.587873,1036.86789 L560.616464,1020.78062 C559.890448,1020.74216 559.2411,1020.31571 558.916299,1019.66406 L428.733069,760.700165 C428.407727,760.052123 428.452342,759.27939 428.850096,758.673252 L587.637472,515.792538 C588.033681,515.185368 588.723155,514.836135 589.446104,514.873284 L878.418047,530.960415 C879.017358,530.994226 879.571015,531.292 879.930301,531.773752 L879.930301,531.773752 Z M1006.15,791.822054 L877.02242,534.953943 L590.388604,518.99993 L432.884376,759.919387 L562.011289,1016.78576 L848.644704,1032.74151 L1006.15,791.822054 Z" id="Shape" fill="url(#linearGradient-17)"></path>
            <path d="M912.292883,531.520478 C912.39944,531.663115 912.487031,531.81896 912.553466,531.984111 L1026.63169,817.95637 C1026.89997,818.6288 1026.7888,819.393166 1026.34005,819.96148 L835.448371,1062.13116 C835.00028,1062.69997 834.282662,1062.98693 833.565539,1062.88405 L528.596438,1019.08334 C527.876626,1018.98059 527.266908,1018.50076 526.998279,1017.82563 L412.919656,731.853374 C412.65189,731.180864 412.763079,730.416744 413.211423,729.848264 L604.103374,487.678583 C604.551109,487.109505 605.268702,486.822348 605.985804,486.925296 L910.955575,530.726404 C911.489027,530.803621 911.970004,531.089217 912.292883,531.520478 L912.292883,531.520478 Z M1022.4265,818.371059 L909.215682,534.574947 L606.567999,491.107357 L417.124844,731.438284 L530.335126,1015.23386 L832.982809,1058.70158 L1022.4265,818.371059 Z" id="Shape" fill="url(#linearGradient-18)"></path>
            <path d="M945.670629,535.309315 C945.812523,535.499597 945.92011,535.713152 945.988555,535.940378 L1040.4485,849.90952 C1040.65668,850.603655 1040.4789,851.356036 1039.98199,851.883834 L814.973947,1091.09988 C814.47728,1091.62865 813.73618,1091.85279 813.029413,1091.68797 L493.562627,1016.935 C492.855182,1016.76845 492.290122,1016.23792 492.079776,1015.54276 L397.619965,701.57308 C397.411324,700.879134 397.588939,700.12668 398.085935,699.599034 L623.094518,460.382588 C623.59093,459.853494 624.332202,459.629345 625.038918,459.794631 L944.505704,534.547595 C944.971511,534.656874 945.383935,534.926549 945.670629,535.309315 Z M1036.21833,849.957178 L942.434831,538.233704 L625.253147,464.016219 L401.849735,701.525288 L495.634171,1013.24903 L812.814649,1087.46544 L1036.21833,849.957178 Z" id="Shape" fill="url(#linearGradient-19)"></path>
            <path d="M982.029023,542.611019 C982.206464,542.84877 982.329856,543.122369 982.390586,543.412717 L1053.32761,884.882466 C1053.4761,885.592317 1053.2339,886.327386 1052.69247,886.810077 L792.161072,1119.46564 C791.620542,1119.94896 790.863301,1120.10767 790.174087,1119.88209 L458.70486,1011.07112 C458.015388,1010.84322 457.499493,1010.26555 457.350876,1009.555 L386.413581,668.084982 C386.26506,667.375129 386.507269,666.640046 387.048726,666.157371 L647.578381,433.499261 C648.119424,433.016367 648.876872,432.858231 649.566036,433.084289 L981.0362,541.896196 C981.432722,542.026901 981.779368,542.276482 982.029023,542.611019 Z M1049.11314,884.561198 L978.651899,545.388251 L649.41177,437.307765 L390.628057,668.40692 L461.089295,1007.57933 L790.327282,1115.65794 L1049.11314,884.561198 Z" id="Shape" fill="url(#linearGradient-20)"></path>
            <path d="M1019.68264,551.874466 C1019.89653,552.160813 1020.0315,552.498174 1020.07411,552.852893 L1063.61548,921.321971 C1063.70019,922.042088 1063.39438,922.75274 1062.81297,923.186859 L764.887362,1145.61251 C764.306061,1146.04663 763.537214,1146.13845 762.869831,1145.85347 L421.403263,999.809503 C420.734916,999.522397 420.270224,998.901494 420.183685,998.179952 L376.643124,629.711007 C376.559144,628.99125 376.865027,628.281247 377.446036,627.847324 L675.37164,405.421675 C675.952857,404.987835 676.721298,404.895734 677.388769,405.179913 L1018.8548,551.223342 C1019.18301,551.364326 1019.46846,551.588839 1019.68264,551.874466 Z M1059.44036,920.635239 L1016.17334,554.494492 L676.867165,409.375141 L380.819175,630.399079 L424.08446,996.537014 L763.392373,1141.65864 L1059.44036,920.635239 Z" id="Shape" fill="url(#linearGradient-21)"></path>
            <path d="M1059.24464,566.461198 C1059.49473,566.795099 1059.63569,567.197818 1059.64834,567.614547 L1071.59447,962.086092 C1071.61558,962.810243 1071.24925,963.491206 1070.63235,963.8728 L734.111638,1171.97097 C733.49455,1172.35365 732.719583,1172.3777 732.07988,1172.03401 L383.61478,985.663841 C382.973231,985.321679 382.564069,984.663028 382.542187,983.93723 L370.596195,589.466755 C370.575149,588.742206 370.941863,588.06094 371.559245,587.679378 L708.078752,379.580543 C708.696054,379.197968 709.471143,379.174076 710.110912,379.517903 L1058.57601,565.888471 C1058.83845,566.027854 1059.06677,566.223429 1059.24464,566.461198 L1059.24464,566.461198 Z M1067.49247,961.037276 L1055.61834,568.911112 L709.224683,383.64852 L374.69765,590.515036 L386.572587,982.641334 L732.966244,1167.90286 L1067.49247,961.037276 Z" id="Shape" fill="url(#linearGradient-22)"></path>
            <path d="M1097.22305,584.768557 C1097.50866,585.151617 1097.65048,585.622975 1097.62688,586.100102 L1073.6782,1005.56961 C1073.63715,1006.29401 1073.21247,1006.94133 1072.56445,1007.26723 L697.09803,1196.79915 C696.451029,1197.12576 695.67909,1197.08278 695.072314,1196.68637 L343.552158,966.749725 C342.944715,966.350952 342.595346,965.658901 342.632039,964.933165 L366.581103,545.464324 C366.621957,544.73989 367.046703,544.092528 367.694852,543.766841 L743.161141,354.234916 C743.808024,353.908196 744.579974,353.951336 745.186455,354.348099 L1096.70728,584.28448 C1096.90588,584.414802 1097.08039,584.578587 1097.22305,584.768557 Z M1069.6897,1004.16815 L1093.50087,587.042806 L743.944434,358.390822 L370.569604,546.865922 L346.757902,963.991667 L696.315138,1192.64338 L1069.6897,1004.16815 Z" id="Shape" fill="url(#linearGradient-23)"></path>
            <path d="M1138.1911,608.468195 C1138.51382,608.900753 1138.65166,609.443869 1138.5743,609.97811 L1074.31996,1052.44412 C1074.21573,1053.16222 1073.73649,1053.77007 1073.06284,1054.03858 L657.593938,1220.1305 C656.920945,1220.39992 656.155464,1220.28982 655.585543,1219.84163 L304.370035,943.46432 C303.800236,943.013193 303.513041,942.29296 303.615949,941.573208 L367.87122,499.106794 C367.975712,498.38877 368.454935,497.781016 369.128476,497.512333 L784.59738,331.421752 C785.270261,331.151556 786.036122,331.261663 786.605776,331.710496 L1137.82048,608.086731 C1137.95998,608.197318 1138.08456,608.325542 1138.1911,608.468195 L1138.1911,608.468195 Z M1070.46893,1050.69892 L1134.38653,610.556001 L785.015126,335.629253 L371.722252,500.851724 L307.803722,940.995183 L657.175523,1215.92046 L1070.46893,1050.69892 Z" id="Shape" fill="url(#linearGradient-24)"></path>
            <path d="M1177.24188,636.845401 C1177.60178,637.326741 1177.73008,637.94249 1177.59236,638.527328 L1068.43604,1100.99712 C1068.26903,1101.70256 1067.73842,1102.26563 1067.04366,1102.47466 L611.076712,1239.80137 C610.382484,1240.01016 609.629494,1239.83381 609.100477,1239.33852 L262.289447,914.193829 C261.757677,913.697337 261.53319,912.954108 261.701306,912.246616 L370.858563,449.778432 C371.024907,449.073105 371.555364,448.510079 372.250005,448.301559 L828.218828,310.974051 C828.912922,310.764931 829.66596,310.941446 830.194527,311.437163 L1177.00515,636.579446 C1177.09146,636.661241 1177.17065,636.750213 1177.24188,636.845401 Z M1064.74897,1098.92703 L1173.36699,638.737201 L828.26746,315.199883 L374.54523,451.849454 L265.926812,912.037145 L611.027678,1235.5758 L1064.74897,1098.92703 Z" id="Shape" fill="url(#linearGradient-25)"></path>
            <path d="M1218.33615,670.657222 C1218.74024,671.187922 1218.84582,671.878964 1218.63759,672.508057 L1060.03703,1152.47833 C1059.81053,1153.16684 1059.23335,1153.68221 1058.52314,1153.83009 L562.554621,1257.12084 C561.844278,1257.26854 561.108993,1257.0267 560.625422,1256.48632 L223.258537,879.808001 C222.775161,879.26618 222.616944,878.50832 222.843223,877.818644 L381.444455,397.847702 C381.670038,397.158744 382.247704,396.643249 382.95834,396.496749 L878.927127,293.206398 C879.637341,293.058186 880.372755,293.299761 880.856327,293.840117 L1218.22254,670.518834 C1218.26233,670.563268 1218.29984,670.608639 1218.33615,670.657222 Z M1056.54531,1150.09295 L1214.41036,672.350129 L878.607871,297.419728 L384.935904,400.232548 L227.070715,877.976171 L562.873341,1252.90697 L1056.54531,1150.09295 Z" id="Shape" fill="url(#linearGradient-26)"></path>
            <path d="M1257.2086,710.840045 C1257.64273,711.42197 1257.73383,712.191294 1257.44764,712.858593 L1044.91064,1207.32562 C1044.6252,1207.99303 1044.00491,1208.45688 1043.28426,1208.54181 L508.315462,1272.13269 C507.595645,1272.21666 506.885388,1271.912 506.449917,1271.33248 L184.01758,840.45353 L184.016241,840.451789 C183.581984,839.869917 183.490872,839.100519 183.777206,838.433241 L396.313134,343.966886 C396.598373,343.299763 397.218395,342.836141 397.938706,342.751363 L932.907506,279.160478 C933.627495,279.075536 934.338242,279.380457 934.773051,279.960824 L1257.2078,710.838169 L1257.2086,710.840045 Z M1041.64208,1204.64445 L1253.25173,712.334362 L932.223344,283.333823 L399.581285,346.648727 L187.972573,838.957873 L509.000026,1267.95908 L1041.64208,1204.64445 Z" id="Shape" fill="url(#linearGradient-27)"></path>
            <path d="M993.108289,271.927917 C993.142846,271.97406 993.176466,272.023814 993.206737,272.071695 L1295.04743,757.803114 C1295.43164,758.41981 1295.45581,759.194696 1295.11079,759.834073 L1023.98313,1263.30418 C1023.64078,1263.94278 1022.98287,1264.35013 1022.25781,1264.37242 L449.28825,1282.11157 C448.563497,1282.13181 447.882121,1281.76671 447.499045,1281.152 L145.659419,795.421653 C145.275714,794.804988 145.251398,794.030552 145.595662,793.391096 L416.723725,289.920723 C417.066481,289.28248 417.724127,288.875242 418.44904,288.852347 L991.41847,271.113179 C992.080815,271.09459 992.711215,271.398204 993.108289,271.927917 Z M1290.97558,758.944784 L990.373717,275.205805 L419.74614,292.872401 L149.729533,794.277843 L450.333002,1278.0187 L1020.95951,1260.35063 L1290.97558,758.944784 Z" id="Shape" fill="url(#linearGradient-28)"></path>
            <path d="M1056.24937,266.209366 C1056.32002,266.303354 1056.38207,266.403489 1056.43478,266.508566 L1331.26441,809.477147 C1331.59216,810.125542 1331.54886,810.899308 1331.15081,811.50718 L997.010867,1320.21181 C996.611906,1320.81712 995.920429,1321.16443 995.196052,1321.12661 L386.228088,1286.85804 C385.503644,1286.81847 384.855754,1286.3948 384.529688,1285.74742 L109.702066,742.779907 C109.373561,742.131948 109.416888,741.358014 109.815668,740.750677 L443.956011,232.048184 C444.353626,231.442024 445.045027,231.094068 445.769352,231.132258 L1054.73651,265.398611 C1055.33607,265.431927 1055.89005,265.728811 1056.24937,266.209366 Z M1327.10803,810.261542 L1053.33846,269.385081 L446.710318,235.252802 L113.857775,741.995914 L387.626274,1282.8713 L994.254551,1317.00519 L1327.10803,810.261542 Z" id="Shape" fill="url(#linearGradient-29)"></path>
            <path d="M1122.34013,266.409923 C1122.44584,266.551425 1122.53272,266.706042 1122.59859,266.869897 L1363.37108,867.840964 C1363.64182,868.515185 1363.53086,869.282643 1363.08021,869.852697 L961.884642,1378.09682 C961.436299,1378.66698 960.717096,1378.95401 959.999084,1378.84935 L318.031699,1286.12469 C317.31488,1286.01958 316.707656,1285.54235 316.436474,1284.87097 L75.6627815,683.9003 C75.392327,683.22607 75.5033252,682.458779 75.9537841,681.888701 L477.150824,173.643771 C477.598899,173.073863 478.317823,172.787053 479.035445,172.891914 L1121.00283,265.616713 C1121.53634,265.693088 1122.0175,265.978487 1122.34013,266.409923 Z M1359.16406,868.261726 L1119.26297,269.466066 L479.614772,177.077314 L79.8700665,683.479806 L319.771956,1282.27466 L959.420694,1374.66328 L1359.16406,868.261726 Z" id="Shape" fill="url(#linearGradient-30)"></path>
            <path d="M1193.63832,273.612836 C1193.7803,273.802384 1193.88795,274.015358 1193.95638,274.242088 L1393.28311,933.709987 C1393.4941,934.405547 1393.31725,935.160851 1392.81941,935.69039 L920.676939,1437.3458 C920.179104,1437.87232 919.438981,1438.09452 918.733517,1437.92926 L247.263651,1280.1153 C246.558767,1279.94911 245.995718,1279.42005 245.785938,1278.72679 L46.4569332,619.25434 C46.2476607,618.558773 46.424943,617.804379 46.9221069,617.274875 L519.064709,115.620807 C519.561827,115.093119 520.302626,114.870713 521.008131,115.037343 L1192.47639,272.851843 C1192.94119,272.960811 1193.35265,273.230291 1193.63832,273.612836 Z M1389.05706,933.7618 L1190.40781,276.537653 L521.219501,119.25882 L50.6845924,619.204804 L249.333439,1276.42922 L918.522148,1433.70765 L1389.05706,933.7618 Z" id="Shape" fill="url(#linearGradient-31)"></path>
            <path d="M1268.04686,286.118518 C1268.22405,286.355394 1268.34701,286.628287 1268.40706,286.917903 L1418.62054,1004.38796 C1418.76904,1005.09901 1418.5265,1005.83522 1417.98438,1006.31893 L870.728359,1494.24259 C870.187273,1494.72577 869.429238,1494.88333 868.74031,1494.65581 L171.272289,1265.11049 C170.583973,1264.88288 170.068661,1264.30658 169.919329,1263.59742 L19.7069263,546.128169 C19.5573743,545.416977 19.799899,544.680157 20.3426839,544.196657 L567.598704,56.2739319 C568.139671,55.7906265 568.897743,55.6330505 569.586619,55.8607155 L1267.05518,285.406035 C1267.45114,285.535993 1267.79742,285.784779 1268.04686,286.118518 Z M1414.40238,1004.07075 L1264.66968,288.895745 L569.428282,60.0844672 L23.9250829,546.445245 L173.656581,1261.61784 L868.898647,1490.43193 L1414.40238,1004.07075 Z" id="Shape" fill="url(#linearGradient-32)"></path>
            <path d="M1347.4245,308.72897 C1347.63805,309.013779 1347.77258,309.349852 1347.8145,309.703237 L1440.46834,1083.67294 C1440.55538,1084.3945 1440.24959,1085.10748 1439.66663,1085.54224 L814.352275,1551.72606 C813.771241,1552.15986 813.002608,1552.2508 812.336226,1551.96458 L94.3684281,1244.17936 C93.7014177,1243.8944 93.2379044,1243.2748 93.153279,1242.555 L0.497427572,468.585967 C0.410883711,467.864423 0.717001648,467.151699 1.30006902,466.717205 L626.614561,0.532713148 C627.195901,0.0988945673 627.964795,0.00801588393 628.631414,0.294332971 L1346.59881,308.078477 C1346.92646,308.219076 1347.21125,308.443437 1347.4245,308.72897 Z M1436.29423,1082.99113 L1343.91771,311.347538 L628.105966,4.48827147 L4.67194015,469.268181 L97.0483207,1240.91057 L812.86087,1547.77077 L1436.29423,1082.99113 Z" id="Shape" fill="url(#linearGradient-33)"></path>
        </g>
    </g>
</svg>