<svg xmlns="http://www.w3.org/2000/svg" width="255" height="174" viewBox="0 0 255 174">
    <g fill="none" fill-rule="evenodd">
        <g>
            <g transform="translate(-735 -6815) translate(735 6815)">
                <rect width="255" height="174" fill="#000" rx="14"/>
                <g fill="#FFF" fill-rule="nonzero">
                    <path d="M149.855 16.898c.907.96 5.885 5.56 13.698.221 5.65-4.4 5.509-13.939 4.966-16.82-.19.42-6.752 14.79-18.664 16.6zM168.518.297c-.07-.029-7.338-1.02-14.524 3.609-4.462 2.874-5.052 7.08-4.848 9.883C159.592 12.619 168.28.627 168.518.297z" transform="translate(43 77)"/>
                    <path d="M168.518.297c-.07-.029-7.338-1.02-14.524 3.609-4.462 2.874-5.052 7.08-4.848 9.883C159.592 12.619 168.28.627 168.518.297zM11.842 16.337H3.705v-4.334h8.137c2.034 0 3.073.973 3.073 2.233 0 1.217-1.017 2.101-3.073 2.101zm-.266-6.656H3.705V6.033h7.871c2.145 0 2.986.752 2.986 1.791 0 .95-.973 1.857-2.986 1.857zm2.079 1.106c3.427-.11 4.666-1.813 4.666-3.67 0-2.035-1.615-3.715-5.55-3.715H.188v15.522h12.957c3.229 0 5.639-1.349 5.639-4.245 0-2.057-1.349-3.803-5.13-3.892zm9.282-7.385v15.522h3.516V3.402h-3.516zm17.773 2.94h7.74v-2.94H29.456v2.94h7.739v12.582h3.515V6.343zm10.742-2.94v15.522h3.516v-6.058h8.248v-2.543h-8.248V6.077h13.4V3.402H51.452zm19.763 0v15.522h3.516V3.402h-3.516zm11.76 3.78l11.652 11.742h3.98V3.402h-3.471V14.59L83.947 3.402h-4.466v15.522h3.493V7.183zm20.382-3.78v15.522h17.202v-2.609h-13.687v-4.268h8.204v-2.41h-8.204v-3.56h13.687V3.402h-17.202zm40.747 0h-4.644l-5.926 5.461-5.881-5.461h-4.71l8.27 7.65-8.58 7.872h4.644l6.213-5.727 6.191 5.727h4.732l-8.601-7.894 8.292-7.628z" transform="translate(43 77)"/>
                </g>
            </g>
        </g>
    </g>
</svg>
