<?xml version="1.0" encoding="UTF-8"?>
<svg width="320px" height="2316px" viewBox="0 0 320 2316" version="1.1" xmlns="http://www.w3.org/2000/svg" xmlns:xlink="http://www.w3.org/1999/xlink">
    <title>wave-mob</title>
    <defs>
        <rect id="path-1" x="0" y="0" width="320" height="2316"></rect>
        <linearGradient x1="50%" y1="100%" x2="50%" y2="3.061617e-15%" id="linearGradient-3">
            <stop stop-color="#000000" offset="0%"></stop>
            <stop stop-color="#062C14" offset="100%"></stop>
        </linearGradient>
        <linearGradient x1="50%" y1="3.061617e-15%" x2="50%" y2="100%" id="linearGradient-4">
            <stop stop-color="#80EC68" offset="0%"></stop>
            <stop stop-color="#159E49" offset="100%"></stop>
        </linearGradient>
    </defs>
    <g id="mob" stroke="none" stroke-width="1" fill="none" fill-rule="evenodd">
        <g id="LT---main-page-(mob)" transform="translate(0.000000, -3040.000000)">
            <g id="wave-mob" transform="translate(0.000000, 3040.000000)">
                <mask id="mask-2" fill="white">
                    <use xlink:href="#path-1"></use>
                </mask>
                <use id="Mask" fill="#D8D8D8" opacity="0" xlink:href="#path-1"></use>
                <g opacity="0.8" mask="url(#mask-2)" id="Rectangle">
                    <g transform="translate(-24.000000, 1158.000000) scale(1, -1) rotate(-180.000000) translate(24.000000, -1158.000000) translate(-476.000000, 0.000000)">
                        <path d="M2,71.3925172 C13.0134761,53.4950684 25.5412539,44.546344 39.5833333,44.546344 C67.7253087,44.546344 67.3315828,79.6096626 114.544931,79.6096626 C154.612716,79.6096626 154.612448,114.200599 189.916667,114.200599 C229.10221,114.200599 229.10221,79.6096626 265.083333,79.6096626 C302.666667,79.6096626 302.666667,144.319892 340.25,144.319892 C377.833333,144.319892 382.172528,106.21783 415.416667,106.21783 C457.891622,106.21783 457.891622,64.0524741 490.583333,64.0524741 C530.694311,64.0524741 530.694311,-2.27373675e-13 565.75,-2.27373675e-13 C603.512314,-2.27373675e-13 593.478051,71.3925172 640.916667,71.3925172 C691.142077,71.3925172 674.076198,106.21783 716.083333,106.21783 C754.731964,106.21783 754.731964,81.6679708 791.25,81.6679708 C837.544915,81.6679708 823.726884,47.4050889 866.416667,47.4050889 C876.184213,47.4050889 888.711991,38.8234768 904,21.6602527 L904,2316 L2,2316" stroke="none" fill="url(#linearGradient-3)" fill-rule="evenodd"></path>
                        <path d="M-2.27373675e-13,71.7289545 C11.0134761,53.7471639 23.5412539,44.7562687 37.5833333,44.7562687 C65.7253087,44.7562687 65.3315828,79.9848232 112.544931,79.9848232 C152.612716,79.9848232 152.612448,114.738769 187.916667,114.738769 C227.10221,114.738769 227.10221,79.9848232 263.083333,79.9848232 C300.666667,79.9848232 300.666667,145 338.25,145 C375.833333,145 380.172528,106.718381 413.416667,106.718381 C455.891622,106.718381 455.891622,64.3543214 488.583333,64.3543214 C528.694311,64.3543214 528.694311,-2.27373675e-13 563.75,-2.27373675e-13 C601.512314,-2.27373675e-13 591.478051,71.7289545 638.916667,71.7289545 C689.142077,71.7289545 672.076198,106.718381 714.083333,106.718381 C752.731964,106.718381 752.731964,82.0528312 789.25,82.0528312 C835.544915,82.0528312 821.726884,47.6284854 864.416667,47.6284854 C874.184213,47.6284854 886.711991,39.0064325 902,21.7623266" stroke="url(#linearGradient-4)" stroke-width="2" fill="none"></path>
                    </g>
                </g>
            </g>
        </g>
    </g>
</svg>