<svg xmlns="http://www.w3.org/2000/svg" width="16" height="16" viewBox="0 0 16 16">
    <defs>
        <linearGradient id="prefix__a" x1="0%" x2="100%" y1="100%" y2="0%">
            <stop offset="0%" stop-color="#80EC68"/>
            <stop offset="100%" stop-color="#159E49"/>
        </linearGradient>
    </defs>
    <path fill="url(#prefix__a)" fill-rule="evenodd" d="M974 231c.552 0 1 .448 1 1v8h8c.552 0 1 .448 1 1s-.448 1-1 1h-8v8c0 .552-.448 1-1 1s-1-.448-1-1v-8h-8c-.552 0-1-.448-1-1s.448-1 1-1h8v-8c0-.552.448-1 1-1z" transform="rotate(45 772.256 -1041.565)"/>
</svg>
