<svg xmlns="http://www.w3.org/2000/svg" width="20" height="20" viewBox="0 0 20 20">
    <defs>
        <linearGradient id="prefix__a" x1="0%" x2="100%" y1="100%" y2="50%">
            <stop offset="0%" stop-color="#80EC68"/>
            <stop offset="100%" stop-color="#159E49"/>
        </linearGradient>
    </defs>
    <path fill="url(#prefix__a)" d="M9.995 20C15.472 20 20 15.472 20 9.995 20 4.528 15.462 0 9.995 0 4.518 0 0 4.528 0 9.995 0 15.472 4.528 20 9.995 20zm0-1.784c-4.56 0-8.21-3.652-8.21-8.221 0-4.56 3.64-8.22 8.21-8.22 4.559 0 8.22 3.66 8.22 8.22.01 4.57-3.65 8.22-8.22 8.22zm-1.228-3.322c.34 0 .62-.165.815-.474l4.807-7.53c.124-.196.237-.423.237-.64 0-.464-.402-.763-.835-.763-.269 0-.526.155-.712.465l-4.353 6.962-2.238-2.878c-.227-.289-.454-.402-.732-.402-.444 0-.805.36-.805.815 0 .216.093.433.237.629l2.713 3.342c.278.33.536.474.866.474z"/>
</svg>
