<svg xmlns="http://www.w3.org/2000/svg" width="16" height="16" viewBox="0 0 16 16">
    <defs>
        <linearGradient id="70kv97clxa" x1="86.575%" x2="12.488%" y1="82.211%" y2="18.878%">
            <stop offset="0%" stop-color="#FE0139"/>
            <stop offset="100%" stop-color="#95001D"/>
        </linearGradient>
    </defs>
    <g fill="none" fill-rule="evenodd">
        <g fill="url(#70kv97clxa)" transform="translate(-767 -4423)">
            <path d="M769.049 4423.351l5.727 5.728 5.728-5.728c.468-.468 1.228-.468 1.697 0 .468.47.468 1.229 0 1.698l-5.728 5.727 5.728 5.728c.468.468.468 1.228 0 1.697-.469.468-1.229.468-1.697 0l-5.728-5.728-5.727 5.728c-.47.468-1.229.468-1.698 0-.468-.469-.468-1.229 0-1.697l5.728-5.728-5.728-5.727c-.468-.47-.468-1.229 0-1.698.47-.468 1.229-.468 1.698 0z"/>
        </g>
    </g>
</svg>
