<svg xmlns="http://www.w3.org/2000/svg" width="39" height="28" viewBox="0 0 39 28">
    <defs>
        <linearGradient id="prefix__a" x1="0%" x2="100%" y1="76.943%" y2="50%">
            <stop offset="0%" stop-color="#80EC68"/>
            <stop offset="100%" stop-color="#159E49"/>
        </linearGradient>
    </defs>
    <path fill="url(#prefix__a)" fill-rule="evenodd" d="M13.566 1.17c4.06 2.344 5.475 7.529 3.236 11.687l-.13.234L8.09 27.953 2.88 24.944l4.402-7.624c-.853-.182-1.692-.499-2.487-.958C.658 13.974-.732 8.636 1.69 4.442 4.112.245 9.43-1.219 13.566 1.17zm20.684 0c4.06 2.344 5.475 7.529 3.236 11.687l-.13.234-8.58 14.862-5.212-3.009 4.403-7.624c-.854-.182-1.693-.499-2.488-.958-4.137-2.388-5.527-7.726-3.105-11.92 2.422-4.196 7.74-5.66 11.876-3.272z"/>
</svg>
