<svg xmlns="http://www.w3.org/2000/svg" width="131" height="24" viewBox="0 0 131 24">
    <defs>
        <linearGradient id="6s4784a7sa" x1="116.729%" x2="13.135%" y1="0%" y2="100%">
            <stop offset="0%" stop-color="#F86B61"/>
            <stop offset="100%" stop-color="#EE3932"/>
        </linearGradient>
        <linearGradient id="1u6j8lyyob" x1="-2.463%" x2="84.034%" y1="88.29%" y2="0%">
            <stop offset="0%" stop-color="#80EC68"/>
            <stop offset="100%" stop-color="#37D592"/>
        </linearGradient>
    </defs>
    <g fill="none" fill-rule="evenodd">
        <g>
            <g>
                <g transform="translate(-24 -24) translate(24 24)">
                    <path fill="url(#6s4784a7sa)" d="M1.29 18.174v-.001L3.805 7.381H9.34L6.824 18.173h7.196l-1.29 5.536H0l1.29-5.535z"/>
                    <path fill="url(#1u6j8lyyob)" d="M20.308 1.846c0 1.36 1.102 2.462 2.461 2.462l.042-.002-3.232 13.868h-5.534L16.559 7.38l-7.219.001 1.29-5.535h9.678z"/>
                    <circle cx="22.769" cy="1.846" r="1.846" fill="#DB5143"/>
                </g>
                <g fill="#FFF" fill-rule="nonzero">
                    <path d="M7.856 13.748l.393-2.16H2.632L4.674 0H2.416L0 13.748h7.856zm6.34.255c1.924 0 3.423-.667 4.497-2.003l-1.552-1.178c-.68.825-1.603 1.237-2.769 1.237-.785 0-1.42-.196-1.905-.59-.484-.392-.733-.968-.746-1.727h7.817c.039-.118.117-.413.235-.884.275-1.44.004-2.665-.815-3.673-.818-1.008-1.96-1.512-3.427-1.512-1.453 0-2.73.468-3.83 1.404-1.1.936-1.774 2.124-2.023 3.565-.249 1.505.046 2.775.884 3.81.838 1.034 2.05 1.551 3.633 1.551zm3.574-6.01h-5.755c.288-.746.73-1.332 1.326-1.757.596-.426 1.28-.639 2.053-.639.72 0 1.299.197 1.738.59.438.392.651.995.638 1.807zm5.387 5.313c.674.491 1.79.638 3.348.442l.334-1.905c-.523.026-.965.033-1.325.02-.36-.013-.619-.112-.776-.295-.157-.183-.203-.478-.138-.884l.825-4.713h2.436l.373-2.043h-2.455l.49-2.75-2.219.629-.373 2.121H21.87l-.373 2.043h1.807l-.825 4.713c-.222 1.257.004 2.131.678 2.622zm9.177.697c1.074 0 1.98-.239 2.72-.716.74-.478 1.189-1.169 1.346-2.072.118-.708.032-1.29-.256-1.748-.288-.459-.677-.786-1.168-.982-.491-.197-.989-.364-1.493-.501-.504-.138-.923-.311-1.257-.52-.334-.21-.468-.485-.402-.826.065-.353.255-.618.57-.795.313-.177.667-.265 1.06-.265.93 0 1.512.366 1.748 1.1l1.905-.963c-.301-.641-.756-1.142-1.365-1.502-.61-.36-1.332-.54-2.17-.54-.956 0-1.8.252-2.534.756-.733.504-1.178 1.182-1.336 2.033-.117.694-.032 1.266.256 1.718.288.452.677.78 1.168.982.491.203.986.38 1.483.53.498.151.913.328 1.247.53.334.204.475.469.423.796-.118.694-.707 1.041-1.768 1.041-.563 0-1.028-.128-1.394-.383-.367-.255-.61-.599-.727-1.031l-1.905.982c.602 1.584 1.885 2.376 3.85 2.376zm7.165-.02c.445 0 .828-.137 1.148-.412.321-.275.52-.622.6-1.04.065-.406-.02-.757-.256-1.051-.236-.295-.556-.442-.962-.442-.432 0-.812.137-1.14.412-.327.275-.523.616-.589 1.021-.065.42.017.776.246 1.07.23.295.547.443.953.443zm7.576-.235L49.118 2.16h3.869L53.36 0H43.344l-.374 2.16h3.89l-2.043 11.588h2.258zm6.791 0l.923-5.205c.144-.628.416-1.145.816-1.551.399-.406.821-.674 1.266-.805.445-.131.904-.177 1.375-.138l.413-2.298c-1.428-.039-2.534.51-3.32 1.65l.256-1.473h-2.121l-1.729 9.82h2.121zm9.207.255c1.48 0 2.678-.47 3.594-1.414l-.196 1.16h2.121l1.728-9.821H68.2l-.276 1.59c-.68-1.23-1.787-1.845-3.319-1.845-1.375 0-2.583.458-3.623 1.375-1.041.916-1.693 2.108-1.955 3.574-.262 1.427-.01 2.68.756 3.761.766 1.08 1.863 1.62 3.29 1.62zm.629-2.023c-.89 0-1.578-.304-2.063-.913-.484-.609-.648-1.371-.49-2.288.17-.956.595-1.709 1.276-2.258.68-.55 1.447-.825 2.298-.825.838 0 1.512.262 2.023.785.51.524.72 1.238.628 2.141l-.098.57c-.21.824-.648 1.496-1.316 2.013-.667.517-1.42.775-2.258.775zm12.31 2.023c1.492 0 2.703-.477 3.633-1.433l-.216 1.178h2.121L83.966 0h-2.121l-.982 5.539c-.668-1.244-1.774-1.866-3.32-1.866-1.374 0-2.582.458-3.623 1.375-1.04.916-1.692 2.108-1.954 3.574-.262 1.427-.01 2.68.756 3.761.766 1.08 1.863 1.62 3.29 1.62zm.648-2.023c-.89 0-1.581-.304-2.072-.913-.491-.609-.658-1.371-.501-2.288.17-.956.599-1.709 1.286-2.258.688-.55 1.457-.825 2.308-.825.838 0 1.512.258 2.023.775.51.518.72 1.228.629 2.131l-.099.57c-.21.838-.648 1.516-1.316 2.033-.667.517-1.42.775-2.258.775zm12.781 2.023c1.925 0 3.424-.667 4.498-2.003l-1.552-1.178c-.68.825-1.604 1.237-2.769 1.237-.786 0-1.42-.196-1.905-.59-.485-.392-.733-.968-.746-1.727h7.816c.04-.118.118-.413.236-.884.275-1.44.003-2.665-.815-3.673s-1.96-1.512-3.427-1.512c-1.454 0-2.73.468-3.83 1.404-1.1.936-1.774 2.124-2.023 3.565-.249 1.505.046 2.775.884 3.81.838 1.034 2.049 1.551 3.633 1.551zm3.575-6.01H87.26c.288-.746.73-1.332 1.326-1.757.596-.426 1.28-.639 2.052-.639.72 0 1.3.197 1.738.59.439.392.652.995.639 1.807z" transform="translate(-24 -24) translate(24 24) translate(35 5)"/>
                </g>
            </g>
        </g>
    </g>
</svg>
