<svg xmlns="http://www.w3.org/2000/svg" xmlns:xlink="http://www.w3.org/1999/xlink" width="1440" height="406" viewBox="0 0 1440 406">
    <defs>
        <radialGradient id="xkb9rymgsc" cx="50%" cy="50%" r="140.698%" fx="50%" fy="50%" gradientTransform="matrix(.28194 0 0 1 .359 0)">
            <stop offset="0%" stop-opacity=".2"/>
            <stop offset="100%"/>
        </radialGradient>
        <rect id="dwawoljiwa" width="1440" height="406" x="0" y="0" rx="14"/>
    </defs>
    <g fill="none" fill-rule="evenodd">
        <g>
            <g transform="translate(0 -5044) translate(0 5044)">
                <g>
                    <mask id="aty5ddu3db" fill="#fff">
                        <use xlink:href="#dwawoljiwa"/>
                    </mask>
                    <use fill="#000" xlink:href="#dwawoljiwa"/>
                    <g stroke="#43C056" stroke-width="3" mask="url(#aty5ddu3db)" opacity=".8">
                        <path d="M0 185.766c17.582-28.77 37.582-43.156 60-43.156 44.927 0 44.299 56.366 119.673 56.366 63.966 0 63.965 55.606 120.327 55.606 62.558 0 62.558-55.606 120-55.606 60 0 60 104.024 120 104.024s66.927-61.25 120-61.25c67.81 0 67.81-67.783 120-67.783C844.035 173.967 844.035 71 900 71c60.286 0 44.267 114.766 120 114.766 80.182 0 52.938 55.983 120 55.983 61.7 0 61.7-39.464 120-39.464 73.908 0 51.848-55.08 120-55.08 15.593 0 35.593-13.795 60-41.385"/>
                    </g>
                </g>
                <rect width="1440" height="406" fill="url(#xkb9rymgsc)" rx="14"/>
            </g>
        </g>
    </g>
</svg>
